M48
;DRILL file {KiCad 4.0.7} date Sunday, October 29, 2017 'PMt' 07:19:08 PM
;FORMAT={3:3/ absolute / metric / suppress leading zeros}
FMAT,2
METRIC,TZ
T1C0.800
T2C0.900
T3C0.991
T4C1.000
T5C1.097
%
G90
G05
M71
T1
X49530Y-120650
X49530Y-130810
X54610Y-69850
X54610Y-80010
X58420Y-123190
X58420Y-133350
X62230Y-45720
X62230Y-50800
X62230Y-55880
X62230Y-60960
X62230Y-87630
X62230Y-92710
X62230Y-97790
X62230Y-102870
X66040Y-72390
X66040Y-80010
X68580Y-72390
X68580Y-80010
X71120Y-72390
X71120Y-80010
X72390Y-45720
X72390Y-50800
X72390Y-55880
X72390Y-60960
X72390Y-87630
X72390Y-92710
X72390Y-97790
X72390Y-102870
X73660Y-72390
X73660Y-80010
X76200Y-72390
X76200Y-80010
X77470Y-45720
X77470Y-48260
X77470Y-50800
X77470Y-53340
X77470Y-55880
X77470Y-58420
X77470Y-60960
X77470Y-63500
X77470Y-87630
X77470Y-90170
X77470Y-92710
X77470Y-95250
X77470Y-97790
X77470Y-100330
X77470Y-102870
X77470Y-105410
X78740Y-72390
X78740Y-80010
X81280Y-72390
X81280Y-80010
X83820Y-72390
X83820Y-80010
X85090Y-45720
X85090Y-48260
X85090Y-50800
X85090Y-53340
X85090Y-55880
X85090Y-58420
X85090Y-60960
X85090Y-63500
X85090Y-87630
X85090Y-90170
X85090Y-92710
X85090Y-95250
X85090Y-97790
X85090Y-100330
X85090Y-102870
X85090Y-105410
X86360Y-72390
X86360Y-80010
X88900Y-72390
X88900Y-80010
X91440Y-72390
X91440Y-80010
X93980Y-45720
X93980Y-48260
X93980Y-50800
X93980Y-53340
X93980Y-55880
X93980Y-58420
X93980Y-60960
X93980Y-63500
X93980Y-72390
X93980Y-80010
X93980Y-87630
X93980Y-90170
X93980Y-92710
X93980Y-95250
X93980Y-97790
X93980Y-100330
X93980Y-102870
X93980Y-105410
X96520Y-72390
X96520Y-80010
X99060Y-72390
X99060Y-80010
X101600Y-45720
X101600Y-48260
X101600Y-50800
X101600Y-53340
X101600Y-55880
X101600Y-58420
X101600Y-60960
X101600Y-63500
X101600Y-87630
X101600Y-90170
X101600Y-92710
X101600Y-95250
X101600Y-97790
X101600Y-100330
X101600Y-102870
X101600Y-105410
X106680Y-48260
X106680Y-53340
X106680Y-58420
X106680Y-63500
X106680Y-90170
X106680Y-95250
X106680Y-100330
X106680Y-105410
X116840Y-48260
X116840Y-53340
X116840Y-58420
X116840Y-63500
X116840Y-90170
X116840Y-95250
X116840Y-100330
X116840Y-105410
X119380Y-118110
X121920Y-127000
X121920Y-129500
X124380Y-118110
T2
X53340Y-45720
X53340Y-50800
X53340Y-55880
X53340Y-60960
X53340Y-87630
X53340Y-92710
X53340Y-97790
X53340Y-102870
X55880Y-45720
X55880Y-50800
X55880Y-55880
X55880Y-60960
X55880Y-87630
X55880Y-92710
X55880Y-97790
X55880Y-102870
X123190Y-48260
X123190Y-53340
X123190Y-58420
X123190Y-63500
X123190Y-90170
X123190Y-95250
X123190Y-100330
X123190Y-105410
X125730Y-48260
X125730Y-53340
X125730Y-58420
X125730Y-63500
X125730Y-90170
X125730Y-95250
X125730Y-100330
X125730Y-105410
T3
X72390Y-135890
X74930Y-135890
X77470Y-135890
X80010Y-135890
X82550Y-115570
X82550Y-135890
X85090Y-115570
X85090Y-135890
X87630Y-115570
X87630Y-135890
X90170Y-115570
X90170Y-135890
X92710Y-115570
X92710Y-135890
X95250Y-115570
X95250Y-135890
X97790Y-115570
X97790Y-135890
X100330Y-115570
X100330Y-135890
X102870Y-115570
X102870Y-135890
X105410Y-115570
X105410Y-135890
X107950Y-115570
X107950Y-135890
X110490Y-115570
X110490Y-135890
T4
X132080Y-124460
X132080Y-127000
X132080Y-129540
T5
X44450Y-45720
X44450Y-48260
X44450Y-50800
X44450Y-53340
X44450Y-55880
X44450Y-58420
X44450Y-60960
X44450Y-63500
X44450Y-87630
X44450Y-90170
X44450Y-92710
X44450Y-95250
X44450Y-97790
X44450Y-100330
X44450Y-102870
X44450Y-105410
X134620Y-45720
X134620Y-48260
X134620Y-50800
X134620Y-53340
X134620Y-55880
X134620Y-58420
X134620Y-60960
X134620Y-63500
X134620Y-87630
X134620Y-90170
X134620Y-92710
X134620Y-95250
X134620Y-97790
X134620Y-100330
X134620Y-102870
X134620Y-105410
T0
M30
