G04 #@! TF.FileFunction,Copper,L2,Bot,Signal*
%FSLAX46Y46*%
G04 Gerber Fmt 4.6, Leading zero omitted, Abs format (unit mm)*
G04 Created by KiCad (PCBNEW 4.0.7) date Sunday, October 29, 2017 'PMt' 07:12:49 PM*
%MOMM*%
%LPD*%
G01*
G04 APERTURE LIST*
%ADD10C,0.100000*%
%ADD11C,1.778000*%
%ADD12R,1.778000X1.778000*%
%ADD13O,1.600000X1.600000*%
%ADD14R,1.800000X1.800000*%
%ADD15C,1.800000*%
%ADD16O,1.998980X1.998980*%
%ADD17R,1.998980X1.998980*%
%ADD18C,1.600000*%
%ADD19R,1.600000X1.600000*%
%ADD20O,1.800000X1.800000*%
%ADD21C,0.500000*%
%ADD22C,0.254000*%
G04 APERTURE END LIST*
D10*
D11*
X72390000Y-135890000D03*
X74930000Y-135890000D03*
X77470000Y-135890000D03*
X80010000Y-135890000D03*
X82550000Y-135890000D03*
X85090000Y-135890000D03*
X87630000Y-135890000D03*
X90170000Y-135890000D03*
X92710000Y-135890000D03*
X95250000Y-135890000D03*
X97790000Y-135890000D03*
X100330000Y-135890000D03*
X102870000Y-135890000D03*
X105410000Y-135890000D03*
X107950000Y-135890000D03*
D12*
X110490000Y-135890000D03*
D11*
X85090000Y-115570000D03*
D12*
X82550000Y-115570000D03*
D11*
X87630000Y-115570000D03*
X90170000Y-115570000D03*
X92710000Y-115570000D03*
X95250000Y-115570000D03*
X97790000Y-115570000D03*
X100330000Y-115570000D03*
X102870000Y-115570000D03*
X105410000Y-115570000D03*
X107950000Y-115570000D03*
X110490000Y-115570000D03*
D13*
X101600000Y-63500000D03*
X101600000Y-60960000D03*
X101600000Y-58420000D03*
X101600000Y-55880000D03*
X101600000Y-53340000D03*
X101600000Y-50800000D03*
X101600000Y-48260000D03*
X101600000Y-45720000D03*
X93980000Y-45720000D03*
X93980000Y-48260000D03*
X93980000Y-50800000D03*
X93980000Y-53340000D03*
X93980000Y-55880000D03*
X93980000Y-58420000D03*
X93980000Y-60960000D03*
X93980000Y-63500000D03*
D14*
X123190000Y-63500000D03*
D15*
X125730000Y-63500000D03*
D14*
X123190000Y-58420000D03*
D15*
X125730000Y-58420000D03*
D14*
X123190000Y-53340000D03*
D15*
X125730000Y-53340000D03*
D14*
X123190000Y-48260000D03*
D15*
X125730000Y-48260000D03*
D13*
X77470000Y-45720000D03*
X77470000Y-48260000D03*
X77470000Y-50800000D03*
X77470000Y-53340000D03*
X77470000Y-55880000D03*
X77470000Y-58420000D03*
X77470000Y-60960000D03*
X77470000Y-63500000D03*
X85090000Y-63500000D03*
X85090000Y-60960000D03*
X85090000Y-58420000D03*
X85090000Y-55880000D03*
X85090000Y-53340000D03*
X85090000Y-50800000D03*
X85090000Y-48260000D03*
X85090000Y-45720000D03*
X77470000Y-87630000D03*
X77470000Y-90170000D03*
X77470000Y-92710000D03*
X77470000Y-95250000D03*
X77470000Y-97790000D03*
X77470000Y-100330000D03*
X77470000Y-102870000D03*
X77470000Y-105410000D03*
X85090000Y-105410000D03*
X85090000Y-102870000D03*
X85090000Y-100330000D03*
X85090000Y-97790000D03*
X85090000Y-95250000D03*
X85090000Y-92710000D03*
X85090000Y-90170000D03*
X85090000Y-87630000D03*
X101600000Y-105410000D03*
X101600000Y-102870000D03*
X101600000Y-100330000D03*
X101600000Y-97790000D03*
X101600000Y-95250000D03*
X101600000Y-92710000D03*
X101600000Y-90170000D03*
X101600000Y-87630000D03*
X93980000Y-87630000D03*
X93980000Y-90170000D03*
X93980000Y-92710000D03*
X93980000Y-95250000D03*
X93980000Y-97790000D03*
X93980000Y-100330000D03*
X93980000Y-102870000D03*
X93980000Y-105410000D03*
D14*
X55880000Y-45720000D03*
D15*
X53340000Y-45720000D03*
D14*
X55880000Y-50800000D03*
D15*
X53340000Y-50800000D03*
D14*
X55880000Y-55880000D03*
D15*
X53340000Y-55880000D03*
D14*
X55880000Y-60960000D03*
D15*
X53340000Y-60960000D03*
D14*
X55880000Y-87630000D03*
D15*
X53340000Y-87630000D03*
D14*
X55880000Y-92710000D03*
D15*
X53340000Y-92710000D03*
D14*
X55880000Y-97790000D03*
D15*
X53340000Y-97790000D03*
D14*
X55880000Y-102870000D03*
D15*
X53340000Y-102870000D03*
D14*
X123190000Y-105410000D03*
D15*
X125730000Y-105410000D03*
D14*
X123190000Y-100330000D03*
D15*
X125730000Y-100330000D03*
D14*
X123190000Y-95250000D03*
D15*
X125730000Y-95250000D03*
D14*
X123190000Y-90170000D03*
D15*
X125730000Y-90170000D03*
D16*
X134620000Y-55880000D03*
D17*
X134620000Y-63500000D03*
D16*
X134620000Y-60960000D03*
X134620000Y-58420000D03*
X134620000Y-53340000D03*
X134620000Y-50800000D03*
X134620000Y-48260000D03*
X134620000Y-45720000D03*
X44450000Y-53340000D03*
D17*
X44450000Y-45720000D03*
D16*
X44450000Y-48260000D03*
X44450000Y-50800000D03*
X44450000Y-55880000D03*
X44450000Y-58420000D03*
X44450000Y-60960000D03*
X44450000Y-63500000D03*
X44450000Y-95250000D03*
D17*
X44450000Y-87630000D03*
D16*
X44450000Y-90170000D03*
X44450000Y-92710000D03*
X44450000Y-97790000D03*
X44450000Y-100330000D03*
X44450000Y-102870000D03*
X44450000Y-105410000D03*
X134620000Y-97790000D03*
D17*
X134620000Y-105410000D03*
D16*
X134620000Y-102870000D03*
X134620000Y-100330000D03*
X134620000Y-95250000D03*
X134620000Y-92710000D03*
X134620000Y-90170000D03*
X134620000Y-87630000D03*
D13*
X99060000Y-72390000D03*
X96520000Y-72390000D03*
X93980000Y-72390000D03*
X91440000Y-72390000D03*
X88900000Y-72390000D03*
X86360000Y-72390000D03*
X83820000Y-72390000D03*
X81280000Y-72390000D03*
X78740000Y-72390000D03*
X76200000Y-72390000D03*
X73660000Y-72390000D03*
X71120000Y-72390000D03*
X68580000Y-72390000D03*
X66040000Y-72390000D03*
X66040000Y-80010000D03*
X68580000Y-80010000D03*
X71120000Y-80010000D03*
X73660000Y-80010000D03*
X76200000Y-80010000D03*
X78740000Y-80010000D03*
X81280000Y-80010000D03*
X83820000Y-80010000D03*
X86360000Y-80010000D03*
X88900000Y-80010000D03*
X91440000Y-80010000D03*
X93980000Y-80010000D03*
X96520000Y-80010000D03*
X99060000Y-80010000D03*
D18*
X106680000Y-63500000D03*
D13*
X116840000Y-63500000D03*
D18*
X106680000Y-58420000D03*
D13*
X116840000Y-58420000D03*
D18*
X106680000Y-53340000D03*
D13*
X116840000Y-53340000D03*
D18*
X106680000Y-48260000D03*
D13*
X116840000Y-48260000D03*
D18*
X72390000Y-45720000D03*
D13*
X62230000Y-45720000D03*
D18*
X72390000Y-50800000D03*
D13*
X62230000Y-50800000D03*
D18*
X72390000Y-55880000D03*
D13*
X62230000Y-55880000D03*
D18*
X72390000Y-60960000D03*
D13*
X62230000Y-60960000D03*
D18*
X72390000Y-87630000D03*
D13*
X62230000Y-87630000D03*
D18*
X72390000Y-92710000D03*
D13*
X62230000Y-92710000D03*
D18*
X72390000Y-97790000D03*
D13*
X62230000Y-97790000D03*
D18*
X72390000Y-102870000D03*
D13*
X62230000Y-102870000D03*
D18*
X106680000Y-105410000D03*
D13*
X116840000Y-105410000D03*
D18*
X106680000Y-100330000D03*
D13*
X116840000Y-100330000D03*
D18*
X106680000Y-95250000D03*
D13*
X116840000Y-95250000D03*
D18*
X106680000Y-90170000D03*
D13*
X116840000Y-90170000D03*
D18*
X58420000Y-133350000D03*
D13*
X58420000Y-123190000D03*
D18*
X49530000Y-130810000D03*
D13*
X49530000Y-120650000D03*
D18*
X54610000Y-69850000D03*
D13*
X54610000Y-80010000D03*
D18*
X119380000Y-118110000D03*
X124380000Y-118110000D03*
D19*
X121920000Y-127000000D03*
D18*
X121920000Y-129500000D03*
D14*
X132080000Y-129540000D03*
D20*
X132080000Y-127000000D03*
X132080000Y-124460000D03*
D21*
X58420000Y-123190000D02*
X58420000Y-77470000D01*
X68580000Y-74930000D02*
X71120000Y-72390000D01*
X60960000Y-74930000D02*
X68580000Y-74930000D01*
X58420000Y-77470000D02*
X60960000Y-74930000D01*
X49530000Y-120650000D02*
X49530000Y-81280000D01*
X64770000Y-68580000D02*
X68580000Y-72390000D01*
X62230000Y-68580000D02*
X64770000Y-68580000D01*
X49530000Y-81280000D02*
X62230000Y-68580000D01*
X82550000Y-115570000D02*
X82550000Y-116840000D01*
X83820000Y-118110000D02*
X119380000Y-118110000D01*
X82550000Y-116840000D02*
X83820000Y-118110000D01*
D22*
G36*
X138290000Y-138290000D02*
X40767000Y-138290000D01*
X40767000Y-136191812D01*
X70865736Y-136191812D01*
X71097262Y-136752149D01*
X71525596Y-137181231D01*
X72085528Y-137413735D01*
X72691812Y-137414264D01*
X73252149Y-137182738D01*
X73660336Y-136775263D01*
X74065596Y-137181231D01*
X74625528Y-137413735D01*
X75231812Y-137414264D01*
X75792149Y-137182738D01*
X76200336Y-136775263D01*
X76605596Y-137181231D01*
X77165528Y-137413735D01*
X77771812Y-137414264D01*
X78332149Y-137182738D01*
X78553076Y-136962196D01*
X79117409Y-136962196D01*
X79202467Y-137217539D01*
X79771965Y-137425516D01*
X80377700Y-137399723D01*
X80817533Y-137217539D01*
X80902591Y-136962196D01*
X80010000Y-136069605D01*
X79117409Y-136962196D01*
X78553076Y-136962196D01*
X78761231Y-136754404D01*
X78772405Y-136727494D01*
X78937804Y-136782591D01*
X79830395Y-135890000D01*
X80189605Y-135890000D01*
X81082196Y-136782591D01*
X81247138Y-136727647D01*
X81257262Y-136752149D01*
X81685596Y-137181231D01*
X82245528Y-137413735D01*
X82851812Y-137414264D01*
X83412149Y-137182738D01*
X83820336Y-136775263D01*
X84225596Y-137181231D01*
X84785528Y-137413735D01*
X85391812Y-137414264D01*
X85952149Y-137182738D01*
X86360336Y-136775263D01*
X86765596Y-137181231D01*
X87325528Y-137413735D01*
X87931812Y-137414264D01*
X88492149Y-137182738D01*
X88900336Y-136775263D01*
X89305596Y-137181231D01*
X89865528Y-137413735D01*
X90471812Y-137414264D01*
X91032149Y-137182738D01*
X91440336Y-136775263D01*
X91845596Y-137181231D01*
X92405528Y-137413735D01*
X93011812Y-137414264D01*
X93572149Y-137182738D01*
X93980336Y-136775263D01*
X94385596Y-137181231D01*
X94945528Y-137413735D01*
X95551812Y-137414264D01*
X96112149Y-137182738D01*
X96520336Y-136775263D01*
X96925596Y-137181231D01*
X97485528Y-137413735D01*
X98091812Y-137414264D01*
X98652149Y-137182738D01*
X99060336Y-136775263D01*
X99465596Y-137181231D01*
X100025528Y-137413735D01*
X100631812Y-137414264D01*
X101192149Y-137182738D01*
X101600336Y-136775263D01*
X102005596Y-137181231D01*
X102565528Y-137413735D01*
X103171812Y-137414264D01*
X103732149Y-137182738D01*
X104140336Y-136775263D01*
X104545596Y-137181231D01*
X105105528Y-137413735D01*
X105711812Y-137414264D01*
X106272149Y-137182738D01*
X106680336Y-136775263D01*
X107085596Y-137181231D01*
X107645528Y-137413735D01*
X108251812Y-137414264D01*
X108812149Y-137182738D01*
X108995154Y-137000052D01*
X108997838Y-137014317D01*
X109136910Y-137230441D01*
X109349110Y-137375431D01*
X109601000Y-137426440D01*
X111379000Y-137426440D01*
X111614317Y-137382162D01*
X111830441Y-137243090D01*
X111975431Y-137030890D01*
X112026440Y-136779000D01*
X112026440Y-135001000D01*
X111982162Y-134765683D01*
X111843090Y-134549559D01*
X111630890Y-134404569D01*
X111379000Y-134353560D01*
X109601000Y-134353560D01*
X109365683Y-134397838D01*
X109149559Y-134536910D01*
X109004569Y-134749110D01*
X108997809Y-134782494D01*
X108814404Y-134598769D01*
X108254472Y-134366265D01*
X107648188Y-134365736D01*
X107087851Y-134597262D01*
X106679664Y-135004737D01*
X106274404Y-134598769D01*
X105714472Y-134366265D01*
X105108188Y-134365736D01*
X104547851Y-134597262D01*
X104139664Y-135004737D01*
X103734404Y-134598769D01*
X103174472Y-134366265D01*
X102568188Y-134365736D01*
X102007851Y-134597262D01*
X101599664Y-135004737D01*
X101194404Y-134598769D01*
X100634472Y-134366265D01*
X100028188Y-134365736D01*
X99467851Y-134597262D01*
X99059664Y-135004737D01*
X98654404Y-134598769D01*
X98094472Y-134366265D01*
X97488188Y-134365736D01*
X96927851Y-134597262D01*
X96519664Y-135004737D01*
X96114404Y-134598769D01*
X95554472Y-134366265D01*
X94948188Y-134365736D01*
X94387851Y-134597262D01*
X93979664Y-135004737D01*
X93574404Y-134598769D01*
X93014472Y-134366265D01*
X92408188Y-134365736D01*
X91847851Y-134597262D01*
X91439664Y-135004737D01*
X91034404Y-134598769D01*
X90474472Y-134366265D01*
X89868188Y-134365736D01*
X89307851Y-134597262D01*
X88899664Y-135004737D01*
X88494404Y-134598769D01*
X87934472Y-134366265D01*
X87328188Y-134365736D01*
X86767851Y-134597262D01*
X86359664Y-135004737D01*
X85954404Y-134598769D01*
X85394472Y-134366265D01*
X84788188Y-134365736D01*
X84227851Y-134597262D01*
X83819664Y-135004737D01*
X83414404Y-134598769D01*
X82854472Y-134366265D01*
X82248188Y-134365736D01*
X81687851Y-134597262D01*
X81258769Y-135025596D01*
X81247595Y-135052506D01*
X81082196Y-134997409D01*
X80189605Y-135890000D01*
X79830395Y-135890000D01*
X78937804Y-134997409D01*
X78772862Y-135052353D01*
X78762738Y-135027851D01*
X78553058Y-134817804D01*
X79117409Y-134817804D01*
X80010000Y-135710395D01*
X80902591Y-134817804D01*
X80817533Y-134562461D01*
X80248035Y-134354484D01*
X79642300Y-134380277D01*
X79202467Y-134562461D01*
X79117409Y-134817804D01*
X78553058Y-134817804D01*
X78334404Y-134598769D01*
X77774472Y-134366265D01*
X77168188Y-134365736D01*
X76607851Y-134597262D01*
X76199664Y-135004737D01*
X75794404Y-134598769D01*
X75234472Y-134366265D01*
X74628188Y-134365736D01*
X74067851Y-134597262D01*
X73659664Y-135004737D01*
X73254404Y-134598769D01*
X72694472Y-134366265D01*
X72088188Y-134365736D01*
X71527851Y-134597262D01*
X71098769Y-135025596D01*
X70866265Y-135585528D01*
X70865736Y-136191812D01*
X40767000Y-136191812D01*
X40767000Y-133634187D01*
X56984752Y-133634187D01*
X57202757Y-134161800D01*
X57606077Y-134565824D01*
X58133309Y-134784750D01*
X58704187Y-134785248D01*
X59231800Y-134567243D01*
X59635824Y-134163923D01*
X59854750Y-133636691D01*
X59855248Y-133065813D01*
X59637243Y-132538200D01*
X59233923Y-132134176D01*
X58706691Y-131915250D01*
X58135813Y-131914752D01*
X57608200Y-132132757D01*
X57204176Y-132536077D01*
X56985250Y-133063309D01*
X56984752Y-133634187D01*
X40767000Y-133634187D01*
X40767000Y-131094187D01*
X48094752Y-131094187D01*
X48312757Y-131621800D01*
X48716077Y-132025824D01*
X49243309Y-132244750D01*
X49814187Y-132245248D01*
X50341800Y-132027243D01*
X50745824Y-131623923D01*
X50964750Y-131096691D01*
X50965248Y-130525813D01*
X50957783Y-130507745D01*
X121091861Y-130507745D01*
X121165995Y-130753864D01*
X121703223Y-130946965D01*
X122273454Y-130919778D01*
X122674005Y-130753864D01*
X122748139Y-130507745D01*
X121920000Y-129679605D01*
X121091861Y-130507745D01*
X50957783Y-130507745D01*
X50747243Y-129998200D01*
X50343923Y-129594176D01*
X49816691Y-129375250D01*
X49245813Y-129374752D01*
X48718200Y-129592757D01*
X48314176Y-129996077D01*
X48095250Y-130523309D01*
X48094752Y-131094187D01*
X40767000Y-131094187D01*
X40767000Y-129283223D01*
X120473035Y-129283223D01*
X120500222Y-129853454D01*
X120666136Y-130254005D01*
X120912255Y-130328139D01*
X121740395Y-129500000D01*
X122099605Y-129500000D01*
X122927745Y-130328139D01*
X123173864Y-130254005D01*
X123327795Y-129825750D01*
X130545000Y-129825750D01*
X130545000Y-130566309D01*
X130641673Y-130799698D01*
X130820301Y-130978327D01*
X131053690Y-131075000D01*
X131794250Y-131075000D01*
X131953000Y-130916250D01*
X131953000Y-129667000D01*
X132207000Y-129667000D01*
X132207000Y-130916250D01*
X132365750Y-131075000D01*
X133106310Y-131075000D01*
X133339699Y-130978327D01*
X133518327Y-130799698D01*
X133615000Y-130566309D01*
X133615000Y-129825750D01*
X133456250Y-129667000D01*
X132207000Y-129667000D01*
X131953000Y-129667000D01*
X130703750Y-129667000D01*
X130545000Y-129825750D01*
X123327795Y-129825750D01*
X123366965Y-129716777D01*
X123339778Y-129146546D01*
X123173864Y-128745995D01*
X122927745Y-128671861D01*
X122099605Y-129500000D01*
X121740395Y-129500000D01*
X120912255Y-128671861D01*
X120666136Y-128745995D01*
X120473035Y-129283223D01*
X40767000Y-129283223D01*
X40767000Y-126200000D01*
X120472560Y-126200000D01*
X120472560Y-127800000D01*
X120516838Y-128035317D01*
X120655910Y-128251441D01*
X120868110Y-128396431D01*
X121106201Y-128444646D01*
X121091861Y-128492255D01*
X121920000Y-129320395D01*
X122748139Y-128492255D01*
X122733855Y-128444833D01*
X122955317Y-128403162D01*
X123171441Y-128264090D01*
X123316431Y-128051890D01*
X123367440Y-127800000D01*
X123367440Y-126200000D01*
X123323162Y-125964683D01*
X123184090Y-125748559D01*
X122971890Y-125603569D01*
X122720000Y-125552560D01*
X121120000Y-125552560D01*
X120884683Y-125596838D01*
X120668559Y-125735910D01*
X120523569Y-125948110D01*
X120472560Y-126200000D01*
X40767000Y-126200000D01*
X40767000Y-120621887D01*
X48095000Y-120621887D01*
X48095000Y-120678113D01*
X48204233Y-121227264D01*
X48515302Y-121692811D01*
X48980849Y-122003880D01*
X49530000Y-122113113D01*
X50079151Y-122003880D01*
X50544698Y-121692811D01*
X50855767Y-121227264D01*
X50965000Y-120678113D01*
X50965000Y-120621887D01*
X50855767Y-120072736D01*
X50544698Y-119607189D01*
X50415000Y-119520527D01*
X50415000Y-103173991D01*
X51804735Y-103173991D01*
X52037932Y-103738371D01*
X52469357Y-104170551D01*
X53033330Y-104404733D01*
X53643991Y-104405265D01*
X54208371Y-104172068D01*
X54376613Y-104004120D01*
X54376838Y-104005317D01*
X54515910Y-104221441D01*
X54728110Y-104366431D01*
X54980000Y-104417440D01*
X56780000Y-104417440D01*
X57015317Y-104373162D01*
X57231441Y-104234090D01*
X57376431Y-104021890D01*
X57427440Y-103770000D01*
X57427440Y-101970000D01*
X57383162Y-101734683D01*
X57244090Y-101518559D01*
X57031890Y-101373569D01*
X56780000Y-101322560D01*
X54980000Y-101322560D01*
X54744683Y-101366838D01*
X54528559Y-101505910D01*
X54383569Y-101718110D01*
X54379433Y-101738534D01*
X54210643Y-101569449D01*
X53646670Y-101335267D01*
X53036009Y-101334735D01*
X52471629Y-101567932D01*
X52039449Y-101999357D01*
X51805267Y-102563330D01*
X51804735Y-103173991D01*
X50415000Y-103173991D01*
X50415000Y-98093991D01*
X51804735Y-98093991D01*
X52037932Y-98658371D01*
X52469357Y-99090551D01*
X53033330Y-99324733D01*
X53643991Y-99325265D01*
X54208371Y-99092068D01*
X54376613Y-98924120D01*
X54376838Y-98925317D01*
X54515910Y-99141441D01*
X54728110Y-99286431D01*
X54980000Y-99337440D01*
X56780000Y-99337440D01*
X57015317Y-99293162D01*
X57231441Y-99154090D01*
X57376431Y-98941890D01*
X57427440Y-98690000D01*
X57427440Y-96890000D01*
X57383162Y-96654683D01*
X57244090Y-96438559D01*
X57031890Y-96293569D01*
X56780000Y-96242560D01*
X54980000Y-96242560D01*
X54744683Y-96286838D01*
X54528559Y-96425910D01*
X54383569Y-96638110D01*
X54379433Y-96658534D01*
X54210643Y-96489449D01*
X53646670Y-96255267D01*
X53036009Y-96254735D01*
X52471629Y-96487932D01*
X52039449Y-96919357D01*
X51805267Y-97483330D01*
X51804735Y-98093991D01*
X50415000Y-98093991D01*
X50415000Y-93013991D01*
X51804735Y-93013991D01*
X52037932Y-93578371D01*
X52469357Y-94010551D01*
X53033330Y-94244733D01*
X53643991Y-94245265D01*
X54208371Y-94012068D01*
X54376613Y-93844120D01*
X54376838Y-93845317D01*
X54515910Y-94061441D01*
X54728110Y-94206431D01*
X54980000Y-94257440D01*
X56780000Y-94257440D01*
X57015317Y-94213162D01*
X57231441Y-94074090D01*
X57376431Y-93861890D01*
X57427440Y-93610000D01*
X57427440Y-91810000D01*
X57383162Y-91574683D01*
X57244090Y-91358559D01*
X57031890Y-91213569D01*
X56780000Y-91162560D01*
X54980000Y-91162560D01*
X54744683Y-91206838D01*
X54528559Y-91345910D01*
X54383569Y-91558110D01*
X54379433Y-91578534D01*
X54210643Y-91409449D01*
X53646670Y-91175267D01*
X53036009Y-91174735D01*
X52471629Y-91407932D01*
X52039449Y-91839357D01*
X51805267Y-92403330D01*
X51804735Y-93013991D01*
X50415000Y-93013991D01*
X50415000Y-87933991D01*
X51804735Y-87933991D01*
X52037932Y-88498371D01*
X52469357Y-88930551D01*
X53033330Y-89164733D01*
X53643991Y-89165265D01*
X54208371Y-88932068D01*
X54376613Y-88764120D01*
X54376838Y-88765317D01*
X54515910Y-88981441D01*
X54728110Y-89126431D01*
X54980000Y-89177440D01*
X56780000Y-89177440D01*
X57015317Y-89133162D01*
X57231441Y-88994090D01*
X57376431Y-88781890D01*
X57427440Y-88530000D01*
X57427440Y-86730000D01*
X57383162Y-86494683D01*
X57244090Y-86278559D01*
X57031890Y-86133569D01*
X56780000Y-86082560D01*
X54980000Y-86082560D01*
X54744683Y-86126838D01*
X54528559Y-86265910D01*
X54383569Y-86478110D01*
X54379433Y-86498534D01*
X54210643Y-86329449D01*
X53646670Y-86095267D01*
X53036009Y-86094735D01*
X52471629Y-86327932D01*
X52039449Y-86759357D01*
X51805267Y-87323330D01*
X51804735Y-87933991D01*
X50415000Y-87933991D01*
X50415000Y-81646580D01*
X52079692Y-79981887D01*
X53175000Y-79981887D01*
X53175000Y-80038113D01*
X53284233Y-80587264D01*
X53595302Y-81052811D01*
X54060849Y-81363880D01*
X54610000Y-81473113D01*
X55159151Y-81363880D01*
X55624698Y-81052811D01*
X55935767Y-80587264D01*
X56045000Y-80038113D01*
X56045000Y-79981887D01*
X55935767Y-79432736D01*
X55624698Y-78967189D01*
X55159151Y-78656120D01*
X54610000Y-78546887D01*
X54060849Y-78656120D01*
X53595302Y-78967189D01*
X53284233Y-79432736D01*
X53175000Y-79981887D01*
X52079692Y-79981887D01*
X62596579Y-69465000D01*
X64403420Y-69465000D01*
X65894291Y-70955870D01*
X65490849Y-71036120D01*
X65025302Y-71347189D01*
X64714233Y-71812736D01*
X64605000Y-72361887D01*
X64605000Y-72418113D01*
X64714233Y-72967264D01*
X65025302Y-73432811D01*
X65490849Y-73743880D01*
X66040000Y-73853113D01*
X66589151Y-73743880D01*
X67054698Y-73432811D01*
X67310000Y-73050725D01*
X67565302Y-73432811D01*
X68030849Y-73743880D01*
X68434291Y-73824130D01*
X68213420Y-74045000D01*
X60960000Y-74045000D01*
X60621325Y-74112367D01*
X60334210Y-74304210D01*
X60334208Y-74304213D01*
X57794210Y-76844210D01*
X57602367Y-77131325D01*
X57602367Y-77131326D01*
X57534999Y-77470000D01*
X57535000Y-77470005D01*
X57535000Y-122060527D01*
X57405302Y-122147189D01*
X57094233Y-122612736D01*
X56985000Y-123161887D01*
X56985000Y-123218113D01*
X57094233Y-123767264D01*
X57405302Y-124232811D01*
X57870849Y-124543880D01*
X58420000Y-124653113D01*
X58969151Y-124543880D01*
X59139691Y-124429928D01*
X130545000Y-124429928D01*
X130545000Y-124490072D01*
X130661845Y-125077491D01*
X130994591Y-125575481D01*
X131225845Y-125730000D01*
X130994591Y-125884519D01*
X130661845Y-126382509D01*
X130545000Y-126969928D01*
X130545000Y-127030072D01*
X130661845Y-127617491D01*
X130949583Y-128048122D01*
X130820301Y-128101673D01*
X130641673Y-128280302D01*
X130545000Y-128513691D01*
X130545000Y-129254250D01*
X130703750Y-129413000D01*
X131953000Y-129413000D01*
X131953000Y-129393000D01*
X132207000Y-129393000D01*
X132207000Y-129413000D01*
X133456250Y-129413000D01*
X133615000Y-129254250D01*
X133615000Y-128513691D01*
X133518327Y-128280302D01*
X133339699Y-128101673D01*
X133210417Y-128048122D01*
X133498155Y-127617491D01*
X133615000Y-127030072D01*
X133615000Y-126969928D01*
X133498155Y-126382509D01*
X133165409Y-125884519D01*
X132934155Y-125730000D01*
X133165409Y-125575481D01*
X133498155Y-125077491D01*
X133615000Y-124490072D01*
X133615000Y-124429928D01*
X133498155Y-123842509D01*
X133165409Y-123344519D01*
X132667419Y-123011773D01*
X132080000Y-122894928D01*
X131492581Y-123011773D01*
X130994591Y-123344519D01*
X130661845Y-123842509D01*
X130545000Y-124429928D01*
X59139691Y-124429928D01*
X59434698Y-124232811D01*
X59745767Y-123767264D01*
X59855000Y-123218113D01*
X59855000Y-123161887D01*
X59745767Y-122612736D01*
X59434698Y-122147189D01*
X59305000Y-122060527D01*
X59305000Y-114681000D01*
X81013560Y-114681000D01*
X81013560Y-116459000D01*
X81057838Y-116694317D01*
X81196910Y-116910441D01*
X81409110Y-117055431D01*
X81661000Y-117106440D01*
X81717998Y-117106440D01*
X81732367Y-117178675D01*
X81810812Y-117296077D01*
X81924210Y-117465790D01*
X83194208Y-118735787D01*
X83194210Y-118735790D01*
X83472595Y-118921800D01*
X83481325Y-118927633D01*
X83820000Y-118995001D01*
X83820005Y-118995000D01*
X118235829Y-118995000D01*
X118566077Y-119325824D01*
X119093309Y-119544750D01*
X119664187Y-119545248D01*
X120191800Y-119327243D01*
X120401663Y-119117745D01*
X123551861Y-119117745D01*
X123625995Y-119363864D01*
X124163223Y-119556965D01*
X124733454Y-119529778D01*
X125134005Y-119363864D01*
X125208139Y-119117745D01*
X124380000Y-118289605D01*
X123551861Y-119117745D01*
X120401663Y-119117745D01*
X120595824Y-118923923D01*
X120814750Y-118396691D01*
X120815189Y-117893223D01*
X122933035Y-117893223D01*
X122960222Y-118463454D01*
X123126136Y-118864005D01*
X123372255Y-118938139D01*
X124200395Y-118110000D01*
X124559605Y-118110000D01*
X125387745Y-118938139D01*
X125633864Y-118864005D01*
X125826965Y-118326777D01*
X125799778Y-117756546D01*
X125633864Y-117355995D01*
X125387745Y-117281861D01*
X124559605Y-118110000D01*
X124200395Y-118110000D01*
X123372255Y-117281861D01*
X123126136Y-117355995D01*
X122933035Y-117893223D01*
X120815189Y-117893223D01*
X120815248Y-117825813D01*
X120597243Y-117298200D01*
X120401640Y-117102255D01*
X123551861Y-117102255D01*
X124380000Y-117930395D01*
X125208139Y-117102255D01*
X125134005Y-116856136D01*
X124596777Y-116663035D01*
X124026546Y-116690222D01*
X123625995Y-116856136D01*
X123551861Y-117102255D01*
X120401640Y-117102255D01*
X120193923Y-116894176D01*
X119666691Y-116675250D01*
X119095813Y-116674752D01*
X118568200Y-116892757D01*
X118235377Y-117225000D01*
X84186579Y-117225000D01*
X83886929Y-116925350D01*
X83890441Y-116923090D01*
X84035431Y-116710890D01*
X84042191Y-116677506D01*
X84225596Y-116861231D01*
X84785528Y-117093735D01*
X85391812Y-117094264D01*
X85952149Y-116862738D01*
X86360336Y-116455263D01*
X86765596Y-116861231D01*
X87325528Y-117093735D01*
X87931812Y-117094264D01*
X88492149Y-116862738D01*
X88900336Y-116455263D01*
X89305596Y-116861231D01*
X89865528Y-117093735D01*
X90471812Y-117094264D01*
X91032149Y-116862738D01*
X91440336Y-116455263D01*
X91845596Y-116861231D01*
X92405528Y-117093735D01*
X93011812Y-117094264D01*
X93572149Y-116862738D01*
X93980336Y-116455263D01*
X94385596Y-116861231D01*
X94945528Y-117093735D01*
X95551812Y-117094264D01*
X96112149Y-116862738D01*
X96520336Y-116455263D01*
X96925596Y-116861231D01*
X97485528Y-117093735D01*
X98091812Y-117094264D01*
X98652149Y-116862738D01*
X99060336Y-116455263D01*
X99465596Y-116861231D01*
X100025528Y-117093735D01*
X100631812Y-117094264D01*
X101192149Y-116862738D01*
X101600336Y-116455263D01*
X102005596Y-116861231D01*
X102565528Y-117093735D01*
X103171812Y-117094264D01*
X103732149Y-116862738D01*
X104140336Y-116455263D01*
X104545596Y-116861231D01*
X105105528Y-117093735D01*
X105711812Y-117094264D01*
X106272149Y-116862738D01*
X106680336Y-116455263D01*
X107085596Y-116861231D01*
X107645528Y-117093735D01*
X108251812Y-117094264D01*
X108812149Y-116862738D01*
X109220336Y-116455263D01*
X109625596Y-116861231D01*
X110185528Y-117093735D01*
X110791812Y-117094264D01*
X111352149Y-116862738D01*
X111781231Y-116434404D01*
X112013735Y-115874472D01*
X112014264Y-115268188D01*
X111782738Y-114707851D01*
X111354404Y-114278769D01*
X110794472Y-114046265D01*
X110188188Y-114045736D01*
X109627851Y-114277262D01*
X109219664Y-114684737D01*
X108814404Y-114278769D01*
X108254472Y-114046265D01*
X107648188Y-114045736D01*
X107087851Y-114277262D01*
X106679664Y-114684737D01*
X106274404Y-114278769D01*
X105714472Y-114046265D01*
X105108188Y-114045736D01*
X104547851Y-114277262D01*
X104139664Y-114684737D01*
X103734404Y-114278769D01*
X103174472Y-114046265D01*
X102568188Y-114045736D01*
X102007851Y-114277262D01*
X101599664Y-114684737D01*
X101194404Y-114278769D01*
X100634472Y-114046265D01*
X100028188Y-114045736D01*
X99467851Y-114277262D01*
X99059664Y-114684737D01*
X98654404Y-114278769D01*
X98094472Y-114046265D01*
X97488188Y-114045736D01*
X96927851Y-114277262D01*
X96519664Y-114684737D01*
X96114404Y-114278769D01*
X95554472Y-114046265D01*
X94948188Y-114045736D01*
X94387851Y-114277262D01*
X93979664Y-114684737D01*
X93574404Y-114278769D01*
X93014472Y-114046265D01*
X92408188Y-114045736D01*
X91847851Y-114277262D01*
X91439664Y-114684737D01*
X91034404Y-114278769D01*
X90474472Y-114046265D01*
X89868188Y-114045736D01*
X89307851Y-114277262D01*
X88899664Y-114684737D01*
X88494404Y-114278769D01*
X87934472Y-114046265D01*
X87328188Y-114045736D01*
X86767851Y-114277262D01*
X86359664Y-114684737D01*
X85954404Y-114278769D01*
X85394472Y-114046265D01*
X84788188Y-114045736D01*
X84227851Y-114277262D01*
X84044846Y-114459948D01*
X84042162Y-114445683D01*
X83903090Y-114229559D01*
X83690890Y-114084569D01*
X83439000Y-114033560D01*
X81661000Y-114033560D01*
X81425683Y-114077838D01*
X81209559Y-114216910D01*
X81064569Y-114429110D01*
X81013560Y-114681000D01*
X59305000Y-114681000D01*
X59305000Y-102870000D01*
X60766887Y-102870000D01*
X60876120Y-103419151D01*
X61187189Y-103884698D01*
X61652736Y-104195767D01*
X62201887Y-104305000D01*
X62258113Y-104305000D01*
X62807264Y-104195767D01*
X63272811Y-103884698D01*
X63583880Y-103419151D01*
X63636584Y-103154187D01*
X70954752Y-103154187D01*
X71172757Y-103681800D01*
X71576077Y-104085824D01*
X72103309Y-104304750D01*
X72674187Y-104305248D01*
X73201800Y-104087243D01*
X73605824Y-103683923D01*
X73824750Y-103156691D01*
X73825248Y-102585813D01*
X73607243Y-102058200D01*
X73203923Y-101654176D01*
X72676691Y-101435250D01*
X72105813Y-101434752D01*
X71578200Y-101652757D01*
X71174176Y-102056077D01*
X70955250Y-102583309D01*
X70954752Y-103154187D01*
X63636584Y-103154187D01*
X63693113Y-102870000D01*
X63583880Y-102320849D01*
X63272811Y-101855302D01*
X62807264Y-101544233D01*
X62258113Y-101435000D01*
X62201887Y-101435000D01*
X61652736Y-101544233D01*
X61187189Y-101855302D01*
X60876120Y-102320849D01*
X60766887Y-102870000D01*
X59305000Y-102870000D01*
X59305000Y-97790000D01*
X60766887Y-97790000D01*
X60876120Y-98339151D01*
X61187189Y-98804698D01*
X61652736Y-99115767D01*
X62201887Y-99225000D01*
X62258113Y-99225000D01*
X62807264Y-99115767D01*
X63272811Y-98804698D01*
X63583880Y-98339151D01*
X63636584Y-98074187D01*
X70954752Y-98074187D01*
X71172757Y-98601800D01*
X71576077Y-99005824D01*
X72103309Y-99224750D01*
X72674187Y-99225248D01*
X73201800Y-99007243D01*
X73605824Y-98603923D01*
X73824750Y-98076691D01*
X73825248Y-97505813D01*
X73607243Y-96978200D01*
X73203923Y-96574176D01*
X72676691Y-96355250D01*
X72105813Y-96354752D01*
X71578200Y-96572757D01*
X71174176Y-96976077D01*
X70955250Y-97503309D01*
X70954752Y-98074187D01*
X63636584Y-98074187D01*
X63693113Y-97790000D01*
X63583880Y-97240849D01*
X63272811Y-96775302D01*
X62807264Y-96464233D01*
X62258113Y-96355000D01*
X62201887Y-96355000D01*
X61652736Y-96464233D01*
X61187189Y-96775302D01*
X60876120Y-97240849D01*
X60766887Y-97790000D01*
X59305000Y-97790000D01*
X59305000Y-92710000D01*
X60766887Y-92710000D01*
X60876120Y-93259151D01*
X61187189Y-93724698D01*
X61652736Y-94035767D01*
X62201887Y-94145000D01*
X62258113Y-94145000D01*
X62807264Y-94035767D01*
X63272811Y-93724698D01*
X63583880Y-93259151D01*
X63636584Y-92994187D01*
X70954752Y-92994187D01*
X71172757Y-93521800D01*
X71576077Y-93925824D01*
X72103309Y-94144750D01*
X72674187Y-94145248D01*
X73201800Y-93927243D01*
X73605824Y-93523923D01*
X73824750Y-92996691D01*
X73825248Y-92425813D01*
X73607243Y-91898200D01*
X73203923Y-91494176D01*
X72676691Y-91275250D01*
X72105813Y-91274752D01*
X71578200Y-91492757D01*
X71174176Y-91896077D01*
X70955250Y-92423309D01*
X70954752Y-92994187D01*
X63636584Y-92994187D01*
X63693113Y-92710000D01*
X63583880Y-92160849D01*
X63272811Y-91695302D01*
X62807264Y-91384233D01*
X62258113Y-91275000D01*
X62201887Y-91275000D01*
X61652736Y-91384233D01*
X61187189Y-91695302D01*
X60876120Y-92160849D01*
X60766887Y-92710000D01*
X59305000Y-92710000D01*
X59305000Y-87630000D01*
X60766887Y-87630000D01*
X60876120Y-88179151D01*
X61187189Y-88644698D01*
X61652736Y-88955767D01*
X62201887Y-89065000D01*
X62258113Y-89065000D01*
X62807264Y-88955767D01*
X63272811Y-88644698D01*
X63583880Y-88179151D01*
X63636584Y-87914187D01*
X70954752Y-87914187D01*
X71172757Y-88441800D01*
X71576077Y-88845824D01*
X72103309Y-89064750D01*
X72674187Y-89065248D01*
X73201800Y-88847243D01*
X73605824Y-88443923D01*
X73824750Y-87916691D01*
X73825000Y-87630000D01*
X76006887Y-87630000D01*
X76116120Y-88179151D01*
X76427189Y-88644698D01*
X76809275Y-88900000D01*
X76427189Y-89155302D01*
X76116120Y-89620849D01*
X76006887Y-90170000D01*
X76116120Y-90719151D01*
X76427189Y-91184698D01*
X76809275Y-91440000D01*
X76427189Y-91695302D01*
X76116120Y-92160849D01*
X76006887Y-92710000D01*
X76116120Y-93259151D01*
X76427189Y-93724698D01*
X76809275Y-93980000D01*
X76427189Y-94235302D01*
X76116120Y-94700849D01*
X76006887Y-95250000D01*
X76116120Y-95799151D01*
X76427189Y-96264698D01*
X76809275Y-96520000D01*
X76427189Y-96775302D01*
X76116120Y-97240849D01*
X76006887Y-97790000D01*
X76116120Y-98339151D01*
X76427189Y-98804698D01*
X76809275Y-99060000D01*
X76427189Y-99315302D01*
X76116120Y-99780849D01*
X76006887Y-100330000D01*
X76116120Y-100879151D01*
X76427189Y-101344698D01*
X76809275Y-101600000D01*
X76427189Y-101855302D01*
X76116120Y-102320849D01*
X76006887Y-102870000D01*
X76116120Y-103419151D01*
X76427189Y-103884698D01*
X76809275Y-104140000D01*
X76427189Y-104395302D01*
X76116120Y-104860849D01*
X76006887Y-105410000D01*
X76116120Y-105959151D01*
X76427189Y-106424698D01*
X76892736Y-106735767D01*
X77441887Y-106845000D01*
X77498113Y-106845000D01*
X78047264Y-106735767D01*
X78512811Y-106424698D01*
X78823880Y-105959151D01*
X78863684Y-105759039D01*
X83698096Y-105759039D01*
X83858959Y-106147423D01*
X84234866Y-106562389D01*
X84740959Y-106801914D01*
X84963000Y-106680629D01*
X84963000Y-105537000D01*
X85217000Y-105537000D01*
X85217000Y-106680629D01*
X85439041Y-106801914D01*
X85945134Y-106562389D01*
X86321041Y-106147423D01*
X86481904Y-105759039D01*
X86359915Y-105537000D01*
X85217000Y-105537000D01*
X84963000Y-105537000D01*
X83820085Y-105537000D01*
X83698096Y-105759039D01*
X78863684Y-105759039D01*
X78933113Y-105410000D01*
X92516887Y-105410000D01*
X92626120Y-105959151D01*
X92937189Y-106424698D01*
X93402736Y-106735767D01*
X93951887Y-106845000D01*
X94008113Y-106845000D01*
X94557264Y-106735767D01*
X95022811Y-106424698D01*
X95333880Y-105959151D01*
X95443113Y-105410000D01*
X95333880Y-104860849D01*
X95022811Y-104395302D01*
X94618297Y-104125014D01*
X94835134Y-104022389D01*
X95211041Y-103607423D01*
X95371904Y-103219039D01*
X95249915Y-102997000D01*
X94107000Y-102997000D01*
X94107000Y-103017000D01*
X93853000Y-103017000D01*
X93853000Y-102997000D01*
X92710085Y-102997000D01*
X92588096Y-103219039D01*
X92748959Y-103607423D01*
X93124866Y-104022389D01*
X93341703Y-104125014D01*
X92937189Y-104395302D01*
X92626120Y-104860849D01*
X92516887Y-105410000D01*
X78933113Y-105410000D01*
X78823880Y-104860849D01*
X78512811Y-104395302D01*
X78130725Y-104140000D01*
X78512811Y-103884698D01*
X78823880Y-103419151D01*
X78933113Y-102870000D01*
X83626887Y-102870000D01*
X83736120Y-103419151D01*
X84047189Y-103884698D01*
X84451703Y-104154986D01*
X84234866Y-104257611D01*
X83858959Y-104672577D01*
X83698096Y-105060961D01*
X83820085Y-105283000D01*
X84963000Y-105283000D01*
X84963000Y-105263000D01*
X85217000Y-105263000D01*
X85217000Y-105283000D01*
X86359915Y-105283000D01*
X86481904Y-105060961D01*
X86321041Y-104672577D01*
X85945134Y-104257611D01*
X85728297Y-104154986D01*
X86132811Y-103884698D01*
X86443880Y-103419151D01*
X86553113Y-102870000D01*
X86443880Y-102320849D01*
X86132811Y-101855302D01*
X85728297Y-101585014D01*
X85945134Y-101482389D01*
X86321041Y-101067423D01*
X86481904Y-100679039D01*
X86359915Y-100457000D01*
X85217000Y-100457000D01*
X85217000Y-100477000D01*
X84963000Y-100477000D01*
X84963000Y-100457000D01*
X83820085Y-100457000D01*
X83698096Y-100679039D01*
X83858959Y-101067423D01*
X84234866Y-101482389D01*
X84451703Y-101585014D01*
X84047189Y-101855302D01*
X83736120Y-102320849D01*
X83626887Y-102870000D01*
X78933113Y-102870000D01*
X78823880Y-102320849D01*
X78512811Y-101855302D01*
X78130725Y-101600000D01*
X78512811Y-101344698D01*
X78823880Y-100879151D01*
X78933113Y-100330000D01*
X92516887Y-100330000D01*
X92626120Y-100879151D01*
X92937189Y-101344698D01*
X93341703Y-101614986D01*
X93124866Y-101717611D01*
X92748959Y-102132577D01*
X92588096Y-102520961D01*
X92710085Y-102743000D01*
X93853000Y-102743000D01*
X93853000Y-102723000D01*
X94107000Y-102723000D01*
X94107000Y-102743000D01*
X95249915Y-102743000D01*
X95371904Y-102520961D01*
X95211041Y-102132577D01*
X94835134Y-101717611D01*
X94618297Y-101614986D01*
X95022811Y-101344698D01*
X95333880Y-100879151D01*
X95443113Y-100330000D01*
X95333880Y-99780849D01*
X95022811Y-99315302D01*
X94618297Y-99045014D01*
X94835134Y-98942389D01*
X95211041Y-98527423D01*
X95371904Y-98139039D01*
X95249915Y-97917000D01*
X94107000Y-97917000D01*
X94107000Y-97937000D01*
X93853000Y-97937000D01*
X93853000Y-97917000D01*
X92710085Y-97917000D01*
X92588096Y-98139039D01*
X92748959Y-98527423D01*
X93124866Y-98942389D01*
X93341703Y-99045014D01*
X92937189Y-99315302D01*
X92626120Y-99780849D01*
X92516887Y-100330000D01*
X78933113Y-100330000D01*
X78823880Y-99780849D01*
X78512811Y-99315302D01*
X78130725Y-99060000D01*
X78512811Y-98804698D01*
X78823880Y-98339151D01*
X78933113Y-97790000D01*
X83626887Y-97790000D01*
X83736120Y-98339151D01*
X84047189Y-98804698D01*
X84451703Y-99074986D01*
X84234866Y-99177611D01*
X83858959Y-99592577D01*
X83698096Y-99980961D01*
X83820085Y-100203000D01*
X84963000Y-100203000D01*
X84963000Y-100183000D01*
X85217000Y-100183000D01*
X85217000Y-100203000D01*
X86359915Y-100203000D01*
X86481904Y-99980961D01*
X86321041Y-99592577D01*
X85945134Y-99177611D01*
X85728297Y-99074986D01*
X86132811Y-98804698D01*
X86443880Y-98339151D01*
X86553113Y-97790000D01*
X86443880Y-97240849D01*
X86132811Y-96775302D01*
X85728297Y-96505014D01*
X85945134Y-96402389D01*
X86321041Y-95987423D01*
X86481904Y-95599039D01*
X86359915Y-95377000D01*
X85217000Y-95377000D01*
X85217000Y-95397000D01*
X84963000Y-95397000D01*
X84963000Y-95377000D01*
X83820085Y-95377000D01*
X83698096Y-95599039D01*
X83858959Y-95987423D01*
X84234866Y-96402389D01*
X84451703Y-96505014D01*
X84047189Y-96775302D01*
X83736120Y-97240849D01*
X83626887Y-97790000D01*
X78933113Y-97790000D01*
X78823880Y-97240849D01*
X78512811Y-96775302D01*
X78130725Y-96520000D01*
X78512811Y-96264698D01*
X78823880Y-95799151D01*
X78933113Y-95250000D01*
X92516887Y-95250000D01*
X92626120Y-95799151D01*
X92937189Y-96264698D01*
X93341703Y-96534986D01*
X93124866Y-96637611D01*
X92748959Y-97052577D01*
X92588096Y-97440961D01*
X92710085Y-97663000D01*
X93853000Y-97663000D01*
X93853000Y-97643000D01*
X94107000Y-97643000D01*
X94107000Y-97663000D01*
X95249915Y-97663000D01*
X95371904Y-97440961D01*
X95211041Y-97052577D01*
X94835134Y-96637611D01*
X94618297Y-96534986D01*
X95022811Y-96264698D01*
X95333880Y-95799151D01*
X95443113Y-95250000D01*
X95333880Y-94700849D01*
X95022811Y-94235302D01*
X94618297Y-93965014D01*
X94835134Y-93862389D01*
X95211041Y-93447423D01*
X95371904Y-93059039D01*
X95249915Y-92837000D01*
X94107000Y-92837000D01*
X94107000Y-92857000D01*
X93853000Y-92857000D01*
X93853000Y-92837000D01*
X92710085Y-92837000D01*
X92588096Y-93059039D01*
X92748959Y-93447423D01*
X93124866Y-93862389D01*
X93341703Y-93965014D01*
X92937189Y-94235302D01*
X92626120Y-94700849D01*
X92516887Y-95250000D01*
X78933113Y-95250000D01*
X78823880Y-94700849D01*
X78512811Y-94235302D01*
X78130725Y-93980000D01*
X78512811Y-93724698D01*
X78823880Y-93259151D01*
X78933113Y-92710000D01*
X83626887Y-92710000D01*
X83736120Y-93259151D01*
X84047189Y-93724698D01*
X84451703Y-93994986D01*
X84234866Y-94097611D01*
X83858959Y-94512577D01*
X83698096Y-94900961D01*
X83820085Y-95123000D01*
X84963000Y-95123000D01*
X84963000Y-95103000D01*
X85217000Y-95103000D01*
X85217000Y-95123000D01*
X86359915Y-95123000D01*
X86481904Y-94900961D01*
X86321041Y-94512577D01*
X85945134Y-94097611D01*
X85728297Y-93994986D01*
X86132811Y-93724698D01*
X86443880Y-93259151D01*
X86553113Y-92710000D01*
X86443880Y-92160849D01*
X86132811Y-91695302D01*
X85728297Y-91425014D01*
X85945134Y-91322389D01*
X86321041Y-90907423D01*
X86481904Y-90519039D01*
X86359915Y-90297000D01*
X85217000Y-90297000D01*
X85217000Y-90317000D01*
X84963000Y-90317000D01*
X84963000Y-90297000D01*
X83820085Y-90297000D01*
X83698096Y-90519039D01*
X83858959Y-90907423D01*
X84234866Y-91322389D01*
X84451703Y-91425014D01*
X84047189Y-91695302D01*
X83736120Y-92160849D01*
X83626887Y-92710000D01*
X78933113Y-92710000D01*
X78823880Y-92160849D01*
X78512811Y-91695302D01*
X78130725Y-91440000D01*
X78512811Y-91184698D01*
X78823880Y-90719151D01*
X78933113Y-90170000D01*
X92516887Y-90170000D01*
X92626120Y-90719151D01*
X92937189Y-91184698D01*
X93341703Y-91454986D01*
X93124866Y-91557611D01*
X92748959Y-91972577D01*
X92588096Y-92360961D01*
X92710085Y-92583000D01*
X93853000Y-92583000D01*
X93853000Y-92563000D01*
X94107000Y-92563000D01*
X94107000Y-92583000D01*
X95249915Y-92583000D01*
X95371904Y-92360961D01*
X95211041Y-91972577D01*
X94835134Y-91557611D01*
X94618297Y-91454986D01*
X95022811Y-91184698D01*
X95333880Y-90719151D01*
X95443113Y-90170000D01*
X95333880Y-89620849D01*
X95022811Y-89155302D01*
X94618297Y-88885014D01*
X94835134Y-88782389D01*
X95211041Y-88367423D01*
X95371904Y-87979039D01*
X95249915Y-87757000D01*
X94107000Y-87757000D01*
X94107000Y-87777000D01*
X93853000Y-87777000D01*
X93853000Y-87757000D01*
X92710085Y-87757000D01*
X92588096Y-87979039D01*
X92748959Y-88367423D01*
X93124866Y-88782389D01*
X93341703Y-88885014D01*
X92937189Y-89155302D01*
X92626120Y-89620849D01*
X92516887Y-90170000D01*
X78933113Y-90170000D01*
X78823880Y-89620849D01*
X78512811Y-89155302D01*
X78130725Y-88900000D01*
X78512811Y-88644698D01*
X78823880Y-88179151D01*
X78933113Y-87630000D01*
X83626887Y-87630000D01*
X83736120Y-88179151D01*
X84047189Y-88644698D01*
X84451703Y-88914986D01*
X84234866Y-89017611D01*
X83858959Y-89432577D01*
X83698096Y-89820961D01*
X83820085Y-90043000D01*
X84963000Y-90043000D01*
X84963000Y-90023000D01*
X85217000Y-90023000D01*
X85217000Y-90043000D01*
X86359915Y-90043000D01*
X86481904Y-89820961D01*
X86321041Y-89432577D01*
X85945134Y-89017611D01*
X85728297Y-88914986D01*
X86132811Y-88644698D01*
X86443880Y-88179151D01*
X86553113Y-87630000D01*
X100136887Y-87630000D01*
X100246120Y-88179151D01*
X100557189Y-88644698D01*
X100939275Y-88900000D01*
X100557189Y-89155302D01*
X100246120Y-89620849D01*
X100136887Y-90170000D01*
X100246120Y-90719151D01*
X100557189Y-91184698D01*
X100939275Y-91440000D01*
X100557189Y-91695302D01*
X100246120Y-92160849D01*
X100136887Y-92710000D01*
X100246120Y-93259151D01*
X100557189Y-93724698D01*
X100939275Y-93980000D01*
X100557189Y-94235302D01*
X100246120Y-94700849D01*
X100136887Y-95250000D01*
X100246120Y-95799151D01*
X100557189Y-96264698D01*
X100939275Y-96520000D01*
X100557189Y-96775302D01*
X100246120Y-97240849D01*
X100136887Y-97790000D01*
X100246120Y-98339151D01*
X100557189Y-98804698D01*
X100939275Y-99060000D01*
X100557189Y-99315302D01*
X100246120Y-99780849D01*
X100136887Y-100330000D01*
X100246120Y-100879151D01*
X100557189Y-101344698D01*
X100939275Y-101600000D01*
X100557189Y-101855302D01*
X100246120Y-102320849D01*
X100136887Y-102870000D01*
X100246120Y-103419151D01*
X100557189Y-103884698D01*
X100939275Y-104140000D01*
X100557189Y-104395302D01*
X100246120Y-104860849D01*
X100136887Y-105410000D01*
X100246120Y-105959151D01*
X100557189Y-106424698D01*
X101022736Y-106735767D01*
X101571887Y-106845000D01*
X101628113Y-106845000D01*
X102177264Y-106735767D01*
X102642811Y-106424698D01*
X102953880Y-105959151D01*
X103006584Y-105694187D01*
X105244752Y-105694187D01*
X105462757Y-106221800D01*
X105866077Y-106625824D01*
X106393309Y-106844750D01*
X106964187Y-106845248D01*
X107491800Y-106627243D01*
X107895824Y-106223923D01*
X108114750Y-105696691D01*
X108115000Y-105410000D01*
X115376887Y-105410000D01*
X115486120Y-105959151D01*
X115797189Y-106424698D01*
X116262736Y-106735767D01*
X116811887Y-106845000D01*
X116868113Y-106845000D01*
X117417264Y-106735767D01*
X117882811Y-106424698D01*
X118193880Y-105959151D01*
X118303113Y-105410000D01*
X118193880Y-104860849D01*
X117959450Y-104510000D01*
X121642560Y-104510000D01*
X121642560Y-106310000D01*
X121686838Y-106545317D01*
X121825910Y-106761441D01*
X122038110Y-106906431D01*
X122290000Y-106957440D01*
X124090000Y-106957440D01*
X124325317Y-106913162D01*
X124541441Y-106774090D01*
X124686431Y-106561890D01*
X124690567Y-106541466D01*
X124859357Y-106710551D01*
X125423330Y-106944733D01*
X126033991Y-106945265D01*
X126598371Y-106712068D01*
X127030551Y-106280643D01*
X127264733Y-105716670D01*
X127265265Y-105106009D01*
X127032068Y-104541629D01*
X126901179Y-104410510D01*
X132973070Y-104410510D01*
X132973070Y-106409490D01*
X133017348Y-106644807D01*
X133156420Y-106860931D01*
X133368620Y-107005921D01*
X133620510Y-107056930D01*
X135619490Y-107056930D01*
X135854807Y-107012652D01*
X136070931Y-106873580D01*
X136215921Y-106661380D01*
X136266930Y-106409490D01*
X136266930Y-104410510D01*
X136222652Y-104175193D01*
X136083580Y-103959069D01*
X135917527Y-103845610D01*
X136130072Y-103527514D01*
X136254490Y-102902022D01*
X136254490Y-102837978D01*
X136130072Y-102212486D01*
X135775759Y-101682219D01*
X135652710Y-101600000D01*
X135775759Y-101517781D01*
X136130072Y-100987514D01*
X136254490Y-100362022D01*
X136254490Y-100297978D01*
X136130072Y-99672486D01*
X135775759Y-99142219D01*
X135652710Y-99060000D01*
X135775759Y-98977781D01*
X136130072Y-98447514D01*
X136254490Y-97822022D01*
X136254490Y-97757978D01*
X136130072Y-97132486D01*
X135775759Y-96602219D01*
X135652710Y-96520000D01*
X135775759Y-96437781D01*
X136130072Y-95907514D01*
X136254490Y-95282022D01*
X136254490Y-95217978D01*
X136130072Y-94592486D01*
X135775759Y-94062219D01*
X135652710Y-93980000D01*
X135775759Y-93897781D01*
X136130072Y-93367514D01*
X136254490Y-92742022D01*
X136254490Y-92677978D01*
X136130072Y-92052486D01*
X135775759Y-91522219D01*
X135652710Y-91440000D01*
X135775759Y-91357781D01*
X136130072Y-90827514D01*
X136254490Y-90202022D01*
X136254490Y-90137978D01*
X136130072Y-89512486D01*
X135775759Y-88982219D01*
X135652710Y-88900000D01*
X135775759Y-88817781D01*
X136130072Y-88287514D01*
X136254490Y-87662022D01*
X136254490Y-87597978D01*
X136130072Y-86972486D01*
X135775759Y-86442219D01*
X135245492Y-86087906D01*
X134620000Y-85963488D01*
X133994508Y-86087906D01*
X133464241Y-86442219D01*
X133109928Y-86972486D01*
X132985510Y-87597978D01*
X132985510Y-87662022D01*
X133109928Y-88287514D01*
X133464241Y-88817781D01*
X133587290Y-88900000D01*
X133464241Y-88982219D01*
X133109928Y-89512486D01*
X132985510Y-90137978D01*
X132985510Y-90202022D01*
X133109928Y-90827514D01*
X133464241Y-91357781D01*
X133587290Y-91440000D01*
X133464241Y-91522219D01*
X133109928Y-92052486D01*
X132985510Y-92677978D01*
X132985510Y-92742022D01*
X133109928Y-93367514D01*
X133464241Y-93897781D01*
X133587290Y-93980000D01*
X133464241Y-94062219D01*
X133109928Y-94592486D01*
X132985510Y-95217978D01*
X132985510Y-95282022D01*
X133109928Y-95907514D01*
X133464241Y-96437781D01*
X133587290Y-96520000D01*
X133464241Y-96602219D01*
X133109928Y-97132486D01*
X132985510Y-97757978D01*
X132985510Y-97822022D01*
X133109928Y-98447514D01*
X133464241Y-98977781D01*
X133587290Y-99060000D01*
X133464241Y-99142219D01*
X133109928Y-99672486D01*
X132985510Y-100297978D01*
X132985510Y-100362022D01*
X133109928Y-100987514D01*
X133464241Y-101517781D01*
X133587290Y-101600000D01*
X133464241Y-101682219D01*
X133109928Y-102212486D01*
X132985510Y-102837978D01*
X132985510Y-102902022D01*
X133109928Y-103527514D01*
X133323453Y-103847077D01*
X133169069Y-103946420D01*
X133024079Y-104158620D01*
X132973070Y-104410510D01*
X126901179Y-104410510D01*
X126600643Y-104109449D01*
X126036670Y-103875267D01*
X125426009Y-103874735D01*
X124861629Y-104107932D01*
X124693387Y-104275880D01*
X124693162Y-104274683D01*
X124554090Y-104058559D01*
X124341890Y-103913569D01*
X124090000Y-103862560D01*
X122290000Y-103862560D01*
X122054683Y-103906838D01*
X121838559Y-104045910D01*
X121693569Y-104258110D01*
X121642560Y-104510000D01*
X117959450Y-104510000D01*
X117882811Y-104395302D01*
X117417264Y-104084233D01*
X116868113Y-103975000D01*
X116811887Y-103975000D01*
X116262736Y-104084233D01*
X115797189Y-104395302D01*
X115486120Y-104860849D01*
X115376887Y-105410000D01*
X108115000Y-105410000D01*
X108115248Y-105125813D01*
X107897243Y-104598200D01*
X107493923Y-104194176D01*
X106966691Y-103975250D01*
X106395813Y-103974752D01*
X105868200Y-104192757D01*
X105464176Y-104596077D01*
X105245250Y-105123309D01*
X105244752Y-105694187D01*
X103006584Y-105694187D01*
X103063113Y-105410000D01*
X102953880Y-104860849D01*
X102642811Y-104395302D01*
X102260725Y-104140000D01*
X102642811Y-103884698D01*
X102953880Y-103419151D01*
X103063113Y-102870000D01*
X102953880Y-102320849D01*
X102642811Y-101855302D01*
X102260725Y-101600000D01*
X102642811Y-101344698D01*
X102953880Y-100879151D01*
X103006584Y-100614187D01*
X105244752Y-100614187D01*
X105462757Y-101141800D01*
X105866077Y-101545824D01*
X106393309Y-101764750D01*
X106964187Y-101765248D01*
X107491800Y-101547243D01*
X107895824Y-101143923D01*
X108114750Y-100616691D01*
X108115000Y-100330000D01*
X115376887Y-100330000D01*
X115486120Y-100879151D01*
X115797189Y-101344698D01*
X116262736Y-101655767D01*
X116811887Y-101765000D01*
X116868113Y-101765000D01*
X117417264Y-101655767D01*
X117882811Y-101344698D01*
X118193880Y-100879151D01*
X118303113Y-100330000D01*
X118193880Y-99780849D01*
X117959450Y-99430000D01*
X121642560Y-99430000D01*
X121642560Y-101230000D01*
X121686838Y-101465317D01*
X121825910Y-101681441D01*
X122038110Y-101826431D01*
X122290000Y-101877440D01*
X124090000Y-101877440D01*
X124325317Y-101833162D01*
X124541441Y-101694090D01*
X124686431Y-101481890D01*
X124690567Y-101461466D01*
X124859357Y-101630551D01*
X125423330Y-101864733D01*
X126033991Y-101865265D01*
X126598371Y-101632068D01*
X127030551Y-101200643D01*
X127264733Y-100636670D01*
X127265265Y-100026009D01*
X127032068Y-99461629D01*
X126600643Y-99029449D01*
X126036670Y-98795267D01*
X125426009Y-98794735D01*
X124861629Y-99027932D01*
X124693387Y-99195880D01*
X124693162Y-99194683D01*
X124554090Y-98978559D01*
X124341890Y-98833569D01*
X124090000Y-98782560D01*
X122290000Y-98782560D01*
X122054683Y-98826838D01*
X121838559Y-98965910D01*
X121693569Y-99178110D01*
X121642560Y-99430000D01*
X117959450Y-99430000D01*
X117882811Y-99315302D01*
X117417264Y-99004233D01*
X116868113Y-98895000D01*
X116811887Y-98895000D01*
X116262736Y-99004233D01*
X115797189Y-99315302D01*
X115486120Y-99780849D01*
X115376887Y-100330000D01*
X108115000Y-100330000D01*
X108115248Y-100045813D01*
X107897243Y-99518200D01*
X107493923Y-99114176D01*
X106966691Y-98895250D01*
X106395813Y-98894752D01*
X105868200Y-99112757D01*
X105464176Y-99516077D01*
X105245250Y-100043309D01*
X105244752Y-100614187D01*
X103006584Y-100614187D01*
X103063113Y-100330000D01*
X102953880Y-99780849D01*
X102642811Y-99315302D01*
X102260725Y-99060000D01*
X102642811Y-98804698D01*
X102953880Y-98339151D01*
X103063113Y-97790000D01*
X102953880Y-97240849D01*
X102642811Y-96775302D01*
X102260725Y-96520000D01*
X102642811Y-96264698D01*
X102953880Y-95799151D01*
X103006584Y-95534187D01*
X105244752Y-95534187D01*
X105462757Y-96061800D01*
X105866077Y-96465824D01*
X106393309Y-96684750D01*
X106964187Y-96685248D01*
X107491800Y-96467243D01*
X107895824Y-96063923D01*
X108114750Y-95536691D01*
X108115000Y-95250000D01*
X115376887Y-95250000D01*
X115486120Y-95799151D01*
X115797189Y-96264698D01*
X116262736Y-96575767D01*
X116811887Y-96685000D01*
X116868113Y-96685000D01*
X117417264Y-96575767D01*
X117882811Y-96264698D01*
X118193880Y-95799151D01*
X118303113Y-95250000D01*
X118193880Y-94700849D01*
X117959450Y-94350000D01*
X121642560Y-94350000D01*
X121642560Y-96150000D01*
X121686838Y-96385317D01*
X121825910Y-96601441D01*
X122038110Y-96746431D01*
X122290000Y-96797440D01*
X124090000Y-96797440D01*
X124325317Y-96753162D01*
X124541441Y-96614090D01*
X124686431Y-96401890D01*
X124690567Y-96381466D01*
X124859357Y-96550551D01*
X125423330Y-96784733D01*
X126033991Y-96785265D01*
X126598371Y-96552068D01*
X127030551Y-96120643D01*
X127264733Y-95556670D01*
X127265265Y-94946009D01*
X127032068Y-94381629D01*
X126600643Y-93949449D01*
X126036670Y-93715267D01*
X125426009Y-93714735D01*
X124861629Y-93947932D01*
X124693387Y-94115880D01*
X124693162Y-94114683D01*
X124554090Y-93898559D01*
X124341890Y-93753569D01*
X124090000Y-93702560D01*
X122290000Y-93702560D01*
X122054683Y-93746838D01*
X121838559Y-93885910D01*
X121693569Y-94098110D01*
X121642560Y-94350000D01*
X117959450Y-94350000D01*
X117882811Y-94235302D01*
X117417264Y-93924233D01*
X116868113Y-93815000D01*
X116811887Y-93815000D01*
X116262736Y-93924233D01*
X115797189Y-94235302D01*
X115486120Y-94700849D01*
X115376887Y-95250000D01*
X108115000Y-95250000D01*
X108115248Y-94965813D01*
X107897243Y-94438200D01*
X107493923Y-94034176D01*
X106966691Y-93815250D01*
X106395813Y-93814752D01*
X105868200Y-94032757D01*
X105464176Y-94436077D01*
X105245250Y-94963309D01*
X105244752Y-95534187D01*
X103006584Y-95534187D01*
X103063113Y-95250000D01*
X102953880Y-94700849D01*
X102642811Y-94235302D01*
X102260725Y-93980000D01*
X102642811Y-93724698D01*
X102953880Y-93259151D01*
X103063113Y-92710000D01*
X102953880Y-92160849D01*
X102642811Y-91695302D01*
X102260725Y-91440000D01*
X102642811Y-91184698D01*
X102953880Y-90719151D01*
X103006584Y-90454187D01*
X105244752Y-90454187D01*
X105462757Y-90981800D01*
X105866077Y-91385824D01*
X106393309Y-91604750D01*
X106964187Y-91605248D01*
X107491800Y-91387243D01*
X107895824Y-90983923D01*
X108114750Y-90456691D01*
X108115000Y-90170000D01*
X115376887Y-90170000D01*
X115486120Y-90719151D01*
X115797189Y-91184698D01*
X116262736Y-91495767D01*
X116811887Y-91605000D01*
X116868113Y-91605000D01*
X117417264Y-91495767D01*
X117882811Y-91184698D01*
X118193880Y-90719151D01*
X118303113Y-90170000D01*
X118193880Y-89620849D01*
X117959450Y-89270000D01*
X121642560Y-89270000D01*
X121642560Y-91070000D01*
X121686838Y-91305317D01*
X121825910Y-91521441D01*
X122038110Y-91666431D01*
X122290000Y-91717440D01*
X124090000Y-91717440D01*
X124325317Y-91673162D01*
X124541441Y-91534090D01*
X124686431Y-91321890D01*
X124690567Y-91301466D01*
X124859357Y-91470551D01*
X125423330Y-91704733D01*
X126033991Y-91705265D01*
X126598371Y-91472068D01*
X127030551Y-91040643D01*
X127264733Y-90476670D01*
X127265265Y-89866009D01*
X127032068Y-89301629D01*
X126600643Y-88869449D01*
X126036670Y-88635267D01*
X125426009Y-88634735D01*
X124861629Y-88867932D01*
X124693387Y-89035880D01*
X124693162Y-89034683D01*
X124554090Y-88818559D01*
X124341890Y-88673569D01*
X124090000Y-88622560D01*
X122290000Y-88622560D01*
X122054683Y-88666838D01*
X121838559Y-88805910D01*
X121693569Y-89018110D01*
X121642560Y-89270000D01*
X117959450Y-89270000D01*
X117882811Y-89155302D01*
X117417264Y-88844233D01*
X116868113Y-88735000D01*
X116811887Y-88735000D01*
X116262736Y-88844233D01*
X115797189Y-89155302D01*
X115486120Y-89620849D01*
X115376887Y-90170000D01*
X108115000Y-90170000D01*
X108115248Y-89885813D01*
X107897243Y-89358200D01*
X107493923Y-88954176D01*
X106966691Y-88735250D01*
X106395813Y-88734752D01*
X105868200Y-88952757D01*
X105464176Y-89356077D01*
X105245250Y-89883309D01*
X105244752Y-90454187D01*
X103006584Y-90454187D01*
X103063113Y-90170000D01*
X102953880Y-89620849D01*
X102642811Y-89155302D01*
X102260725Y-88900000D01*
X102642811Y-88644698D01*
X102953880Y-88179151D01*
X103063113Y-87630000D01*
X102953880Y-87080849D01*
X102642811Y-86615302D01*
X102177264Y-86304233D01*
X101628113Y-86195000D01*
X101571887Y-86195000D01*
X101022736Y-86304233D01*
X100557189Y-86615302D01*
X100246120Y-87080849D01*
X100136887Y-87630000D01*
X86553113Y-87630000D01*
X86483685Y-87280961D01*
X92588096Y-87280961D01*
X92710085Y-87503000D01*
X93853000Y-87503000D01*
X93853000Y-86359371D01*
X94107000Y-86359371D01*
X94107000Y-87503000D01*
X95249915Y-87503000D01*
X95371904Y-87280961D01*
X95211041Y-86892577D01*
X94835134Y-86477611D01*
X94329041Y-86238086D01*
X94107000Y-86359371D01*
X93853000Y-86359371D01*
X93630959Y-86238086D01*
X93124866Y-86477611D01*
X92748959Y-86892577D01*
X92588096Y-87280961D01*
X86483685Y-87280961D01*
X86443880Y-87080849D01*
X86132811Y-86615302D01*
X85667264Y-86304233D01*
X85118113Y-86195000D01*
X85061887Y-86195000D01*
X84512736Y-86304233D01*
X84047189Y-86615302D01*
X83736120Y-87080849D01*
X83626887Y-87630000D01*
X78933113Y-87630000D01*
X78823880Y-87080849D01*
X78512811Y-86615302D01*
X78047264Y-86304233D01*
X77498113Y-86195000D01*
X77441887Y-86195000D01*
X76892736Y-86304233D01*
X76427189Y-86615302D01*
X76116120Y-87080849D01*
X76006887Y-87630000D01*
X73825000Y-87630000D01*
X73825248Y-87345813D01*
X73607243Y-86818200D01*
X73203923Y-86414176D01*
X72676691Y-86195250D01*
X72105813Y-86194752D01*
X71578200Y-86412757D01*
X71174176Y-86816077D01*
X70955250Y-87343309D01*
X70954752Y-87914187D01*
X63636584Y-87914187D01*
X63693113Y-87630000D01*
X63583880Y-87080849D01*
X63272811Y-86615302D01*
X62807264Y-86304233D01*
X62258113Y-86195000D01*
X62201887Y-86195000D01*
X61652736Y-86304233D01*
X61187189Y-86615302D01*
X60876120Y-87080849D01*
X60766887Y-87630000D01*
X59305000Y-87630000D01*
X59305000Y-80359041D01*
X64648086Y-80359041D01*
X64887611Y-80865134D01*
X65302577Y-81241041D01*
X65690961Y-81401904D01*
X65913000Y-81279915D01*
X65913000Y-80137000D01*
X66167000Y-80137000D01*
X66167000Y-81279915D01*
X66389039Y-81401904D01*
X66777423Y-81241041D01*
X67192389Y-80865134D01*
X67310000Y-80616633D01*
X67427611Y-80865134D01*
X67842577Y-81241041D01*
X68230961Y-81401904D01*
X68453000Y-81279915D01*
X68453000Y-80137000D01*
X68707000Y-80137000D01*
X68707000Y-81279915D01*
X68929039Y-81401904D01*
X69317423Y-81241041D01*
X69732389Y-80865134D01*
X69850000Y-80616633D01*
X69967611Y-80865134D01*
X70382577Y-81241041D01*
X70770961Y-81401904D01*
X70993000Y-81279915D01*
X70993000Y-80137000D01*
X68707000Y-80137000D01*
X68453000Y-80137000D01*
X66167000Y-80137000D01*
X65913000Y-80137000D01*
X64769371Y-80137000D01*
X64648086Y-80359041D01*
X59305000Y-80359041D01*
X59305000Y-79660959D01*
X64648086Y-79660959D01*
X64769371Y-79883000D01*
X65913000Y-79883000D01*
X65913000Y-78740085D01*
X66167000Y-78740085D01*
X66167000Y-79883000D01*
X68453000Y-79883000D01*
X68453000Y-78740085D01*
X68707000Y-78740085D01*
X68707000Y-79883000D01*
X70993000Y-79883000D01*
X70993000Y-78740085D01*
X71247000Y-78740085D01*
X71247000Y-79883000D01*
X71267000Y-79883000D01*
X71267000Y-80137000D01*
X71247000Y-80137000D01*
X71247000Y-81279915D01*
X71469039Y-81401904D01*
X71857423Y-81241041D01*
X72272389Y-80865134D01*
X72375014Y-80648297D01*
X72645302Y-81052811D01*
X73110849Y-81363880D01*
X73660000Y-81473113D01*
X74209151Y-81363880D01*
X74674698Y-81052811D01*
X74930000Y-80670725D01*
X75185302Y-81052811D01*
X75650849Y-81363880D01*
X76200000Y-81473113D01*
X76749151Y-81363880D01*
X77214698Y-81052811D01*
X77470000Y-80670725D01*
X77725302Y-81052811D01*
X78190849Y-81363880D01*
X78740000Y-81473113D01*
X79289151Y-81363880D01*
X79754698Y-81052811D01*
X80010000Y-80670725D01*
X80265302Y-81052811D01*
X80730849Y-81363880D01*
X81280000Y-81473113D01*
X81829151Y-81363880D01*
X82294698Y-81052811D01*
X82550000Y-80670725D01*
X82805302Y-81052811D01*
X83270849Y-81363880D01*
X83820000Y-81473113D01*
X84369151Y-81363880D01*
X84834698Y-81052811D01*
X85090000Y-80670725D01*
X85345302Y-81052811D01*
X85810849Y-81363880D01*
X86360000Y-81473113D01*
X86909151Y-81363880D01*
X87374698Y-81052811D01*
X87630000Y-80670725D01*
X87885302Y-81052811D01*
X88350849Y-81363880D01*
X88900000Y-81473113D01*
X89449151Y-81363880D01*
X89914698Y-81052811D01*
X90170000Y-80670725D01*
X90425302Y-81052811D01*
X90890849Y-81363880D01*
X91440000Y-81473113D01*
X91989151Y-81363880D01*
X92454698Y-81052811D01*
X92710000Y-80670725D01*
X92965302Y-81052811D01*
X93430849Y-81363880D01*
X93980000Y-81473113D01*
X94529151Y-81363880D01*
X94994698Y-81052811D01*
X95250000Y-80670725D01*
X95505302Y-81052811D01*
X95970849Y-81363880D01*
X96520000Y-81473113D01*
X97069151Y-81363880D01*
X97534698Y-81052811D01*
X97790000Y-80670725D01*
X98045302Y-81052811D01*
X98510849Y-81363880D01*
X99060000Y-81473113D01*
X99609151Y-81363880D01*
X100074698Y-81052811D01*
X100385767Y-80587264D01*
X100495000Y-80038113D01*
X100495000Y-79981887D01*
X100385767Y-79432736D01*
X100074698Y-78967189D01*
X99609151Y-78656120D01*
X99060000Y-78546887D01*
X98510849Y-78656120D01*
X98045302Y-78967189D01*
X97790000Y-79349275D01*
X97534698Y-78967189D01*
X97069151Y-78656120D01*
X96520000Y-78546887D01*
X95970849Y-78656120D01*
X95505302Y-78967189D01*
X95250000Y-79349275D01*
X94994698Y-78967189D01*
X94529151Y-78656120D01*
X93980000Y-78546887D01*
X93430849Y-78656120D01*
X92965302Y-78967189D01*
X92710000Y-79349275D01*
X92454698Y-78967189D01*
X91989151Y-78656120D01*
X91440000Y-78546887D01*
X90890849Y-78656120D01*
X90425302Y-78967189D01*
X90170000Y-79349275D01*
X89914698Y-78967189D01*
X89449151Y-78656120D01*
X88900000Y-78546887D01*
X88350849Y-78656120D01*
X87885302Y-78967189D01*
X87630000Y-79349275D01*
X87374698Y-78967189D01*
X86909151Y-78656120D01*
X86360000Y-78546887D01*
X85810849Y-78656120D01*
X85345302Y-78967189D01*
X85090000Y-79349275D01*
X84834698Y-78967189D01*
X84369151Y-78656120D01*
X83820000Y-78546887D01*
X83270849Y-78656120D01*
X82805302Y-78967189D01*
X82550000Y-79349275D01*
X82294698Y-78967189D01*
X81829151Y-78656120D01*
X81280000Y-78546887D01*
X80730849Y-78656120D01*
X80265302Y-78967189D01*
X80010000Y-79349275D01*
X79754698Y-78967189D01*
X79289151Y-78656120D01*
X78740000Y-78546887D01*
X78190849Y-78656120D01*
X77725302Y-78967189D01*
X77470000Y-79349275D01*
X77214698Y-78967189D01*
X76749151Y-78656120D01*
X76200000Y-78546887D01*
X75650849Y-78656120D01*
X75185302Y-78967189D01*
X74930000Y-79349275D01*
X74674698Y-78967189D01*
X74209151Y-78656120D01*
X73660000Y-78546887D01*
X73110849Y-78656120D01*
X72645302Y-78967189D01*
X72375014Y-79371703D01*
X72272389Y-79154866D01*
X71857423Y-78778959D01*
X71469039Y-78618096D01*
X71247000Y-78740085D01*
X70993000Y-78740085D01*
X70770961Y-78618096D01*
X70382577Y-78778959D01*
X69967611Y-79154866D01*
X69850000Y-79403367D01*
X69732389Y-79154866D01*
X69317423Y-78778959D01*
X68929039Y-78618096D01*
X68707000Y-78740085D01*
X68453000Y-78740085D01*
X68230961Y-78618096D01*
X67842577Y-78778959D01*
X67427611Y-79154866D01*
X67310000Y-79403367D01*
X67192389Y-79154866D01*
X66777423Y-78778959D01*
X66389039Y-78618096D01*
X66167000Y-78740085D01*
X65913000Y-78740085D01*
X65690961Y-78618096D01*
X65302577Y-78778959D01*
X64887611Y-79154866D01*
X64648086Y-79660959D01*
X59305000Y-79660959D01*
X59305000Y-77836580D01*
X61326579Y-75815000D01*
X68579995Y-75815000D01*
X68580000Y-75815001D01*
X68862484Y-75758810D01*
X68918675Y-75747633D01*
X69205790Y-75555790D01*
X70943562Y-73818017D01*
X71120000Y-73853113D01*
X71669151Y-73743880D01*
X72134698Y-73432811D01*
X72390000Y-73050725D01*
X72645302Y-73432811D01*
X73110849Y-73743880D01*
X73660000Y-73853113D01*
X74209151Y-73743880D01*
X74674698Y-73432811D01*
X74944986Y-73028297D01*
X75047611Y-73245134D01*
X75462577Y-73621041D01*
X75850961Y-73781904D01*
X76073000Y-73659915D01*
X76073000Y-72517000D01*
X76053000Y-72517000D01*
X76053000Y-72263000D01*
X76073000Y-72263000D01*
X76073000Y-71120085D01*
X76327000Y-71120085D01*
X76327000Y-72263000D01*
X76347000Y-72263000D01*
X76347000Y-72517000D01*
X76327000Y-72517000D01*
X76327000Y-73659915D01*
X76549039Y-73781904D01*
X76937423Y-73621041D01*
X77352389Y-73245134D01*
X77455014Y-73028297D01*
X77725302Y-73432811D01*
X78190849Y-73743880D01*
X78740000Y-73853113D01*
X79289151Y-73743880D01*
X79754698Y-73432811D01*
X80010000Y-73050725D01*
X80265302Y-73432811D01*
X80730849Y-73743880D01*
X81280000Y-73853113D01*
X81829151Y-73743880D01*
X82294698Y-73432811D01*
X82550000Y-73050725D01*
X82805302Y-73432811D01*
X83270849Y-73743880D01*
X83820000Y-73853113D01*
X84369151Y-73743880D01*
X84834698Y-73432811D01*
X85090000Y-73050725D01*
X85345302Y-73432811D01*
X85810849Y-73743880D01*
X86360000Y-73853113D01*
X86909151Y-73743880D01*
X87374698Y-73432811D01*
X87630000Y-73050725D01*
X87885302Y-73432811D01*
X88350849Y-73743880D01*
X88900000Y-73853113D01*
X89449151Y-73743880D01*
X89914698Y-73432811D01*
X90170000Y-73050725D01*
X90425302Y-73432811D01*
X90890849Y-73743880D01*
X91440000Y-73853113D01*
X91989151Y-73743880D01*
X92454698Y-73432811D01*
X92710000Y-73050725D01*
X92965302Y-73432811D01*
X93430849Y-73743880D01*
X93980000Y-73853113D01*
X94529151Y-73743880D01*
X94994698Y-73432811D01*
X95250000Y-73050725D01*
X95505302Y-73432811D01*
X95970849Y-73743880D01*
X96520000Y-73853113D01*
X97069151Y-73743880D01*
X97534698Y-73432811D01*
X97790000Y-73050725D01*
X98045302Y-73432811D01*
X98510849Y-73743880D01*
X99060000Y-73853113D01*
X99609151Y-73743880D01*
X100074698Y-73432811D01*
X100385767Y-72967264D01*
X100495000Y-72418113D01*
X100495000Y-72361887D01*
X100385767Y-71812736D01*
X100074698Y-71347189D01*
X99609151Y-71036120D01*
X99060000Y-70926887D01*
X98510849Y-71036120D01*
X98045302Y-71347189D01*
X97790000Y-71729275D01*
X97534698Y-71347189D01*
X97069151Y-71036120D01*
X96520000Y-70926887D01*
X95970849Y-71036120D01*
X95505302Y-71347189D01*
X95250000Y-71729275D01*
X94994698Y-71347189D01*
X94529151Y-71036120D01*
X93980000Y-70926887D01*
X93430849Y-71036120D01*
X92965302Y-71347189D01*
X92710000Y-71729275D01*
X92454698Y-71347189D01*
X91989151Y-71036120D01*
X91440000Y-70926887D01*
X90890849Y-71036120D01*
X90425302Y-71347189D01*
X90170000Y-71729275D01*
X89914698Y-71347189D01*
X89449151Y-71036120D01*
X88900000Y-70926887D01*
X88350849Y-71036120D01*
X87885302Y-71347189D01*
X87630000Y-71729275D01*
X87374698Y-71347189D01*
X86909151Y-71036120D01*
X86360000Y-70926887D01*
X85810849Y-71036120D01*
X85345302Y-71347189D01*
X85090000Y-71729275D01*
X84834698Y-71347189D01*
X84369151Y-71036120D01*
X83820000Y-70926887D01*
X83270849Y-71036120D01*
X82805302Y-71347189D01*
X82550000Y-71729275D01*
X82294698Y-71347189D01*
X81829151Y-71036120D01*
X81280000Y-70926887D01*
X80730849Y-71036120D01*
X80265302Y-71347189D01*
X80010000Y-71729275D01*
X79754698Y-71347189D01*
X79289151Y-71036120D01*
X78740000Y-70926887D01*
X78190849Y-71036120D01*
X77725302Y-71347189D01*
X77455014Y-71751703D01*
X77352389Y-71534866D01*
X76937423Y-71158959D01*
X76549039Y-70998096D01*
X76327000Y-71120085D01*
X76073000Y-71120085D01*
X75850961Y-70998096D01*
X75462577Y-71158959D01*
X75047611Y-71534866D01*
X74944986Y-71751703D01*
X74674698Y-71347189D01*
X74209151Y-71036120D01*
X73660000Y-70926887D01*
X73110849Y-71036120D01*
X72645302Y-71347189D01*
X72390000Y-71729275D01*
X72134698Y-71347189D01*
X71669151Y-71036120D01*
X71120000Y-70926887D01*
X70570849Y-71036120D01*
X70105302Y-71347189D01*
X69850000Y-71729275D01*
X69594698Y-71347189D01*
X69129151Y-71036120D01*
X68580000Y-70926887D01*
X68403562Y-70961983D01*
X65395790Y-67954210D01*
X65108675Y-67762367D01*
X65052484Y-67751190D01*
X64770000Y-67694999D01*
X64769995Y-67695000D01*
X62230005Y-67695000D01*
X62230000Y-67694999D01*
X61891325Y-67762367D01*
X61604210Y-67954210D01*
X61604208Y-67954213D01*
X48904210Y-80654210D01*
X48712367Y-80941325D01*
X48712367Y-80941326D01*
X48644999Y-81280000D01*
X48645000Y-81280005D01*
X48645000Y-119520527D01*
X48515302Y-119607189D01*
X48204233Y-120072736D01*
X48095000Y-120621887D01*
X40767000Y-120621887D01*
X40767000Y-86630510D01*
X42803070Y-86630510D01*
X42803070Y-88629490D01*
X42847348Y-88864807D01*
X42986420Y-89080931D01*
X43152473Y-89194390D01*
X42939928Y-89512486D01*
X42815510Y-90137978D01*
X42815510Y-90202022D01*
X42939928Y-90827514D01*
X43294241Y-91357781D01*
X43417290Y-91440000D01*
X43294241Y-91522219D01*
X42939928Y-92052486D01*
X42815510Y-92677978D01*
X42815510Y-92742022D01*
X42939928Y-93367514D01*
X43294241Y-93897781D01*
X43417290Y-93980000D01*
X43294241Y-94062219D01*
X42939928Y-94592486D01*
X42815510Y-95217978D01*
X42815510Y-95282022D01*
X42939928Y-95907514D01*
X43294241Y-96437781D01*
X43417290Y-96520000D01*
X43294241Y-96602219D01*
X42939928Y-97132486D01*
X42815510Y-97757978D01*
X42815510Y-97822022D01*
X42939928Y-98447514D01*
X43294241Y-98977781D01*
X43417290Y-99060000D01*
X43294241Y-99142219D01*
X42939928Y-99672486D01*
X42815510Y-100297978D01*
X42815510Y-100362022D01*
X42939928Y-100987514D01*
X43294241Y-101517781D01*
X43417290Y-101600000D01*
X43294241Y-101682219D01*
X42939928Y-102212486D01*
X42815510Y-102837978D01*
X42815510Y-102902022D01*
X42939928Y-103527514D01*
X43294241Y-104057781D01*
X43417290Y-104140000D01*
X43294241Y-104222219D01*
X42939928Y-104752486D01*
X42815510Y-105377978D01*
X42815510Y-105442022D01*
X42939928Y-106067514D01*
X43294241Y-106597781D01*
X43824508Y-106952094D01*
X44450000Y-107076512D01*
X45075492Y-106952094D01*
X45605759Y-106597781D01*
X45960072Y-106067514D01*
X46084490Y-105442022D01*
X46084490Y-105377978D01*
X45960072Y-104752486D01*
X45605759Y-104222219D01*
X45482710Y-104140000D01*
X45605759Y-104057781D01*
X45960072Y-103527514D01*
X46084490Y-102902022D01*
X46084490Y-102837978D01*
X45960072Y-102212486D01*
X45605759Y-101682219D01*
X45482710Y-101600000D01*
X45605759Y-101517781D01*
X45960072Y-100987514D01*
X46084490Y-100362022D01*
X46084490Y-100297978D01*
X45960072Y-99672486D01*
X45605759Y-99142219D01*
X45482710Y-99060000D01*
X45605759Y-98977781D01*
X45960072Y-98447514D01*
X46084490Y-97822022D01*
X46084490Y-97757978D01*
X45960072Y-97132486D01*
X45605759Y-96602219D01*
X45482710Y-96520000D01*
X45605759Y-96437781D01*
X45960072Y-95907514D01*
X46084490Y-95282022D01*
X46084490Y-95217978D01*
X45960072Y-94592486D01*
X45605759Y-94062219D01*
X45482710Y-93980000D01*
X45605759Y-93897781D01*
X45960072Y-93367514D01*
X46084490Y-92742022D01*
X46084490Y-92677978D01*
X45960072Y-92052486D01*
X45605759Y-91522219D01*
X45482710Y-91440000D01*
X45605759Y-91357781D01*
X45960072Y-90827514D01*
X46084490Y-90202022D01*
X46084490Y-90137978D01*
X45960072Y-89512486D01*
X45746547Y-89192923D01*
X45900931Y-89093580D01*
X46045921Y-88881380D01*
X46096930Y-88629490D01*
X46096930Y-86630510D01*
X46052652Y-86395193D01*
X45913580Y-86179069D01*
X45701380Y-86034079D01*
X45449490Y-85983070D01*
X43450510Y-85983070D01*
X43215193Y-86027348D01*
X42999069Y-86166420D01*
X42854079Y-86378620D01*
X42803070Y-86630510D01*
X40767000Y-86630510D01*
X40767000Y-70134187D01*
X53174752Y-70134187D01*
X53392757Y-70661800D01*
X53796077Y-71065824D01*
X54323309Y-71284750D01*
X54894187Y-71285248D01*
X55421800Y-71067243D01*
X55825824Y-70663923D01*
X56044750Y-70136691D01*
X56045248Y-69565813D01*
X55827243Y-69038200D01*
X55423923Y-68634176D01*
X54896691Y-68415250D01*
X54325813Y-68414752D01*
X53798200Y-68632757D01*
X53394176Y-69036077D01*
X53175250Y-69563309D01*
X53174752Y-70134187D01*
X40767000Y-70134187D01*
X40767000Y-44720510D01*
X42803070Y-44720510D01*
X42803070Y-46719490D01*
X42847348Y-46954807D01*
X42986420Y-47170931D01*
X43152473Y-47284390D01*
X42939928Y-47602486D01*
X42815510Y-48227978D01*
X42815510Y-48292022D01*
X42939928Y-48917514D01*
X43294241Y-49447781D01*
X43417290Y-49530000D01*
X43294241Y-49612219D01*
X42939928Y-50142486D01*
X42815510Y-50767978D01*
X42815510Y-50832022D01*
X42939928Y-51457514D01*
X43294241Y-51987781D01*
X43417290Y-52070000D01*
X43294241Y-52152219D01*
X42939928Y-52682486D01*
X42815510Y-53307978D01*
X42815510Y-53372022D01*
X42939928Y-53997514D01*
X43294241Y-54527781D01*
X43417290Y-54610000D01*
X43294241Y-54692219D01*
X42939928Y-55222486D01*
X42815510Y-55847978D01*
X42815510Y-55912022D01*
X42939928Y-56537514D01*
X43294241Y-57067781D01*
X43417290Y-57150000D01*
X43294241Y-57232219D01*
X42939928Y-57762486D01*
X42815510Y-58387978D01*
X42815510Y-58452022D01*
X42939928Y-59077514D01*
X43294241Y-59607781D01*
X43417290Y-59690000D01*
X43294241Y-59772219D01*
X42939928Y-60302486D01*
X42815510Y-60927978D01*
X42815510Y-60992022D01*
X42939928Y-61617514D01*
X43294241Y-62147781D01*
X43417290Y-62230000D01*
X43294241Y-62312219D01*
X42939928Y-62842486D01*
X42815510Y-63467978D01*
X42815510Y-63532022D01*
X42939928Y-64157514D01*
X43294241Y-64687781D01*
X43824508Y-65042094D01*
X44450000Y-65166512D01*
X45075492Y-65042094D01*
X45605759Y-64687781D01*
X45960072Y-64157514D01*
X46084490Y-63532022D01*
X46084490Y-63467978D01*
X45960072Y-62842486D01*
X45605759Y-62312219D01*
X45482710Y-62230000D01*
X45605759Y-62147781D01*
X45960072Y-61617514D01*
X46030392Y-61263991D01*
X51804735Y-61263991D01*
X52037932Y-61828371D01*
X52469357Y-62260551D01*
X53033330Y-62494733D01*
X53643991Y-62495265D01*
X54208371Y-62262068D01*
X54376613Y-62094120D01*
X54376838Y-62095317D01*
X54515910Y-62311441D01*
X54728110Y-62456431D01*
X54980000Y-62507440D01*
X56780000Y-62507440D01*
X57015317Y-62463162D01*
X57231441Y-62324090D01*
X57376431Y-62111890D01*
X57427440Y-61860000D01*
X57427440Y-60960000D01*
X60766887Y-60960000D01*
X60876120Y-61509151D01*
X61187189Y-61974698D01*
X61652736Y-62285767D01*
X62201887Y-62395000D01*
X62258113Y-62395000D01*
X62807264Y-62285767D01*
X63272811Y-61974698D01*
X63583880Y-61509151D01*
X63636584Y-61244187D01*
X70954752Y-61244187D01*
X71172757Y-61771800D01*
X71576077Y-62175824D01*
X72103309Y-62394750D01*
X72674187Y-62395248D01*
X73201800Y-62177243D01*
X73605824Y-61773923D01*
X73824750Y-61246691D01*
X73825248Y-60675813D01*
X73607243Y-60148200D01*
X73203923Y-59744176D01*
X72676691Y-59525250D01*
X72105813Y-59524752D01*
X71578200Y-59742757D01*
X71174176Y-60146077D01*
X70955250Y-60673309D01*
X70954752Y-61244187D01*
X63636584Y-61244187D01*
X63693113Y-60960000D01*
X63583880Y-60410849D01*
X63272811Y-59945302D01*
X62807264Y-59634233D01*
X62258113Y-59525000D01*
X62201887Y-59525000D01*
X61652736Y-59634233D01*
X61187189Y-59945302D01*
X60876120Y-60410849D01*
X60766887Y-60960000D01*
X57427440Y-60960000D01*
X57427440Y-60060000D01*
X57383162Y-59824683D01*
X57244090Y-59608559D01*
X57031890Y-59463569D01*
X56780000Y-59412560D01*
X54980000Y-59412560D01*
X54744683Y-59456838D01*
X54528559Y-59595910D01*
X54383569Y-59808110D01*
X54379433Y-59828534D01*
X54210643Y-59659449D01*
X53646670Y-59425267D01*
X53036009Y-59424735D01*
X52471629Y-59657932D01*
X52039449Y-60089357D01*
X51805267Y-60653330D01*
X51804735Y-61263991D01*
X46030392Y-61263991D01*
X46084490Y-60992022D01*
X46084490Y-60927978D01*
X45960072Y-60302486D01*
X45605759Y-59772219D01*
X45482710Y-59690000D01*
X45605759Y-59607781D01*
X45960072Y-59077514D01*
X46084490Y-58452022D01*
X46084490Y-58387978D01*
X45960072Y-57762486D01*
X45605759Y-57232219D01*
X45482710Y-57150000D01*
X45605759Y-57067781D01*
X45960072Y-56537514D01*
X46030392Y-56183991D01*
X51804735Y-56183991D01*
X52037932Y-56748371D01*
X52469357Y-57180551D01*
X53033330Y-57414733D01*
X53643991Y-57415265D01*
X54208371Y-57182068D01*
X54376613Y-57014120D01*
X54376838Y-57015317D01*
X54515910Y-57231441D01*
X54728110Y-57376431D01*
X54980000Y-57427440D01*
X56780000Y-57427440D01*
X57015317Y-57383162D01*
X57231441Y-57244090D01*
X57376431Y-57031890D01*
X57427440Y-56780000D01*
X57427440Y-55880000D01*
X60766887Y-55880000D01*
X60876120Y-56429151D01*
X61187189Y-56894698D01*
X61652736Y-57205767D01*
X62201887Y-57315000D01*
X62258113Y-57315000D01*
X62807264Y-57205767D01*
X63272811Y-56894698D01*
X63583880Y-56429151D01*
X63636584Y-56164187D01*
X70954752Y-56164187D01*
X71172757Y-56691800D01*
X71576077Y-57095824D01*
X72103309Y-57314750D01*
X72674187Y-57315248D01*
X73201800Y-57097243D01*
X73605824Y-56693923D01*
X73824750Y-56166691D01*
X73825248Y-55595813D01*
X73607243Y-55068200D01*
X73203923Y-54664176D01*
X72676691Y-54445250D01*
X72105813Y-54444752D01*
X71578200Y-54662757D01*
X71174176Y-55066077D01*
X70955250Y-55593309D01*
X70954752Y-56164187D01*
X63636584Y-56164187D01*
X63693113Y-55880000D01*
X63583880Y-55330849D01*
X63272811Y-54865302D01*
X62807264Y-54554233D01*
X62258113Y-54445000D01*
X62201887Y-54445000D01*
X61652736Y-54554233D01*
X61187189Y-54865302D01*
X60876120Y-55330849D01*
X60766887Y-55880000D01*
X57427440Y-55880000D01*
X57427440Y-54980000D01*
X57383162Y-54744683D01*
X57244090Y-54528559D01*
X57031890Y-54383569D01*
X56780000Y-54332560D01*
X54980000Y-54332560D01*
X54744683Y-54376838D01*
X54528559Y-54515910D01*
X54383569Y-54728110D01*
X54379433Y-54748534D01*
X54210643Y-54579449D01*
X53646670Y-54345267D01*
X53036009Y-54344735D01*
X52471629Y-54577932D01*
X52039449Y-55009357D01*
X51805267Y-55573330D01*
X51804735Y-56183991D01*
X46030392Y-56183991D01*
X46084490Y-55912022D01*
X46084490Y-55847978D01*
X45960072Y-55222486D01*
X45605759Y-54692219D01*
X45482710Y-54610000D01*
X45605759Y-54527781D01*
X45960072Y-53997514D01*
X46084490Y-53372022D01*
X46084490Y-53307978D01*
X45960072Y-52682486D01*
X45605759Y-52152219D01*
X45482710Y-52070000D01*
X45605759Y-51987781D01*
X45960072Y-51457514D01*
X46030392Y-51103991D01*
X51804735Y-51103991D01*
X52037932Y-51668371D01*
X52469357Y-52100551D01*
X53033330Y-52334733D01*
X53643991Y-52335265D01*
X54208371Y-52102068D01*
X54376613Y-51934120D01*
X54376838Y-51935317D01*
X54515910Y-52151441D01*
X54728110Y-52296431D01*
X54980000Y-52347440D01*
X56780000Y-52347440D01*
X57015317Y-52303162D01*
X57231441Y-52164090D01*
X57376431Y-51951890D01*
X57427440Y-51700000D01*
X57427440Y-50800000D01*
X60766887Y-50800000D01*
X60876120Y-51349151D01*
X61187189Y-51814698D01*
X61652736Y-52125767D01*
X62201887Y-52235000D01*
X62258113Y-52235000D01*
X62807264Y-52125767D01*
X63272811Y-51814698D01*
X63583880Y-51349151D01*
X63636584Y-51084187D01*
X70954752Y-51084187D01*
X71172757Y-51611800D01*
X71576077Y-52015824D01*
X72103309Y-52234750D01*
X72674187Y-52235248D01*
X73201800Y-52017243D01*
X73605824Y-51613923D01*
X73824750Y-51086691D01*
X73825248Y-50515813D01*
X73607243Y-49988200D01*
X73203923Y-49584176D01*
X72676691Y-49365250D01*
X72105813Y-49364752D01*
X71578200Y-49582757D01*
X71174176Y-49986077D01*
X70955250Y-50513309D01*
X70954752Y-51084187D01*
X63636584Y-51084187D01*
X63693113Y-50800000D01*
X63583880Y-50250849D01*
X63272811Y-49785302D01*
X62807264Y-49474233D01*
X62258113Y-49365000D01*
X62201887Y-49365000D01*
X61652736Y-49474233D01*
X61187189Y-49785302D01*
X60876120Y-50250849D01*
X60766887Y-50800000D01*
X57427440Y-50800000D01*
X57427440Y-49900000D01*
X57383162Y-49664683D01*
X57244090Y-49448559D01*
X57031890Y-49303569D01*
X56780000Y-49252560D01*
X54980000Y-49252560D01*
X54744683Y-49296838D01*
X54528559Y-49435910D01*
X54383569Y-49648110D01*
X54379433Y-49668534D01*
X54210643Y-49499449D01*
X53646670Y-49265267D01*
X53036009Y-49264735D01*
X52471629Y-49497932D01*
X52039449Y-49929357D01*
X51805267Y-50493330D01*
X51804735Y-51103991D01*
X46030392Y-51103991D01*
X46084490Y-50832022D01*
X46084490Y-50767978D01*
X45960072Y-50142486D01*
X45605759Y-49612219D01*
X45482710Y-49530000D01*
X45605759Y-49447781D01*
X45960072Y-48917514D01*
X46084490Y-48292022D01*
X46084490Y-48227978D01*
X45960072Y-47602486D01*
X45746547Y-47282923D01*
X45900931Y-47183580D01*
X46045921Y-46971380D01*
X46096930Y-46719490D01*
X46096930Y-46023991D01*
X51804735Y-46023991D01*
X52037932Y-46588371D01*
X52469357Y-47020551D01*
X53033330Y-47254733D01*
X53643991Y-47255265D01*
X54208371Y-47022068D01*
X54376613Y-46854120D01*
X54376838Y-46855317D01*
X54515910Y-47071441D01*
X54728110Y-47216431D01*
X54980000Y-47267440D01*
X56780000Y-47267440D01*
X57015317Y-47223162D01*
X57231441Y-47084090D01*
X57376431Y-46871890D01*
X57427440Y-46620000D01*
X57427440Y-45720000D01*
X60766887Y-45720000D01*
X60876120Y-46269151D01*
X61187189Y-46734698D01*
X61652736Y-47045767D01*
X62201887Y-47155000D01*
X62258113Y-47155000D01*
X62807264Y-47045767D01*
X63272811Y-46734698D01*
X63583880Y-46269151D01*
X63636584Y-46004187D01*
X70954752Y-46004187D01*
X71172757Y-46531800D01*
X71576077Y-46935824D01*
X72103309Y-47154750D01*
X72674187Y-47155248D01*
X73201800Y-46937243D01*
X73605824Y-46533923D01*
X73824750Y-46006691D01*
X73825000Y-45720000D01*
X76006887Y-45720000D01*
X76116120Y-46269151D01*
X76427189Y-46734698D01*
X76809275Y-46990000D01*
X76427189Y-47245302D01*
X76116120Y-47710849D01*
X76006887Y-48260000D01*
X76116120Y-48809151D01*
X76427189Y-49274698D01*
X76809275Y-49530000D01*
X76427189Y-49785302D01*
X76116120Y-50250849D01*
X76006887Y-50800000D01*
X76116120Y-51349151D01*
X76427189Y-51814698D01*
X76809275Y-52070000D01*
X76427189Y-52325302D01*
X76116120Y-52790849D01*
X76006887Y-53340000D01*
X76116120Y-53889151D01*
X76427189Y-54354698D01*
X76809275Y-54610000D01*
X76427189Y-54865302D01*
X76116120Y-55330849D01*
X76006887Y-55880000D01*
X76116120Y-56429151D01*
X76427189Y-56894698D01*
X76809275Y-57150000D01*
X76427189Y-57405302D01*
X76116120Y-57870849D01*
X76006887Y-58420000D01*
X76116120Y-58969151D01*
X76427189Y-59434698D01*
X76809275Y-59690000D01*
X76427189Y-59945302D01*
X76116120Y-60410849D01*
X76006887Y-60960000D01*
X76116120Y-61509151D01*
X76427189Y-61974698D01*
X76809275Y-62230000D01*
X76427189Y-62485302D01*
X76116120Y-62950849D01*
X76006887Y-63500000D01*
X76116120Y-64049151D01*
X76427189Y-64514698D01*
X76892736Y-64825767D01*
X77441887Y-64935000D01*
X77498113Y-64935000D01*
X78047264Y-64825767D01*
X78512811Y-64514698D01*
X78823880Y-64049151D01*
X78863684Y-63849039D01*
X83698096Y-63849039D01*
X83858959Y-64237423D01*
X84234866Y-64652389D01*
X84740959Y-64891914D01*
X84963000Y-64770629D01*
X84963000Y-63627000D01*
X85217000Y-63627000D01*
X85217000Y-64770629D01*
X85439041Y-64891914D01*
X85945134Y-64652389D01*
X86321041Y-64237423D01*
X86481904Y-63849039D01*
X86359915Y-63627000D01*
X85217000Y-63627000D01*
X84963000Y-63627000D01*
X83820085Y-63627000D01*
X83698096Y-63849039D01*
X78863684Y-63849039D01*
X78933113Y-63500000D01*
X92516887Y-63500000D01*
X92626120Y-64049151D01*
X92937189Y-64514698D01*
X93402736Y-64825767D01*
X93951887Y-64935000D01*
X94008113Y-64935000D01*
X94557264Y-64825767D01*
X95022811Y-64514698D01*
X95333880Y-64049151D01*
X95443113Y-63500000D01*
X95333880Y-62950849D01*
X95022811Y-62485302D01*
X94618297Y-62215014D01*
X94835134Y-62112389D01*
X95211041Y-61697423D01*
X95371904Y-61309039D01*
X95249915Y-61087000D01*
X94107000Y-61087000D01*
X94107000Y-61107000D01*
X93853000Y-61107000D01*
X93853000Y-61087000D01*
X92710085Y-61087000D01*
X92588096Y-61309039D01*
X92748959Y-61697423D01*
X93124866Y-62112389D01*
X93341703Y-62215014D01*
X92937189Y-62485302D01*
X92626120Y-62950849D01*
X92516887Y-63500000D01*
X78933113Y-63500000D01*
X78823880Y-62950849D01*
X78512811Y-62485302D01*
X78130725Y-62230000D01*
X78512811Y-61974698D01*
X78823880Y-61509151D01*
X78933113Y-60960000D01*
X83626887Y-60960000D01*
X83736120Y-61509151D01*
X84047189Y-61974698D01*
X84451703Y-62244986D01*
X84234866Y-62347611D01*
X83858959Y-62762577D01*
X83698096Y-63150961D01*
X83820085Y-63373000D01*
X84963000Y-63373000D01*
X84963000Y-63353000D01*
X85217000Y-63353000D01*
X85217000Y-63373000D01*
X86359915Y-63373000D01*
X86481904Y-63150961D01*
X86321041Y-62762577D01*
X85945134Y-62347611D01*
X85728297Y-62244986D01*
X86132811Y-61974698D01*
X86443880Y-61509151D01*
X86553113Y-60960000D01*
X86443880Y-60410849D01*
X86132811Y-59945302D01*
X85728297Y-59675014D01*
X85945134Y-59572389D01*
X86321041Y-59157423D01*
X86481904Y-58769039D01*
X86359915Y-58547000D01*
X85217000Y-58547000D01*
X85217000Y-58567000D01*
X84963000Y-58567000D01*
X84963000Y-58547000D01*
X83820085Y-58547000D01*
X83698096Y-58769039D01*
X83858959Y-59157423D01*
X84234866Y-59572389D01*
X84451703Y-59675014D01*
X84047189Y-59945302D01*
X83736120Y-60410849D01*
X83626887Y-60960000D01*
X78933113Y-60960000D01*
X78823880Y-60410849D01*
X78512811Y-59945302D01*
X78130725Y-59690000D01*
X78512811Y-59434698D01*
X78823880Y-58969151D01*
X78933113Y-58420000D01*
X92516887Y-58420000D01*
X92626120Y-58969151D01*
X92937189Y-59434698D01*
X93341703Y-59704986D01*
X93124866Y-59807611D01*
X92748959Y-60222577D01*
X92588096Y-60610961D01*
X92710085Y-60833000D01*
X93853000Y-60833000D01*
X93853000Y-60813000D01*
X94107000Y-60813000D01*
X94107000Y-60833000D01*
X95249915Y-60833000D01*
X95371904Y-60610961D01*
X95211041Y-60222577D01*
X94835134Y-59807611D01*
X94618297Y-59704986D01*
X95022811Y-59434698D01*
X95333880Y-58969151D01*
X95443113Y-58420000D01*
X95333880Y-57870849D01*
X95022811Y-57405302D01*
X94618297Y-57135014D01*
X94835134Y-57032389D01*
X95211041Y-56617423D01*
X95371904Y-56229039D01*
X95249915Y-56007000D01*
X94107000Y-56007000D01*
X94107000Y-56027000D01*
X93853000Y-56027000D01*
X93853000Y-56007000D01*
X92710085Y-56007000D01*
X92588096Y-56229039D01*
X92748959Y-56617423D01*
X93124866Y-57032389D01*
X93341703Y-57135014D01*
X92937189Y-57405302D01*
X92626120Y-57870849D01*
X92516887Y-58420000D01*
X78933113Y-58420000D01*
X78823880Y-57870849D01*
X78512811Y-57405302D01*
X78130725Y-57150000D01*
X78512811Y-56894698D01*
X78823880Y-56429151D01*
X78933113Y-55880000D01*
X83626887Y-55880000D01*
X83736120Y-56429151D01*
X84047189Y-56894698D01*
X84451703Y-57164986D01*
X84234866Y-57267611D01*
X83858959Y-57682577D01*
X83698096Y-58070961D01*
X83820085Y-58293000D01*
X84963000Y-58293000D01*
X84963000Y-58273000D01*
X85217000Y-58273000D01*
X85217000Y-58293000D01*
X86359915Y-58293000D01*
X86481904Y-58070961D01*
X86321041Y-57682577D01*
X85945134Y-57267611D01*
X85728297Y-57164986D01*
X86132811Y-56894698D01*
X86443880Y-56429151D01*
X86553113Y-55880000D01*
X86443880Y-55330849D01*
X86132811Y-54865302D01*
X85728297Y-54595014D01*
X85945134Y-54492389D01*
X86321041Y-54077423D01*
X86481904Y-53689039D01*
X86359915Y-53467000D01*
X85217000Y-53467000D01*
X85217000Y-53487000D01*
X84963000Y-53487000D01*
X84963000Y-53467000D01*
X83820085Y-53467000D01*
X83698096Y-53689039D01*
X83858959Y-54077423D01*
X84234866Y-54492389D01*
X84451703Y-54595014D01*
X84047189Y-54865302D01*
X83736120Y-55330849D01*
X83626887Y-55880000D01*
X78933113Y-55880000D01*
X78823880Y-55330849D01*
X78512811Y-54865302D01*
X78130725Y-54610000D01*
X78512811Y-54354698D01*
X78823880Y-53889151D01*
X78933113Y-53340000D01*
X92516887Y-53340000D01*
X92626120Y-53889151D01*
X92937189Y-54354698D01*
X93341703Y-54624986D01*
X93124866Y-54727611D01*
X92748959Y-55142577D01*
X92588096Y-55530961D01*
X92710085Y-55753000D01*
X93853000Y-55753000D01*
X93853000Y-55733000D01*
X94107000Y-55733000D01*
X94107000Y-55753000D01*
X95249915Y-55753000D01*
X95371904Y-55530961D01*
X95211041Y-55142577D01*
X94835134Y-54727611D01*
X94618297Y-54624986D01*
X95022811Y-54354698D01*
X95333880Y-53889151D01*
X95443113Y-53340000D01*
X95333880Y-52790849D01*
X95022811Y-52325302D01*
X94618297Y-52055014D01*
X94835134Y-51952389D01*
X95211041Y-51537423D01*
X95371904Y-51149039D01*
X95249915Y-50927000D01*
X94107000Y-50927000D01*
X94107000Y-50947000D01*
X93853000Y-50947000D01*
X93853000Y-50927000D01*
X92710085Y-50927000D01*
X92588096Y-51149039D01*
X92748959Y-51537423D01*
X93124866Y-51952389D01*
X93341703Y-52055014D01*
X92937189Y-52325302D01*
X92626120Y-52790849D01*
X92516887Y-53340000D01*
X78933113Y-53340000D01*
X78823880Y-52790849D01*
X78512811Y-52325302D01*
X78130725Y-52070000D01*
X78512811Y-51814698D01*
X78823880Y-51349151D01*
X78933113Y-50800000D01*
X83626887Y-50800000D01*
X83736120Y-51349151D01*
X84047189Y-51814698D01*
X84451703Y-52084986D01*
X84234866Y-52187611D01*
X83858959Y-52602577D01*
X83698096Y-52990961D01*
X83820085Y-53213000D01*
X84963000Y-53213000D01*
X84963000Y-53193000D01*
X85217000Y-53193000D01*
X85217000Y-53213000D01*
X86359915Y-53213000D01*
X86481904Y-52990961D01*
X86321041Y-52602577D01*
X85945134Y-52187611D01*
X85728297Y-52084986D01*
X86132811Y-51814698D01*
X86443880Y-51349151D01*
X86553113Y-50800000D01*
X86443880Y-50250849D01*
X86132811Y-49785302D01*
X85728297Y-49515014D01*
X85945134Y-49412389D01*
X86321041Y-48997423D01*
X86481904Y-48609039D01*
X86359915Y-48387000D01*
X85217000Y-48387000D01*
X85217000Y-48407000D01*
X84963000Y-48407000D01*
X84963000Y-48387000D01*
X83820085Y-48387000D01*
X83698096Y-48609039D01*
X83858959Y-48997423D01*
X84234866Y-49412389D01*
X84451703Y-49515014D01*
X84047189Y-49785302D01*
X83736120Y-50250849D01*
X83626887Y-50800000D01*
X78933113Y-50800000D01*
X78823880Y-50250849D01*
X78512811Y-49785302D01*
X78130725Y-49530000D01*
X78512811Y-49274698D01*
X78823880Y-48809151D01*
X78933113Y-48260000D01*
X92516887Y-48260000D01*
X92626120Y-48809151D01*
X92937189Y-49274698D01*
X93341703Y-49544986D01*
X93124866Y-49647611D01*
X92748959Y-50062577D01*
X92588096Y-50450961D01*
X92710085Y-50673000D01*
X93853000Y-50673000D01*
X93853000Y-50653000D01*
X94107000Y-50653000D01*
X94107000Y-50673000D01*
X95249915Y-50673000D01*
X95371904Y-50450961D01*
X95211041Y-50062577D01*
X94835134Y-49647611D01*
X94618297Y-49544986D01*
X95022811Y-49274698D01*
X95333880Y-48809151D01*
X95443113Y-48260000D01*
X95333880Y-47710849D01*
X95022811Y-47245302D01*
X94618297Y-46975014D01*
X94835134Y-46872389D01*
X95211041Y-46457423D01*
X95371904Y-46069039D01*
X95249915Y-45847000D01*
X94107000Y-45847000D01*
X94107000Y-45867000D01*
X93853000Y-45867000D01*
X93853000Y-45847000D01*
X92710085Y-45847000D01*
X92588096Y-46069039D01*
X92748959Y-46457423D01*
X93124866Y-46872389D01*
X93341703Y-46975014D01*
X92937189Y-47245302D01*
X92626120Y-47710849D01*
X92516887Y-48260000D01*
X78933113Y-48260000D01*
X78823880Y-47710849D01*
X78512811Y-47245302D01*
X78130725Y-46990000D01*
X78512811Y-46734698D01*
X78823880Y-46269151D01*
X78933113Y-45720000D01*
X83626887Y-45720000D01*
X83736120Y-46269151D01*
X84047189Y-46734698D01*
X84451703Y-47004986D01*
X84234866Y-47107611D01*
X83858959Y-47522577D01*
X83698096Y-47910961D01*
X83820085Y-48133000D01*
X84963000Y-48133000D01*
X84963000Y-48113000D01*
X85217000Y-48113000D01*
X85217000Y-48133000D01*
X86359915Y-48133000D01*
X86481904Y-47910961D01*
X86321041Y-47522577D01*
X85945134Y-47107611D01*
X85728297Y-47004986D01*
X86132811Y-46734698D01*
X86443880Y-46269151D01*
X86553113Y-45720000D01*
X100136887Y-45720000D01*
X100246120Y-46269151D01*
X100557189Y-46734698D01*
X100939275Y-46990000D01*
X100557189Y-47245302D01*
X100246120Y-47710849D01*
X100136887Y-48260000D01*
X100246120Y-48809151D01*
X100557189Y-49274698D01*
X100939275Y-49530000D01*
X100557189Y-49785302D01*
X100246120Y-50250849D01*
X100136887Y-50800000D01*
X100246120Y-51349151D01*
X100557189Y-51814698D01*
X100939275Y-52070000D01*
X100557189Y-52325302D01*
X100246120Y-52790849D01*
X100136887Y-53340000D01*
X100246120Y-53889151D01*
X100557189Y-54354698D01*
X100939275Y-54610000D01*
X100557189Y-54865302D01*
X100246120Y-55330849D01*
X100136887Y-55880000D01*
X100246120Y-56429151D01*
X100557189Y-56894698D01*
X100939275Y-57150000D01*
X100557189Y-57405302D01*
X100246120Y-57870849D01*
X100136887Y-58420000D01*
X100246120Y-58969151D01*
X100557189Y-59434698D01*
X100939275Y-59690000D01*
X100557189Y-59945302D01*
X100246120Y-60410849D01*
X100136887Y-60960000D01*
X100246120Y-61509151D01*
X100557189Y-61974698D01*
X100939275Y-62230000D01*
X100557189Y-62485302D01*
X100246120Y-62950849D01*
X100136887Y-63500000D01*
X100246120Y-64049151D01*
X100557189Y-64514698D01*
X101022736Y-64825767D01*
X101571887Y-64935000D01*
X101628113Y-64935000D01*
X102177264Y-64825767D01*
X102642811Y-64514698D01*
X102953880Y-64049151D01*
X103006584Y-63784187D01*
X105244752Y-63784187D01*
X105462757Y-64311800D01*
X105866077Y-64715824D01*
X106393309Y-64934750D01*
X106964187Y-64935248D01*
X107491800Y-64717243D01*
X107895824Y-64313923D01*
X108114750Y-63786691D01*
X108115000Y-63500000D01*
X115376887Y-63500000D01*
X115486120Y-64049151D01*
X115797189Y-64514698D01*
X116262736Y-64825767D01*
X116811887Y-64935000D01*
X116868113Y-64935000D01*
X117417264Y-64825767D01*
X117882811Y-64514698D01*
X118193880Y-64049151D01*
X118303113Y-63500000D01*
X118193880Y-62950849D01*
X117959450Y-62600000D01*
X121642560Y-62600000D01*
X121642560Y-64400000D01*
X121686838Y-64635317D01*
X121825910Y-64851441D01*
X122038110Y-64996431D01*
X122290000Y-65047440D01*
X124090000Y-65047440D01*
X124325317Y-65003162D01*
X124541441Y-64864090D01*
X124686431Y-64651890D01*
X124690567Y-64631466D01*
X124859357Y-64800551D01*
X125423330Y-65034733D01*
X126033991Y-65035265D01*
X126598371Y-64802068D01*
X127030551Y-64370643D01*
X127264733Y-63806670D01*
X127265265Y-63196009D01*
X127032068Y-62631629D01*
X126901179Y-62500510D01*
X132973070Y-62500510D01*
X132973070Y-64499490D01*
X133017348Y-64734807D01*
X133156420Y-64950931D01*
X133368620Y-65095921D01*
X133620510Y-65146930D01*
X135619490Y-65146930D01*
X135854807Y-65102652D01*
X136070931Y-64963580D01*
X136215921Y-64751380D01*
X136266930Y-64499490D01*
X136266930Y-62500510D01*
X136222652Y-62265193D01*
X136083580Y-62049069D01*
X135917527Y-61935610D01*
X136130072Y-61617514D01*
X136254490Y-60992022D01*
X136254490Y-60927978D01*
X136130072Y-60302486D01*
X135775759Y-59772219D01*
X135652710Y-59690000D01*
X135775759Y-59607781D01*
X136130072Y-59077514D01*
X136254490Y-58452022D01*
X136254490Y-58387978D01*
X136130072Y-57762486D01*
X135775759Y-57232219D01*
X135652710Y-57150000D01*
X135775759Y-57067781D01*
X136130072Y-56537514D01*
X136254490Y-55912022D01*
X136254490Y-55847978D01*
X136130072Y-55222486D01*
X135775759Y-54692219D01*
X135652710Y-54610000D01*
X135775759Y-54527781D01*
X136130072Y-53997514D01*
X136254490Y-53372022D01*
X136254490Y-53307978D01*
X136130072Y-52682486D01*
X135775759Y-52152219D01*
X135652710Y-52070000D01*
X135775759Y-51987781D01*
X136130072Y-51457514D01*
X136254490Y-50832022D01*
X136254490Y-50767978D01*
X136130072Y-50142486D01*
X135775759Y-49612219D01*
X135652710Y-49530000D01*
X135775759Y-49447781D01*
X136130072Y-48917514D01*
X136254490Y-48292022D01*
X136254490Y-48227978D01*
X136130072Y-47602486D01*
X135775759Y-47072219D01*
X135652710Y-46990000D01*
X135775759Y-46907781D01*
X136130072Y-46377514D01*
X136254490Y-45752022D01*
X136254490Y-45687978D01*
X136130072Y-45062486D01*
X135775759Y-44532219D01*
X135245492Y-44177906D01*
X134620000Y-44053488D01*
X133994508Y-44177906D01*
X133464241Y-44532219D01*
X133109928Y-45062486D01*
X132985510Y-45687978D01*
X132985510Y-45752022D01*
X133109928Y-46377514D01*
X133464241Y-46907781D01*
X133587290Y-46990000D01*
X133464241Y-47072219D01*
X133109928Y-47602486D01*
X132985510Y-48227978D01*
X132985510Y-48292022D01*
X133109928Y-48917514D01*
X133464241Y-49447781D01*
X133587290Y-49530000D01*
X133464241Y-49612219D01*
X133109928Y-50142486D01*
X132985510Y-50767978D01*
X132985510Y-50832022D01*
X133109928Y-51457514D01*
X133464241Y-51987781D01*
X133587290Y-52070000D01*
X133464241Y-52152219D01*
X133109928Y-52682486D01*
X132985510Y-53307978D01*
X132985510Y-53372022D01*
X133109928Y-53997514D01*
X133464241Y-54527781D01*
X133587290Y-54610000D01*
X133464241Y-54692219D01*
X133109928Y-55222486D01*
X132985510Y-55847978D01*
X132985510Y-55912022D01*
X133109928Y-56537514D01*
X133464241Y-57067781D01*
X133587290Y-57150000D01*
X133464241Y-57232219D01*
X133109928Y-57762486D01*
X132985510Y-58387978D01*
X132985510Y-58452022D01*
X133109928Y-59077514D01*
X133464241Y-59607781D01*
X133587290Y-59690000D01*
X133464241Y-59772219D01*
X133109928Y-60302486D01*
X132985510Y-60927978D01*
X132985510Y-60992022D01*
X133109928Y-61617514D01*
X133323453Y-61937077D01*
X133169069Y-62036420D01*
X133024079Y-62248620D01*
X132973070Y-62500510D01*
X126901179Y-62500510D01*
X126600643Y-62199449D01*
X126036670Y-61965267D01*
X125426009Y-61964735D01*
X124861629Y-62197932D01*
X124693387Y-62365880D01*
X124693162Y-62364683D01*
X124554090Y-62148559D01*
X124341890Y-62003569D01*
X124090000Y-61952560D01*
X122290000Y-61952560D01*
X122054683Y-61996838D01*
X121838559Y-62135910D01*
X121693569Y-62348110D01*
X121642560Y-62600000D01*
X117959450Y-62600000D01*
X117882811Y-62485302D01*
X117417264Y-62174233D01*
X116868113Y-62065000D01*
X116811887Y-62065000D01*
X116262736Y-62174233D01*
X115797189Y-62485302D01*
X115486120Y-62950849D01*
X115376887Y-63500000D01*
X108115000Y-63500000D01*
X108115248Y-63215813D01*
X107897243Y-62688200D01*
X107493923Y-62284176D01*
X106966691Y-62065250D01*
X106395813Y-62064752D01*
X105868200Y-62282757D01*
X105464176Y-62686077D01*
X105245250Y-63213309D01*
X105244752Y-63784187D01*
X103006584Y-63784187D01*
X103063113Y-63500000D01*
X102953880Y-62950849D01*
X102642811Y-62485302D01*
X102260725Y-62230000D01*
X102642811Y-61974698D01*
X102953880Y-61509151D01*
X103063113Y-60960000D01*
X102953880Y-60410849D01*
X102642811Y-59945302D01*
X102260725Y-59690000D01*
X102642811Y-59434698D01*
X102953880Y-58969151D01*
X103006584Y-58704187D01*
X105244752Y-58704187D01*
X105462757Y-59231800D01*
X105866077Y-59635824D01*
X106393309Y-59854750D01*
X106964187Y-59855248D01*
X107491800Y-59637243D01*
X107895824Y-59233923D01*
X108114750Y-58706691D01*
X108115000Y-58420000D01*
X115376887Y-58420000D01*
X115486120Y-58969151D01*
X115797189Y-59434698D01*
X116262736Y-59745767D01*
X116811887Y-59855000D01*
X116868113Y-59855000D01*
X117417264Y-59745767D01*
X117882811Y-59434698D01*
X118193880Y-58969151D01*
X118303113Y-58420000D01*
X118193880Y-57870849D01*
X117959450Y-57520000D01*
X121642560Y-57520000D01*
X121642560Y-59320000D01*
X121686838Y-59555317D01*
X121825910Y-59771441D01*
X122038110Y-59916431D01*
X122290000Y-59967440D01*
X124090000Y-59967440D01*
X124325317Y-59923162D01*
X124541441Y-59784090D01*
X124686431Y-59571890D01*
X124690567Y-59551466D01*
X124859357Y-59720551D01*
X125423330Y-59954733D01*
X126033991Y-59955265D01*
X126598371Y-59722068D01*
X127030551Y-59290643D01*
X127264733Y-58726670D01*
X127265265Y-58116009D01*
X127032068Y-57551629D01*
X126600643Y-57119449D01*
X126036670Y-56885267D01*
X125426009Y-56884735D01*
X124861629Y-57117932D01*
X124693387Y-57285880D01*
X124693162Y-57284683D01*
X124554090Y-57068559D01*
X124341890Y-56923569D01*
X124090000Y-56872560D01*
X122290000Y-56872560D01*
X122054683Y-56916838D01*
X121838559Y-57055910D01*
X121693569Y-57268110D01*
X121642560Y-57520000D01*
X117959450Y-57520000D01*
X117882811Y-57405302D01*
X117417264Y-57094233D01*
X116868113Y-56985000D01*
X116811887Y-56985000D01*
X116262736Y-57094233D01*
X115797189Y-57405302D01*
X115486120Y-57870849D01*
X115376887Y-58420000D01*
X108115000Y-58420000D01*
X108115248Y-58135813D01*
X107897243Y-57608200D01*
X107493923Y-57204176D01*
X106966691Y-56985250D01*
X106395813Y-56984752D01*
X105868200Y-57202757D01*
X105464176Y-57606077D01*
X105245250Y-58133309D01*
X105244752Y-58704187D01*
X103006584Y-58704187D01*
X103063113Y-58420000D01*
X102953880Y-57870849D01*
X102642811Y-57405302D01*
X102260725Y-57150000D01*
X102642811Y-56894698D01*
X102953880Y-56429151D01*
X103063113Y-55880000D01*
X102953880Y-55330849D01*
X102642811Y-54865302D01*
X102260725Y-54610000D01*
X102642811Y-54354698D01*
X102953880Y-53889151D01*
X103006584Y-53624187D01*
X105244752Y-53624187D01*
X105462757Y-54151800D01*
X105866077Y-54555824D01*
X106393309Y-54774750D01*
X106964187Y-54775248D01*
X107491800Y-54557243D01*
X107895824Y-54153923D01*
X108114750Y-53626691D01*
X108115000Y-53340000D01*
X115376887Y-53340000D01*
X115486120Y-53889151D01*
X115797189Y-54354698D01*
X116262736Y-54665767D01*
X116811887Y-54775000D01*
X116868113Y-54775000D01*
X117417264Y-54665767D01*
X117882811Y-54354698D01*
X118193880Y-53889151D01*
X118303113Y-53340000D01*
X118193880Y-52790849D01*
X117959450Y-52440000D01*
X121642560Y-52440000D01*
X121642560Y-54240000D01*
X121686838Y-54475317D01*
X121825910Y-54691441D01*
X122038110Y-54836431D01*
X122290000Y-54887440D01*
X124090000Y-54887440D01*
X124325317Y-54843162D01*
X124541441Y-54704090D01*
X124686431Y-54491890D01*
X124690567Y-54471466D01*
X124859357Y-54640551D01*
X125423330Y-54874733D01*
X126033991Y-54875265D01*
X126598371Y-54642068D01*
X127030551Y-54210643D01*
X127264733Y-53646670D01*
X127265265Y-53036009D01*
X127032068Y-52471629D01*
X126600643Y-52039449D01*
X126036670Y-51805267D01*
X125426009Y-51804735D01*
X124861629Y-52037932D01*
X124693387Y-52205880D01*
X124693162Y-52204683D01*
X124554090Y-51988559D01*
X124341890Y-51843569D01*
X124090000Y-51792560D01*
X122290000Y-51792560D01*
X122054683Y-51836838D01*
X121838559Y-51975910D01*
X121693569Y-52188110D01*
X121642560Y-52440000D01*
X117959450Y-52440000D01*
X117882811Y-52325302D01*
X117417264Y-52014233D01*
X116868113Y-51905000D01*
X116811887Y-51905000D01*
X116262736Y-52014233D01*
X115797189Y-52325302D01*
X115486120Y-52790849D01*
X115376887Y-53340000D01*
X108115000Y-53340000D01*
X108115248Y-53055813D01*
X107897243Y-52528200D01*
X107493923Y-52124176D01*
X106966691Y-51905250D01*
X106395813Y-51904752D01*
X105868200Y-52122757D01*
X105464176Y-52526077D01*
X105245250Y-53053309D01*
X105244752Y-53624187D01*
X103006584Y-53624187D01*
X103063113Y-53340000D01*
X102953880Y-52790849D01*
X102642811Y-52325302D01*
X102260725Y-52070000D01*
X102642811Y-51814698D01*
X102953880Y-51349151D01*
X103063113Y-50800000D01*
X102953880Y-50250849D01*
X102642811Y-49785302D01*
X102260725Y-49530000D01*
X102642811Y-49274698D01*
X102953880Y-48809151D01*
X103006584Y-48544187D01*
X105244752Y-48544187D01*
X105462757Y-49071800D01*
X105866077Y-49475824D01*
X106393309Y-49694750D01*
X106964187Y-49695248D01*
X107491800Y-49477243D01*
X107895824Y-49073923D01*
X108114750Y-48546691D01*
X108115000Y-48260000D01*
X115376887Y-48260000D01*
X115486120Y-48809151D01*
X115797189Y-49274698D01*
X116262736Y-49585767D01*
X116811887Y-49695000D01*
X116868113Y-49695000D01*
X117417264Y-49585767D01*
X117882811Y-49274698D01*
X118193880Y-48809151D01*
X118303113Y-48260000D01*
X118193880Y-47710849D01*
X117959450Y-47360000D01*
X121642560Y-47360000D01*
X121642560Y-49160000D01*
X121686838Y-49395317D01*
X121825910Y-49611441D01*
X122038110Y-49756431D01*
X122290000Y-49807440D01*
X124090000Y-49807440D01*
X124325317Y-49763162D01*
X124541441Y-49624090D01*
X124686431Y-49411890D01*
X124690567Y-49391466D01*
X124859357Y-49560551D01*
X125423330Y-49794733D01*
X126033991Y-49795265D01*
X126598371Y-49562068D01*
X127030551Y-49130643D01*
X127264733Y-48566670D01*
X127265265Y-47956009D01*
X127032068Y-47391629D01*
X126600643Y-46959449D01*
X126036670Y-46725267D01*
X125426009Y-46724735D01*
X124861629Y-46957932D01*
X124693387Y-47125880D01*
X124693162Y-47124683D01*
X124554090Y-46908559D01*
X124341890Y-46763569D01*
X124090000Y-46712560D01*
X122290000Y-46712560D01*
X122054683Y-46756838D01*
X121838559Y-46895910D01*
X121693569Y-47108110D01*
X121642560Y-47360000D01*
X117959450Y-47360000D01*
X117882811Y-47245302D01*
X117417264Y-46934233D01*
X116868113Y-46825000D01*
X116811887Y-46825000D01*
X116262736Y-46934233D01*
X115797189Y-47245302D01*
X115486120Y-47710849D01*
X115376887Y-48260000D01*
X108115000Y-48260000D01*
X108115248Y-47975813D01*
X107897243Y-47448200D01*
X107493923Y-47044176D01*
X106966691Y-46825250D01*
X106395813Y-46824752D01*
X105868200Y-47042757D01*
X105464176Y-47446077D01*
X105245250Y-47973309D01*
X105244752Y-48544187D01*
X103006584Y-48544187D01*
X103063113Y-48260000D01*
X102953880Y-47710849D01*
X102642811Y-47245302D01*
X102260725Y-46990000D01*
X102642811Y-46734698D01*
X102953880Y-46269151D01*
X103063113Y-45720000D01*
X102953880Y-45170849D01*
X102642811Y-44705302D01*
X102177264Y-44394233D01*
X101628113Y-44285000D01*
X101571887Y-44285000D01*
X101022736Y-44394233D01*
X100557189Y-44705302D01*
X100246120Y-45170849D01*
X100136887Y-45720000D01*
X86553113Y-45720000D01*
X86483685Y-45370961D01*
X92588096Y-45370961D01*
X92710085Y-45593000D01*
X93853000Y-45593000D01*
X93853000Y-44449371D01*
X94107000Y-44449371D01*
X94107000Y-45593000D01*
X95249915Y-45593000D01*
X95371904Y-45370961D01*
X95211041Y-44982577D01*
X94835134Y-44567611D01*
X94329041Y-44328086D01*
X94107000Y-44449371D01*
X93853000Y-44449371D01*
X93630959Y-44328086D01*
X93124866Y-44567611D01*
X92748959Y-44982577D01*
X92588096Y-45370961D01*
X86483685Y-45370961D01*
X86443880Y-45170849D01*
X86132811Y-44705302D01*
X85667264Y-44394233D01*
X85118113Y-44285000D01*
X85061887Y-44285000D01*
X84512736Y-44394233D01*
X84047189Y-44705302D01*
X83736120Y-45170849D01*
X83626887Y-45720000D01*
X78933113Y-45720000D01*
X78823880Y-45170849D01*
X78512811Y-44705302D01*
X78047264Y-44394233D01*
X77498113Y-44285000D01*
X77441887Y-44285000D01*
X76892736Y-44394233D01*
X76427189Y-44705302D01*
X76116120Y-45170849D01*
X76006887Y-45720000D01*
X73825000Y-45720000D01*
X73825248Y-45435813D01*
X73607243Y-44908200D01*
X73203923Y-44504176D01*
X72676691Y-44285250D01*
X72105813Y-44284752D01*
X71578200Y-44502757D01*
X71174176Y-44906077D01*
X70955250Y-45433309D01*
X70954752Y-46004187D01*
X63636584Y-46004187D01*
X63693113Y-45720000D01*
X63583880Y-45170849D01*
X63272811Y-44705302D01*
X62807264Y-44394233D01*
X62258113Y-44285000D01*
X62201887Y-44285000D01*
X61652736Y-44394233D01*
X61187189Y-44705302D01*
X60876120Y-45170849D01*
X60766887Y-45720000D01*
X57427440Y-45720000D01*
X57427440Y-44820000D01*
X57383162Y-44584683D01*
X57244090Y-44368559D01*
X57031890Y-44223569D01*
X56780000Y-44172560D01*
X54980000Y-44172560D01*
X54744683Y-44216838D01*
X54528559Y-44355910D01*
X54383569Y-44568110D01*
X54379433Y-44588534D01*
X54210643Y-44419449D01*
X53646670Y-44185267D01*
X53036009Y-44184735D01*
X52471629Y-44417932D01*
X52039449Y-44849357D01*
X51805267Y-45413330D01*
X51804735Y-46023991D01*
X46096930Y-46023991D01*
X46096930Y-44720510D01*
X46052652Y-44485193D01*
X45913580Y-44269069D01*
X45701380Y-44124079D01*
X45449490Y-44073070D01*
X43450510Y-44073070D01*
X43215193Y-44117348D01*
X42999069Y-44256420D01*
X42854079Y-44468620D01*
X42803070Y-44720510D01*
X40767000Y-44720510D01*
X40767000Y-40767000D01*
X138290000Y-40767000D01*
X138290000Y-138290000D01*
X138290000Y-138290000D01*
G37*
X138290000Y-138290000D02*
X40767000Y-138290000D01*
X40767000Y-136191812D01*
X70865736Y-136191812D01*
X71097262Y-136752149D01*
X71525596Y-137181231D01*
X72085528Y-137413735D01*
X72691812Y-137414264D01*
X73252149Y-137182738D01*
X73660336Y-136775263D01*
X74065596Y-137181231D01*
X74625528Y-137413735D01*
X75231812Y-137414264D01*
X75792149Y-137182738D01*
X76200336Y-136775263D01*
X76605596Y-137181231D01*
X77165528Y-137413735D01*
X77771812Y-137414264D01*
X78332149Y-137182738D01*
X78553076Y-136962196D01*
X79117409Y-136962196D01*
X79202467Y-137217539D01*
X79771965Y-137425516D01*
X80377700Y-137399723D01*
X80817533Y-137217539D01*
X80902591Y-136962196D01*
X80010000Y-136069605D01*
X79117409Y-136962196D01*
X78553076Y-136962196D01*
X78761231Y-136754404D01*
X78772405Y-136727494D01*
X78937804Y-136782591D01*
X79830395Y-135890000D01*
X80189605Y-135890000D01*
X81082196Y-136782591D01*
X81247138Y-136727647D01*
X81257262Y-136752149D01*
X81685596Y-137181231D01*
X82245528Y-137413735D01*
X82851812Y-137414264D01*
X83412149Y-137182738D01*
X83820336Y-136775263D01*
X84225596Y-137181231D01*
X84785528Y-137413735D01*
X85391812Y-137414264D01*
X85952149Y-137182738D01*
X86360336Y-136775263D01*
X86765596Y-137181231D01*
X87325528Y-137413735D01*
X87931812Y-137414264D01*
X88492149Y-137182738D01*
X88900336Y-136775263D01*
X89305596Y-137181231D01*
X89865528Y-137413735D01*
X90471812Y-137414264D01*
X91032149Y-137182738D01*
X91440336Y-136775263D01*
X91845596Y-137181231D01*
X92405528Y-137413735D01*
X93011812Y-137414264D01*
X93572149Y-137182738D01*
X93980336Y-136775263D01*
X94385596Y-137181231D01*
X94945528Y-137413735D01*
X95551812Y-137414264D01*
X96112149Y-137182738D01*
X96520336Y-136775263D01*
X96925596Y-137181231D01*
X97485528Y-137413735D01*
X98091812Y-137414264D01*
X98652149Y-137182738D01*
X99060336Y-136775263D01*
X99465596Y-137181231D01*
X100025528Y-137413735D01*
X100631812Y-137414264D01*
X101192149Y-137182738D01*
X101600336Y-136775263D01*
X102005596Y-137181231D01*
X102565528Y-137413735D01*
X103171812Y-137414264D01*
X103732149Y-137182738D01*
X104140336Y-136775263D01*
X104545596Y-137181231D01*
X105105528Y-137413735D01*
X105711812Y-137414264D01*
X106272149Y-137182738D01*
X106680336Y-136775263D01*
X107085596Y-137181231D01*
X107645528Y-137413735D01*
X108251812Y-137414264D01*
X108812149Y-137182738D01*
X108995154Y-137000052D01*
X108997838Y-137014317D01*
X109136910Y-137230441D01*
X109349110Y-137375431D01*
X109601000Y-137426440D01*
X111379000Y-137426440D01*
X111614317Y-137382162D01*
X111830441Y-137243090D01*
X111975431Y-137030890D01*
X112026440Y-136779000D01*
X112026440Y-135001000D01*
X111982162Y-134765683D01*
X111843090Y-134549559D01*
X111630890Y-134404569D01*
X111379000Y-134353560D01*
X109601000Y-134353560D01*
X109365683Y-134397838D01*
X109149559Y-134536910D01*
X109004569Y-134749110D01*
X108997809Y-134782494D01*
X108814404Y-134598769D01*
X108254472Y-134366265D01*
X107648188Y-134365736D01*
X107087851Y-134597262D01*
X106679664Y-135004737D01*
X106274404Y-134598769D01*
X105714472Y-134366265D01*
X105108188Y-134365736D01*
X104547851Y-134597262D01*
X104139664Y-135004737D01*
X103734404Y-134598769D01*
X103174472Y-134366265D01*
X102568188Y-134365736D01*
X102007851Y-134597262D01*
X101599664Y-135004737D01*
X101194404Y-134598769D01*
X100634472Y-134366265D01*
X100028188Y-134365736D01*
X99467851Y-134597262D01*
X99059664Y-135004737D01*
X98654404Y-134598769D01*
X98094472Y-134366265D01*
X97488188Y-134365736D01*
X96927851Y-134597262D01*
X96519664Y-135004737D01*
X96114404Y-134598769D01*
X95554472Y-134366265D01*
X94948188Y-134365736D01*
X94387851Y-134597262D01*
X93979664Y-135004737D01*
X93574404Y-134598769D01*
X93014472Y-134366265D01*
X92408188Y-134365736D01*
X91847851Y-134597262D01*
X91439664Y-135004737D01*
X91034404Y-134598769D01*
X90474472Y-134366265D01*
X89868188Y-134365736D01*
X89307851Y-134597262D01*
X88899664Y-135004737D01*
X88494404Y-134598769D01*
X87934472Y-134366265D01*
X87328188Y-134365736D01*
X86767851Y-134597262D01*
X86359664Y-135004737D01*
X85954404Y-134598769D01*
X85394472Y-134366265D01*
X84788188Y-134365736D01*
X84227851Y-134597262D01*
X83819664Y-135004737D01*
X83414404Y-134598769D01*
X82854472Y-134366265D01*
X82248188Y-134365736D01*
X81687851Y-134597262D01*
X81258769Y-135025596D01*
X81247595Y-135052506D01*
X81082196Y-134997409D01*
X80189605Y-135890000D01*
X79830395Y-135890000D01*
X78937804Y-134997409D01*
X78772862Y-135052353D01*
X78762738Y-135027851D01*
X78553058Y-134817804D01*
X79117409Y-134817804D01*
X80010000Y-135710395D01*
X80902591Y-134817804D01*
X80817533Y-134562461D01*
X80248035Y-134354484D01*
X79642300Y-134380277D01*
X79202467Y-134562461D01*
X79117409Y-134817804D01*
X78553058Y-134817804D01*
X78334404Y-134598769D01*
X77774472Y-134366265D01*
X77168188Y-134365736D01*
X76607851Y-134597262D01*
X76199664Y-135004737D01*
X75794404Y-134598769D01*
X75234472Y-134366265D01*
X74628188Y-134365736D01*
X74067851Y-134597262D01*
X73659664Y-135004737D01*
X73254404Y-134598769D01*
X72694472Y-134366265D01*
X72088188Y-134365736D01*
X71527851Y-134597262D01*
X71098769Y-135025596D01*
X70866265Y-135585528D01*
X70865736Y-136191812D01*
X40767000Y-136191812D01*
X40767000Y-133634187D01*
X56984752Y-133634187D01*
X57202757Y-134161800D01*
X57606077Y-134565824D01*
X58133309Y-134784750D01*
X58704187Y-134785248D01*
X59231800Y-134567243D01*
X59635824Y-134163923D01*
X59854750Y-133636691D01*
X59855248Y-133065813D01*
X59637243Y-132538200D01*
X59233923Y-132134176D01*
X58706691Y-131915250D01*
X58135813Y-131914752D01*
X57608200Y-132132757D01*
X57204176Y-132536077D01*
X56985250Y-133063309D01*
X56984752Y-133634187D01*
X40767000Y-133634187D01*
X40767000Y-131094187D01*
X48094752Y-131094187D01*
X48312757Y-131621800D01*
X48716077Y-132025824D01*
X49243309Y-132244750D01*
X49814187Y-132245248D01*
X50341800Y-132027243D01*
X50745824Y-131623923D01*
X50964750Y-131096691D01*
X50965248Y-130525813D01*
X50957783Y-130507745D01*
X121091861Y-130507745D01*
X121165995Y-130753864D01*
X121703223Y-130946965D01*
X122273454Y-130919778D01*
X122674005Y-130753864D01*
X122748139Y-130507745D01*
X121920000Y-129679605D01*
X121091861Y-130507745D01*
X50957783Y-130507745D01*
X50747243Y-129998200D01*
X50343923Y-129594176D01*
X49816691Y-129375250D01*
X49245813Y-129374752D01*
X48718200Y-129592757D01*
X48314176Y-129996077D01*
X48095250Y-130523309D01*
X48094752Y-131094187D01*
X40767000Y-131094187D01*
X40767000Y-129283223D01*
X120473035Y-129283223D01*
X120500222Y-129853454D01*
X120666136Y-130254005D01*
X120912255Y-130328139D01*
X121740395Y-129500000D01*
X122099605Y-129500000D01*
X122927745Y-130328139D01*
X123173864Y-130254005D01*
X123327795Y-129825750D01*
X130545000Y-129825750D01*
X130545000Y-130566309D01*
X130641673Y-130799698D01*
X130820301Y-130978327D01*
X131053690Y-131075000D01*
X131794250Y-131075000D01*
X131953000Y-130916250D01*
X131953000Y-129667000D01*
X132207000Y-129667000D01*
X132207000Y-130916250D01*
X132365750Y-131075000D01*
X133106310Y-131075000D01*
X133339699Y-130978327D01*
X133518327Y-130799698D01*
X133615000Y-130566309D01*
X133615000Y-129825750D01*
X133456250Y-129667000D01*
X132207000Y-129667000D01*
X131953000Y-129667000D01*
X130703750Y-129667000D01*
X130545000Y-129825750D01*
X123327795Y-129825750D01*
X123366965Y-129716777D01*
X123339778Y-129146546D01*
X123173864Y-128745995D01*
X122927745Y-128671861D01*
X122099605Y-129500000D01*
X121740395Y-129500000D01*
X120912255Y-128671861D01*
X120666136Y-128745995D01*
X120473035Y-129283223D01*
X40767000Y-129283223D01*
X40767000Y-126200000D01*
X120472560Y-126200000D01*
X120472560Y-127800000D01*
X120516838Y-128035317D01*
X120655910Y-128251441D01*
X120868110Y-128396431D01*
X121106201Y-128444646D01*
X121091861Y-128492255D01*
X121920000Y-129320395D01*
X122748139Y-128492255D01*
X122733855Y-128444833D01*
X122955317Y-128403162D01*
X123171441Y-128264090D01*
X123316431Y-128051890D01*
X123367440Y-127800000D01*
X123367440Y-126200000D01*
X123323162Y-125964683D01*
X123184090Y-125748559D01*
X122971890Y-125603569D01*
X122720000Y-125552560D01*
X121120000Y-125552560D01*
X120884683Y-125596838D01*
X120668559Y-125735910D01*
X120523569Y-125948110D01*
X120472560Y-126200000D01*
X40767000Y-126200000D01*
X40767000Y-120621887D01*
X48095000Y-120621887D01*
X48095000Y-120678113D01*
X48204233Y-121227264D01*
X48515302Y-121692811D01*
X48980849Y-122003880D01*
X49530000Y-122113113D01*
X50079151Y-122003880D01*
X50544698Y-121692811D01*
X50855767Y-121227264D01*
X50965000Y-120678113D01*
X50965000Y-120621887D01*
X50855767Y-120072736D01*
X50544698Y-119607189D01*
X50415000Y-119520527D01*
X50415000Y-103173991D01*
X51804735Y-103173991D01*
X52037932Y-103738371D01*
X52469357Y-104170551D01*
X53033330Y-104404733D01*
X53643991Y-104405265D01*
X54208371Y-104172068D01*
X54376613Y-104004120D01*
X54376838Y-104005317D01*
X54515910Y-104221441D01*
X54728110Y-104366431D01*
X54980000Y-104417440D01*
X56780000Y-104417440D01*
X57015317Y-104373162D01*
X57231441Y-104234090D01*
X57376431Y-104021890D01*
X57427440Y-103770000D01*
X57427440Y-101970000D01*
X57383162Y-101734683D01*
X57244090Y-101518559D01*
X57031890Y-101373569D01*
X56780000Y-101322560D01*
X54980000Y-101322560D01*
X54744683Y-101366838D01*
X54528559Y-101505910D01*
X54383569Y-101718110D01*
X54379433Y-101738534D01*
X54210643Y-101569449D01*
X53646670Y-101335267D01*
X53036009Y-101334735D01*
X52471629Y-101567932D01*
X52039449Y-101999357D01*
X51805267Y-102563330D01*
X51804735Y-103173991D01*
X50415000Y-103173991D01*
X50415000Y-98093991D01*
X51804735Y-98093991D01*
X52037932Y-98658371D01*
X52469357Y-99090551D01*
X53033330Y-99324733D01*
X53643991Y-99325265D01*
X54208371Y-99092068D01*
X54376613Y-98924120D01*
X54376838Y-98925317D01*
X54515910Y-99141441D01*
X54728110Y-99286431D01*
X54980000Y-99337440D01*
X56780000Y-99337440D01*
X57015317Y-99293162D01*
X57231441Y-99154090D01*
X57376431Y-98941890D01*
X57427440Y-98690000D01*
X57427440Y-96890000D01*
X57383162Y-96654683D01*
X57244090Y-96438559D01*
X57031890Y-96293569D01*
X56780000Y-96242560D01*
X54980000Y-96242560D01*
X54744683Y-96286838D01*
X54528559Y-96425910D01*
X54383569Y-96638110D01*
X54379433Y-96658534D01*
X54210643Y-96489449D01*
X53646670Y-96255267D01*
X53036009Y-96254735D01*
X52471629Y-96487932D01*
X52039449Y-96919357D01*
X51805267Y-97483330D01*
X51804735Y-98093991D01*
X50415000Y-98093991D01*
X50415000Y-93013991D01*
X51804735Y-93013991D01*
X52037932Y-93578371D01*
X52469357Y-94010551D01*
X53033330Y-94244733D01*
X53643991Y-94245265D01*
X54208371Y-94012068D01*
X54376613Y-93844120D01*
X54376838Y-93845317D01*
X54515910Y-94061441D01*
X54728110Y-94206431D01*
X54980000Y-94257440D01*
X56780000Y-94257440D01*
X57015317Y-94213162D01*
X57231441Y-94074090D01*
X57376431Y-93861890D01*
X57427440Y-93610000D01*
X57427440Y-91810000D01*
X57383162Y-91574683D01*
X57244090Y-91358559D01*
X57031890Y-91213569D01*
X56780000Y-91162560D01*
X54980000Y-91162560D01*
X54744683Y-91206838D01*
X54528559Y-91345910D01*
X54383569Y-91558110D01*
X54379433Y-91578534D01*
X54210643Y-91409449D01*
X53646670Y-91175267D01*
X53036009Y-91174735D01*
X52471629Y-91407932D01*
X52039449Y-91839357D01*
X51805267Y-92403330D01*
X51804735Y-93013991D01*
X50415000Y-93013991D01*
X50415000Y-87933991D01*
X51804735Y-87933991D01*
X52037932Y-88498371D01*
X52469357Y-88930551D01*
X53033330Y-89164733D01*
X53643991Y-89165265D01*
X54208371Y-88932068D01*
X54376613Y-88764120D01*
X54376838Y-88765317D01*
X54515910Y-88981441D01*
X54728110Y-89126431D01*
X54980000Y-89177440D01*
X56780000Y-89177440D01*
X57015317Y-89133162D01*
X57231441Y-88994090D01*
X57376431Y-88781890D01*
X57427440Y-88530000D01*
X57427440Y-86730000D01*
X57383162Y-86494683D01*
X57244090Y-86278559D01*
X57031890Y-86133569D01*
X56780000Y-86082560D01*
X54980000Y-86082560D01*
X54744683Y-86126838D01*
X54528559Y-86265910D01*
X54383569Y-86478110D01*
X54379433Y-86498534D01*
X54210643Y-86329449D01*
X53646670Y-86095267D01*
X53036009Y-86094735D01*
X52471629Y-86327932D01*
X52039449Y-86759357D01*
X51805267Y-87323330D01*
X51804735Y-87933991D01*
X50415000Y-87933991D01*
X50415000Y-81646580D01*
X52079692Y-79981887D01*
X53175000Y-79981887D01*
X53175000Y-80038113D01*
X53284233Y-80587264D01*
X53595302Y-81052811D01*
X54060849Y-81363880D01*
X54610000Y-81473113D01*
X55159151Y-81363880D01*
X55624698Y-81052811D01*
X55935767Y-80587264D01*
X56045000Y-80038113D01*
X56045000Y-79981887D01*
X55935767Y-79432736D01*
X55624698Y-78967189D01*
X55159151Y-78656120D01*
X54610000Y-78546887D01*
X54060849Y-78656120D01*
X53595302Y-78967189D01*
X53284233Y-79432736D01*
X53175000Y-79981887D01*
X52079692Y-79981887D01*
X62596579Y-69465000D01*
X64403420Y-69465000D01*
X65894291Y-70955870D01*
X65490849Y-71036120D01*
X65025302Y-71347189D01*
X64714233Y-71812736D01*
X64605000Y-72361887D01*
X64605000Y-72418113D01*
X64714233Y-72967264D01*
X65025302Y-73432811D01*
X65490849Y-73743880D01*
X66040000Y-73853113D01*
X66589151Y-73743880D01*
X67054698Y-73432811D01*
X67310000Y-73050725D01*
X67565302Y-73432811D01*
X68030849Y-73743880D01*
X68434291Y-73824130D01*
X68213420Y-74045000D01*
X60960000Y-74045000D01*
X60621325Y-74112367D01*
X60334210Y-74304210D01*
X60334208Y-74304213D01*
X57794210Y-76844210D01*
X57602367Y-77131325D01*
X57602367Y-77131326D01*
X57534999Y-77470000D01*
X57535000Y-77470005D01*
X57535000Y-122060527D01*
X57405302Y-122147189D01*
X57094233Y-122612736D01*
X56985000Y-123161887D01*
X56985000Y-123218113D01*
X57094233Y-123767264D01*
X57405302Y-124232811D01*
X57870849Y-124543880D01*
X58420000Y-124653113D01*
X58969151Y-124543880D01*
X59139691Y-124429928D01*
X130545000Y-124429928D01*
X130545000Y-124490072D01*
X130661845Y-125077491D01*
X130994591Y-125575481D01*
X131225845Y-125730000D01*
X130994591Y-125884519D01*
X130661845Y-126382509D01*
X130545000Y-126969928D01*
X130545000Y-127030072D01*
X130661845Y-127617491D01*
X130949583Y-128048122D01*
X130820301Y-128101673D01*
X130641673Y-128280302D01*
X130545000Y-128513691D01*
X130545000Y-129254250D01*
X130703750Y-129413000D01*
X131953000Y-129413000D01*
X131953000Y-129393000D01*
X132207000Y-129393000D01*
X132207000Y-129413000D01*
X133456250Y-129413000D01*
X133615000Y-129254250D01*
X133615000Y-128513691D01*
X133518327Y-128280302D01*
X133339699Y-128101673D01*
X133210417Y-128048122D01*
X133498155Y-127617491D01*
X133615000Y-127030072D01*
X133615000Y-126969928D01*
X133498155Y-126382509D01*
X133165409Y-125884519D01*
X132934155Y-125730000D01*
X133165409Y-125575481D01*
X133498155Y-125077491D01*
X133615000Y-124490072D01*
X133615000Y-124429928D01*
X133498155Y-123842509D01*
X133165409Y-123344519D01*
X132667419Y-123011773D01*
X132080000Y-122894928D01*
X131492581Y-123011773D01*
X130994591Y-123344519D01*
X130661845Y-123842509D01*
X130545000Y-124429928D01*
X59139691Y-124429928D01*
X59434698Y-124232811D01*
X59745767Y-123767264D01*
X59855000Y-123218113D01*
X59855000Y-123161887D01*
X59745767Y-122612736D01*
X59434698Y-122147189D01*
X59305000Y-122060527D01*
X59305000Y-114681000D01*
X81013560Y-114681000D01*
X81013560Y-116459000D01*
X81057838Y-116694317D01*
X81196910Y-116910441D01*
X81409110Y-117055431D01*
X81661000Y-117106440D01*
X81717998Y-117106440D01*
X81732367Y-117178675D01*
X81810812Y-117296077D01*
X81924210Y-117465790D01*
X83194208Y-118735787D01*
X83194210Y-118735790D01*
X83472595Y-118921800D01*
X83481325Y-118927633D01*
X83820000Y-118995001D01*
X83820005Y-118995000D01*
X118235829Y-118995000D01*
X118566077Y-119325824D01*
X119093309Y-119544750D01*
X119664187Y-119545248D01*
X120191800Y-119327243D01*
X120401663Y-119117745D01*
X123551861Y-119117745D01*
X123625995Y-119363864D01*
X124163223Y-119556965D01*
X124733454Y-119529778D01*
X125134005Y-119363864D01*
X125208139Y-119117745D01*
X124380000Y-118289605D01*
X123551861Y-119117745D01*
X120401663Y-119117745D01*
X120595824Y-118923923D01*
X120814750Y-118396691D01*
X120815189Y-117893223D01*
X122933035Y-117893223D01*
X122960222Y-118463454D01*
X123126136Y-118864005D01*
X123372255Y-118938139D01*
X124200395Y-118110000D01*
X124559605Y-118110000D01*
X125387745Y-118938139D01*
X125633864Y-118864005D01*
X125826965Y-118326777D01*
X125799778Y-117756546D01*
X125633864Y-117355995D01*
X125387745Y-117281861D01*
X124559605Y-118110000D01*
X124200395Y-118110000D01*
X123372255Y-117281861D01*
X123126136Y-117355995D01*
X122933035Y-117893223D01*
X120815189Y-117893223D01*
X120815248Y-117825813D01*
X120597243Y-117298200D01*
X120401640Y-117102255D01*
X123551861Y-117102255D01*
X124380000Y-117930395D01*
X125208139Y-117102255D01*
X125134005Y-116856136D01*
X124596777Y-116663035D01*
X124026546Y-116690222D01*
X123625995Y-116856136D01*
X123551861Y-117102255D01*
X120401640Y-117102255D01*
X120193923Y-116894176D01*
X119666691Y-116675250D01*
X119095813Y-116674752D01*
X118568200Y-116892757D01*
X118235377Y-117225000D01*
X84186579Y-117225000D01*
X83886929Y-116925350D01*
X83890441Y-116923090D01*
X84035431Y-116710890D01*
X84042191Y-116677506D01*
X84225596Y-116861231D01*
X84785528Y-117093735D01*
X85391812Y-117094264D01*
X85952149Y-116862738D01*
X86360336Y-116455263D01*
X86765596Y-116861231D01*
X87325528Y-117093735D01*
X87931812Y-117094264D01*
X88492149Y-116862738D01*
X88900336Y-116455263D01*
X89305596Y-116861231D01*
X89865528Y-117093735D01*
X90471812Y-117094264D01*
X91032149Y-116862738D01*
X91440336Y-116455263D01*
X91845596Y-116861231D01*
X92405528Y-117093735D01*
X93011812Y-117094264D01*
X93572149Y-116862738D01*
X93980336Y-116455263D01*
X94385596Y-116861231D01*
X94945528Y-117093735D01*
X95551812Y-117094264D01*
X96112149Y-116862738D01*
X96520336Y-116455263D01*
X96925596Y-116861231D01*
X97485528Y-117093735D01*
X98091812Y-117094264D01*
X98652149Y-116862738D01*
X99060336Y-116455263D01*
X99465596Y-116861231D01*
X100025528Y-117093735D01*
X100631812Y-117094264D01*
X101192149Y-116862738D01*
X101600336Y-116455263D01*
X102005596Y-116861231D01*
X102565528Y-117093735D01*
X103171812Y-117094264D01*
X103732149Y-116862738D01*
X104140336Y-116455263D01*
X104545596Y-116861231D01*
X105105528Y-117093735D01*
X105711812Y-117094264D01*
X106272149Y-116862738D01*
X106680336Y-116455263D01*
X107085596Y-116861231D01*
X107645528Y-117093735D01*
X108251812Y-117094264D01*
X108812149Y-116862738D01*
X109220336Y-116455263D01*
X109625596Y-116861231D01*
X110185528Y-117093735D01*
X110791812Y-117094264D01*
X111352149Y-116862738D01*
X111781231Y-116434404D01*
X112013735Y-115874472D01*
X112014264Y-115268188D01*
X111782738Y-114707851D01*
X111354404Y-114278769D01*
X110794472Y-114046265D01*
X110188188Y-114045736D01*
X109627851Y-114277262D01*
X109219664Y-114684737D01*
X108814404Y-114278769D01*
X108254472Y-114046265D01*
X107648188Y-114045736D01*
X107087851Y-114277262D01*
X106679664Y-114684737D01*
X106274404Y-114278769D01*
X105714472Y-114046265D01*
X105108188Y-114045736D01*
X104547851Y-114277262D01*
X104139664Y-114684737D01*
X103734404Y-114278769D01*
X103174472Y-114046265D01*
X102568188Y-114045736D01*
X102007851Y-114277262D01*
X101599664Y-114684737D01*
X101194404Y-114278769D01*
X100634472Y-114046265D01*
X100028188Y-114045736D01*
X99467851Y-114277262D01*
X99059664Y-114684737D01*
X98654404Y-114278769D01*
X98094472Y-114046265D01*
X97488188Y-114045736D01*
X96927851Y-114277262D01*
X96519664Y-114684737D01*
X96114404Y-114278769D01*
X95554472Y-114046265D01*
X94948188Y-114045736D01*
X94387851Y-114277262D01*
X93979664Y-114684737D01*
X93574404Y-114278769D01*
X93014472Y-114046265D01*
X92408188Y-114045736D01*
X91847851Y-114277262D01*
X91439664Y-114684737D01*
X91034404Y-114278769D01*
X90474472Y-114046265D01*
X89868188Y-114045736D01*
X89307851Y-114277262D01*
X88899664Y-114684737D01*
X88494404Y-114278769D01*
X87934472Y-114046265D01*
X87328188Y-114045736D01*
X86767851Y-114277262D01*
X86359664Y-114684737D01*
X85954404Y-114278769D01*
X85394472Y-114046265D01*
X84788188Y-114045736D01*
X84227851Y-114277262D01*
X84044846Y-114459948D01*
X84042162Y-114445683D01*
X83903090Y-114229559D01*
X83690890Y-114084569D01*
X83439000Y-114033560D01*
X81661000Y-114033560D01*
X81425683Y-114077838D01*
X81209559Y-114216910D01*
X81064569Y-114429110D01*
X81013560Y-114681000D01*
X59305000Y-114681000D01*
X59305000Y-102870000D01*
X60766887Y-102870000D01*
X60876120Y-103419151D01*
X61187189Y-103884698D01*
X61652736Y-104195767D01*
X62201887Y-104305000D01*
X62258113Y-104305000D01*
X62807264Y-104195767D01*
X63272811Y-103884698D01*
X63583880Y-103419151D01*
X63636584Y-103154187D01*
X70954752Y-103154187D01*
X71172757Y-103681800D01*
X71576077Y-104085824D01*
X72103309Y-104304750D01*
X72674187Y-104305248D01*
X73201800Y-104087243D01*
X73605824Y-103683923D01*
X73824750Y-103156691D01*
X73825248Y-102585813D01*
X73607243Y-102058200D01*
X73203923Y-101654176D01*
X72676691Y-101435250D01*
X72105813Y-101434752D01*
X71578200Y-101652757D01*
X71174176Y-102056077D01*
X70955250Y-102583309D01*
X70954752Y-103154187D01*
X63636584Y-103154187D01*
X63693113Y-102870000D01*
X63583880Y-102320849D01*
X63272811Y-101855302D01*
X62807264Y-101544233D01*
X62258113Y-101435000D01*
X62201887Y-101435000D01*
X61652736Y-101544233D01*
X61187189Y-101855302D01*
X60876120Y-102320849D01*
X60766887Y-102870000D01*
X59305000Y-102870000D01*
X59305000Y-97790000D01*
X60766887Y-97790000D01*
X60876120Y-98339151D01*
X61187189Y-98804698D01*
X61652736Y-99115767D01*
X62201887Y-99225000D01*
X62258113Y-99225000D01*
X62807264Y-99115767D01*
X63272811Y-98804698D01*
X63583880Y-98339151D01*
X63636584Y-98074187D01*
X70954752Y-98074187D01*
X71172757Y-98601800D01*
X71576077Y-99005824D01*
X72103309Y-99224750D01*
X72674187Y-99225248D01*
X73201800Y-99007243D01*
X73605824Y-98603923D01*
X73824750Y-98076691D01*
X73825248Y-97505813D01*
X73607243Y-96978200D01*
X73203923Y-96574176D01*
X72676691Y-96355250D01*
X72105813Y-96354752D01*
X71578200Y-96572757D01*
X71174176Y-96976077D01*
X70955250Y-97503309D01*
X70954752Y-98074187D01*
X63636584Y-98074187D01*
X63693113Y-97790000D01*
X63583880Y-97240849D01*
X63272811Y-96775302D01*
X62807264Y-96464233D01*
X62258113Y-96355000D01*
X62201887Y-96355000D01*
X61652736Y-96464233D01*
X61187189Y-96775302D01*
X60876120Y-97240849D01*
X60766887Y-97790000D01*
X59305000Y-97790000D01*
X59305000Y-92710000D01*
X60766887Y-92710000D01*
X60876120Y-93259151D01*
X61187189Y-93724698D01*
X61652736Y-94035767D01*
X62201887Y-94145000D01*
X62258113Y-94145000D01*
X62807264Y-94035767D01*
X63272811Y-93724698D01*
X63583880Y-93259151D01*
X63636584Y-92994187D01*
X70954752Y-92994187D01*
X71172757Y-93521800D01*
X71576077Y-93925824D01*
X72103309Y-94144750D01*
X72674187Y-94145248D01*
X73201800Y-93927243D01*
X73605824Y-93523923D01*
X73824750Y-92996691D01*
X73825248Y-92425813D01*
X73607243Y-91898200D01*
X73203923Y-91494176D01*
X72676691Y-91275250D01*
X72105813Y-91274752D01*
X71578200Y-91492757D01*
X71174176Y-91896077D01*
X70955250Y-92423309D01*
X70954752Y-92994187D01*
X63636584Y-92994187D01*
X63693113Y-92710000D01*
X63583880Y-92160849D01*
X63272811Y-91695302D01*
X62807264Y-91384233D01*
X62258113Y-91275000D01*
X62201887Y-91275000D01*
X61652736Y-91384233D01*
X61187189Y-91695302D01*
X60876120Y-92160849D01*
X60766887Y-92710000D01*
X59305000Y-92710000D01*
X59305000Y-87630000D01*
X60766887Y-87630000D01*
X60876120Y-88179151D01*
X61187189Y-88644698D01*
X61652736Y-88955767D01*
X62201887Y-89065000D01*
X62258113Y-89065000D01*
X62807264Y-88955767D01*
X63272811Y-88644698D01*
X63583880Y-88179151D01*
X63636584Y-87914187D01*
X70954752Y-87914187D01*
X71172757Y-88441800D01*
X71576077Y-88845824D01*
X72103309Y-89064750D01*
X72674187Y-89065248D01*
X73201800Y-88847243D01*
X73605824Y-88443923D01*
X73824750Y-87916691D01*
X73825000Y-87630000D01*
X76006887Y-87630000D01*
X76116120Y-88179151D01*
X76427189Y-88644698D01*
X76809275Y-88900000D01*
X76427189Y-89155302D01*
X76116120Y-89620849D01*
X76006887Y-90170000D01*
X76116120Y-90719151D01*
X76427189Y-91184698D01*
X76809275Y-91440000D01*
X76427189Y-91695302D01*
X76116120Y-92160849D01*
X76006887Y-92710000D01*
X76116120Y-93259151D01*
X76427189Y-93724698D01*
X76809275Y-93980000D01*
X76427189Y-94235302D01*
X76116120Y-94700849D01*
X76006887Y-95250000D01*
X76116120Y-95799151D01*
X76427189Y-96264698D01*
X76809275Y-96520000D01*
X76427189Y-96775302D01*
X76116120Y-97240849D01*
X76006887Y-97790000D01*
X76116120Y-98339151D01*
X76427189Y-98804698D01*
X76809275Y-99060000D01*
X76427189Y-99315302D01*
X76116120Y-99780849D01*
X76006887Y-100330000D01*
X76116120Y-100879151D01*
X76427189Y-101344698D01*
X76809275Y-101600000D01*
X76427189Y-101855302D01*
X76116120Y-102320849D01*
X76006887Y-102870000D01*
X76116120Y-103419151D01*
X76427189Y-103884698D01*
X76809275Y-104140000D01*
X76427189Y-104395302D01*
X76116120Y-104860849D01*
X76006887Y-105410000D01*
X76116120Y-105959151D01*
X76427189Y-106424698D01*
X76892736Y-106735767D01*
X77441887Y-106845000D01*
X77498113Y-106845000D01*
X78047264Y-106735767D01*
X78512811Y-106424698D01*
X78823880Y-105959151D01*
X78863684Y-105759039D01*
X83698096Y-105759039D01*
X83858959Y-106147423D01*
X84234866Y-106562389D01*
X84740959Y-106801914D01*
X84963000Y-106680629D01*
X84963000Y-105537000D01*
X85217000Y-105537000D01*
X85217000Y-106680629D01*
X85439041Y-106801914D01*
X85945134Y-106562389D01*
X86321041Y-106147423D01*
X86481904Y-105759039D01*
X86359915Y-105537000D01*
X85217000Y-105537000D01*
X84963000Y-105537000D01*
X83820085Y-105537000D01*
X83698096Y-105759039D01*
X78863684Y-105759039D01*
X78933113Y-105410000D01*
X92516887Y-105410000D01*
X92626120Y-105959151D01*
X92937189Y-106424698D01*
X93402736Y-106735767D01*
X93951887Y-106845000D01*
X94008113Y-106845000D01*
X94557264Y-106735767D01*
X95022811Y-106424698D01*
X95333880Y-105959151D01*
X95443113Y-105410000D01*
X95333880Y-104860849D01*
X95022811Y-104395302D01*
X94618297Y-104125014D01*
X94835134Y-104022389D01*
X95211041Y-103607423D01*
X95371904Y-103219039D01*
X95249915Y-102997000D01*
X94107000Y-102997000D01*
X94107000Y-103017000D01*
X93853000Y-103017000D01*
X93853000Y-102997000D01*
X92710085Y-102997000D01*
X92588096Y-103219039D01*
X92748959Y-103607423D01*
X93124866Y-104022389D01*
X93341703Y-104125014D01*
X92937189Y-104395302D01*
X92626120Y-104860849D01*
X92516887Y-105410000D01*
X78933113Y-105410000D01*
X78823880Y-104860849D01*
X78512811Y-104395302D01*
X78130725Y-104140000D01*
X78512811Y-103884698D01*
X78823880Y-103419151D01*
X78933113Y-102870000D01*
X83626887Y-102870000D01*
X83736120Y-103419151D01*
X84047189Y-103884698D01*
X84451703Y-104154986D01*
X84234866Y-104257611D01*
X83858959Y-104672577D01*
X83698096Y-105060961D01*
X83820085Y-105283000D01*
X84963000Y-105283000D01*
X84963000Y-105263000D01*
X85217000Y-105263000D01*
X85217000Y-105283000D01*
X86359915Y-105283000D01*
X86481904Y-105060961D01*
X86321041Y-104672577D01*
X85945134Y-104257611D01*
X85728297Y-104154986D01*
X86132811Y-103884698D01*
X86443880Y-103419151D01*
X86553113Y-102870000D01*
X86443880Y-102320849D01*
X86132811Y-101855302D01*
X85728297Y-101585014D01*
X85945134Y-101482389D01*
X86321041Y-101067423D01*
X86481904Y-100679039D01*
X86359915Y-100457000D01*
X85217000Y-100457000D01*
X85217000Y-100477000D01*
X84963000Y-100477000D01*
X84963000Y-100457000D01*
X83820085Y-100457000D01*
X83698096Y-100679039D01*
X83858959Y-101067423D01*
X84234866Y-101482389D01*
X84451703Y-101585014D01*
X84047189Y-101855302D01*
X83736120Y-102320849D01*
X83626887Y-102870000D01*
X78933113Y-102870000D01*
X78823880Y-102320849D01*
X78512811Y-101855302D01*
X78130725Y-101600000D01*
X78512811Y-101344698D01*
X78823880Y-100879151D01*
X78933113Y-100330000D01*
X92516887Y-100330000D01*
X92626120Y-100879151D01*
X92937189Y-101344698D01*
X93341703Y-101614986D01*
X93124866Y-101717611D01*
X92748959Y-102132577D01*
X92588096Y-102520961D01*
X92710085Y-102743000D01*
X93853000Y-102743000D01*
X93853000Y-102723000D01*
X94107000Y-102723000D01*
X94107000Y-102743000D01*
X95249915Y-102743000D01*
X95371904Y-102520961D01*
X95211041Y-102132577D01*
X94835134Y-101717611D01*
X94618297Y-101614986D01*
X95022811Y-101344698D01*
X95333880Y-100879151D01*
X95443113Y-100330000D01*
X95333880Y-99780849D01*
X95022811Y-99315302D01*
X94618297Y-99045014D01*
X94835134Y-98942389D01*
X95211041Y-98527423D01*
X95371904Y-98139039D01*
X95249915Y-97917000D01*
X94107000Y-97917000D01*
X94107000Y-97937000D01*
X93853000Y-97937000D01*
X93853000Y-97917000D01*
X92710085Y-97917000D01*
X92588096Y-98139039D01*
X92748959Y-98527423D01*
X93124866Y-98942389D01*
X93341703Y-99045014D01*
X92937189Y-99315302D01*
X92626120Y-99780849D01*
X92516887Y-100330000D01*
X78933113Y-100330000D01*
X78823880Y-99780849D01*
X78512811Y-99315302D01*
X78130725Y-99060000D01*
X78512811Y-98804698D01*
X78823880Y-98339151D01*
X78933113Y-97790000D01*
X83626887Y-97790000D01*
X83736120Y-98339151D01*
X84047189Y-98804698D01*
X84451703Y-99074986D01*
X84234866Y-99177611D01*
X83858959Y-99592577D01*
X83698096Y-99980961D01*
X83820085Y-100203000D01*
X84963000Y-100203000D01*
X84963000Y-100183000D01*
X85217000Y-100183000D01*
X85217000Y-100203000D01*
X86359915Y-100203000D01*
X86481904Y-99980961D01*
X86321041Y-99592577D01*
X85945134Y-99177611D01*
X85728297Y-99074986D01*
X86132811Y-98804698D01*
X86443880Y-98339151D01*
X86553113Y-97790000D01*
X86443880Y-97240849D01*
X86132811Y-96775302D01*
X85728297Y-96505014D01*
X85945134Y-96402389D01*
X86321041Y-95987423D01*
X86481904Y-95599039D01*
X86359915Y-95377000D01*
X85217000Y-95377000D01*
X85217000Y-95397000D01*
X84963000Y-95397000D01*
X84963000Y-95377000D01*
X83820085Y-95377000D01*
X83698096Y-95599039D01*
X83858959Y-95987423D01*
X84234866Y-96402389D01*
X84451703Y-96505014D01*
X84047189Y-96775302D01*
X83736120Y-97240849D01*
X83626887Y-97790000D01*
X78933113Y-97790000D01*
X78823880Y-97240849D01*
X78512811Y-96775302D01*
X78130725Y-96520000D01*
X78512811Y-96264698D01*
X78823880Y-95799151D01*
X78933113Y-95250000D01*
X92516887Y-95250000D01*
X92626120Y-95799151D01*
X92937189Y-96264698D01*
X93341703Y-96534986D01*
X93124866Y-96637611D01*
X92748959Y-97052577D01*
X92588096Y-97440961D01*
X92710085Y-97663000D01*
X93853000Y-97663000D01*
X93853000Y-97643000D01*
X94107000Y-97643000D01*
X94107000Y-97663000D01*
X95249915Y-97663000D01*
X95371904Y-97440961D01*
X95211041Y-97052577D01*
X94835134Y-96637611D01*
X94618297Y-96534986D01*
X95022811Y-96264698D01*
X95333880Y-95799151D01*
X95443113Y-95250000D01*
X95333880Y-94700849D01*
X95022811Y-94235302D01*
X94618297Y-93965014D01*
X94835134Y-93862389D01*
X95211041Y-93447423D01*
X95371904Y-93059039D01*
X95249915Y-92837000D01*
X94107000Y-92837000D01*
X94107000Y-92857000D01*
X93853000Y-92857000D01*
X93853000Y-92837000D01*
X92710085Y-92837000D01*
X92588096Y-93059039D01*
X92748959Y-93447423D01*
X93124866Y-93862389D01*
X93341703Y-93965014D01*
X92937189Y-94235302D01*
X92626120Y-94700849D01*
X92516887Y-95250000D01*
X78933113Y-95250000D01*
X78823880Y-94700849D01*
X78512811Y-94235302D01*
X78130725Y-93980000D01*
X78512811Y-93724698D01*
X78823880Y-93259151D01*
X78933113Y-92710000D01*
X83626887Y-92710000D01*
X83736120Y-93259151D01*
X84047189Y-93724698D01*
X84451703Y-93994986D01*
X84234866Y-94097611D01*
X83858959Y-94512577D01*
X83698096Y-94900961D01*
X83820085Y-95123000D01*
X84963000Y-95123000D01*
X84963000Y-95103000D01*
X85217000Y-95103000D01*
X85217000Y-95123000D01*
X86359915Y-95123000D01*
X86481904Y-94900961D01*
X86321041Y-94512577D01*
X85945134Y-94097611D01*
X85728297Y-93994986D01*
X86132811Y-93724698D01*
X86443880Y-93259151D01*
X86553113Y-92710000D01*
X86443880Y-92160849D01*
X86132811Y-91695302D01*
X85728297Y-91425014D01*
X85945134Y-91322389D01*
X86321041Y-90907423D01*
X86481904Y-90519039D01*
X86359915Y-90297000D01*
X85217000Y-90297000D01*
X85217000Y-90317000D01*
X84963000Y-90317000D01*
X84963000Y-90297000D01*
X83820085Y-90297000D01*
X83698096Y-90519039D01*
X83858959Y-90907423D01*
X84234866Y-91322389D01*
X84451703Y-91425014D01*
X84047189Y-91695302D01*
X83736120Y-92160849D01*
X83626887Y-92710000D01*
X78933113Y-92710000D01*
X78823880Y-92160849D01*
X78512811Y-91695302D01*
X78130725Y-91440000D01*
X78512811Y-91184698D01*
X78823880Y-90719151D01*
X78933113Y-90170000D01*
X92516887Y-90170000D01*
X92626120Y-90719151D01*
X92937189Y-91184698D01*
X93341703Y-91454986D01*
X93124866Y-91557611D01*
X92748959Y-91972577D01*
X92588096Y-92360961D01*
X92710085Y-92583000D01*
X93853000Y-92583000D01*
X93853000Y-92563000D01*
X94107000Y-92563000D01*
X94107000Y-92583000D01*
X95249915Y-92583000D01*
X95371904Y-92360961D01*
X95211041Y-91972577D01*
X94835134Y-91557611D01*
X94618297Y-91454986D01*
X95022811Y-91184698D01*
X95333880Y-90719151D01*
X95443113Y-90170000D01*
X95333880Y-89620849D01*
X95022811Y-89155302D01*
X94618297Y-88885014D01*
X94835134Y-88782389D01*
X95211041Y-88367423D01*
X95371904Y-87979039D01*
X95249915Y-87757000D01*
X94107000Y-87757000D01*
X94107000Y-87777000D01*
X93853000Y-87777000D01*
X93853000Y-87757000D01*
X92710085Y-87757000D01*
X92588096Y-87979039D01*
X92748959Y-88367423D01*
X93124866Y-88782389D01*
X93341703Y-88885014D01*
X92937189Y-89155302D01*
X92626120Y-89620849D01*
X92516887Y-90170000D01*
X78933113Y-90170000D01*
X78823880Y-89620849D01*
X78512811Y-89155302D01*
X78130725Y-88900000D01*
X78512811Y-88644698D01*
X78823880Y-88179151D01*
X78933113Y-87630000D01*
X83626887Y-87630000D01*
X83736120Y-88179151D01*
X84047189Y-88644698D01*
X84451703Y-88914986D01*
X84234866Y-89017611D01*
X83858959Y-89432577D01*
X83698096Y-89820961D01*
X83820085Y-90043000D01*
X84963000Y-90043000D01*
X84963000Y-90023000D01*
X85217000Y-90023000D01*
X85217000Y-90043000D01*
X86359915Y-90043000D01*
X86481904Y-89820961D01*
X86321041Y-89432577D01*
X85945134Y-89017611D01*
X85728297Y-88914986D01*
X86132811Y-88644698D01*
X86443880Y-88179151D01*
X86553113Y-87630000D01*
X100136887Y-87630000D01*
X100246120Y-88179151D01*
X100557189Y-88644698D01*
X100939275Y-88900000D01*
X100557189Y-89155302D01*
X100246120Y-89620849D01*
X100136887Y-90170000D01*
X100246120Y-90719151D01*
X100557189Y-91184698D01*
X100939275Y-91440000D01*
X100557189Y-91695302D01*
X100246120Y-92160849D01*
X100136887Y-92710000D01*
X100246120Y-93259151D01*
X100557189Y-93724698D01*
X100939275Y-93980000D01*
X100557189Y-94235302D01*
X100246120Y-94700849D01*
X100136887Y-95250000D01*
X100246120Y-95799151D01*
X100557189Y-96264698D01*
X100939275Y-96520000D01*
X100557189Y-96775302D01*
X100246120Y-97240849D01*
X100136887Y-97790000D01*
X100246120Y-98339151D01*
X100557189Y-98804698D01*
X100939275Y-99060000D01*
X100557189Y-99315302D01*
X100246120Y-99780849D01*
X100136887Y-100330000D01*
X100246120Y-100879151D01*
X100557189Y-101344698D01*
X100939275Y-101600000D01*
X100557189Y-101855302D01*
X100246120Y-102320849D01*
X100136887Y-102870000D01*
X100246120Y-103419151D01*
X100557189Y-103884698D01*
X100939275Y-104140000D01*
X100557189Y-104395302D01*
X100246120Y-104860849D01*
X100136887Y-105410000D01*
X100246120Y-105959151D01*
X100557189Y-106424698D01*
X101022736Y-106735767D01*
X101571887Y-106845000D01*
X101628113Y-106845000D01*
X102177264Y-106735767D01*
X102642811Y-106424698D01*
X102953880Y-105959151D01*
X103006584Y-105694187D01*
X105244752Y-105694187D01*
X105462757Y-106221800D01*
X105866077Y-106625824D01*
X106393309Y-106844750D01*
X106964187Y-106845248D01*
X107491800Y-106627243D01*
X107895824Y-106223923D01*
X108114750Y-105696691D01*
X108115000Y-105410000D01*
X115376887Y-105410000D01*
X115486120Y-105959151D01*
X115797189Y-106424698D01*
X116262736Y-106735767D01*
X116811887Y-106845000D01*
X116868113Y-106845000D01*
X117417264Y-106735767D01*
X117882811Y-106424698D01*
X118193880Y-105959151D01*
X118303113Y-105410000D01*
X118193880Y-104860849D01*
X117959450Y-104510000D01*
X121642560Y-104510000D01*
X121642560Y-106310000D01*
X121686838Y-106545317D01*
X121825910Y-106761441D01*
X122038110Y-106906431D01*
X122290000Y-106957440D01*
X124090000Y-106957440D01*
X124325317Y-106913162D01*
X124541441Y-106774090D01*
X124686431Y-106561890D01*
X124690567Y-106541466D01*
X124859357Y-106710551D01*
X125423330Y-106944733D01*
X126033991Y-106945265D01*
X126598371Y-106712068D01*
X127030551Y-106280643D01*
X127264733Y-105716670D01*
X127265265Y-105106009D01*
X127032068Y-104541629D01*
X126901179Y-104410510D01*
X132973070Y-104410510D01*
X132973070Y-106409490D01*
X133017348Y-106644807D01*
X133156420Y-106860931D01*
X133368620Y-107005921D01*
X133620510Y-107056930D01*
X135619490Y-107056930D01*
X135854807Y-107012652D01*
X136070931Y-106873580D01*
X136215921Y-106661380D01*
X136266930Y-106409490D01*
X136266930Y-104410510D01*
X136222652Y-104175193D01*
X136083580Y-103959069D01*
X135917527Y-103845610D01*
X136130072Y-103527514D01*
X136254490Y-102902022D01*
X136254490Y-102837978D01*
X136130072Y-102212486D01*
X135775759Y-101682219D01*
X135652710Y-101600000D01*
X135775759Y-101517781D01*
X136130072Y-100987514D01*
X136254490Y-100362022D01*
X136254490Y-100297978D01*
X136130072Y-99672486D01*
X135775759Y-99142219D01*
X135652710Y-99060000D01*
X135775759Y-98977781D01*
X136130072Y-98447514D01*
X136254490Y-97822022D01*
X136254490Y-97757978D01*
X136130072Y-97132486D01*
X135775759Y-96602219D01*
X135652710Y-96520000D01*
X135775759Y-96437781D01*
X136130072Y-95907514D01*
X136254490Y-95282022D01*
X136254490Y-95217978D01*
X136130072Y-94592486D01*
X135775759Y-94062219D01*
X135652710Y-93980000D01*
X135775759Y-93897781D01*
X136130072Y-93367514D01*
X136254490Y-92742022D01*
X136254490Y-92677978D01*
X136130072Y-92052486D01*
X135775759Y-91522219D01*
X135652710Y-91440000D01*
X135775759Y-91357781D01*
X136130072Y-90827514D01*
X136254490Y-90202022D01*
X136254490Y-90137978D01*
X136130072Y-89512486D01*
X135775759Y-88982219D01*
X135652710Y-88900000D01*
X135775759Y-88817781D01*
X136130072Y-88287514D01*
X136254490Y-87662022D01*
X136254490Y-87597978D01*
X136130072Y-86972486D01*
X135775759Y-86442219D01*
X135245492Y-86087906D01*
X134620000Y-85963488D01*
X133994508Y-86087906D01*
X133464241Y-86442219D01*
X133109928Y-86972486D01*
X132985510Y-87597978D01*
X132985510Y-87662022D01*
X133109928Y-88287514D01*
X133464241Y-88817781D01*
X133587290Y-88900000D01*
X133464241Y-88982219D01*
X133109928Y-89512486D01*
X132985510Y-90137978D01*
X132985510Y-90202022D01*
X133109928Y-90827514D01*
X133464241Y-91357781D01*
X133587290Y-91440000D01*
X133464241Y-91522219D01*
X133109928Y-92052486D01*
X132985510Y-92677978D01*
X132985510Y-92742022D01*
X133109928Y-93367514D01*
X133464241Y-93897781D01*
X133587290Y-93980000D01*
X133464241Y-94062219D01*
X133109928Y-94592486D01*
X132985510Y-95217978D01*
X132985510Y-95282022D01*
X133109928Y-95907514D01*
X133464241Y-96437781D01*
X133587290Y-96520000D01*
X133464241Y-96602219D01*
X133109928Y-97132486D01*
X132985510Y-97757978D01*
X132985510Y-97822022D01*
X133109928Y-98447514D01*
X133464241Y-98977781D01*
X133587290Y-99060000D01*
X133464241Y-99142219D01*
X133109928Y-99672486D01*
X132985510Y-100297978D01*
X132985510Y-100362022D01*
X133109928Y-100987514D01*
X133464241Y-101517781D01*
X133587290Y-101600000D01*
X133464241Y-101682219D01*
X133109928Y-102212486D01*
X132985510Y-102837978D01*
X132985510Y-102902022D01*
X133109928Y-103527514D01*
X133323453Y-103847077D01*
X133169069Y-103946420D01*
X133024079Y-104158620D01*
X132973070Y-104410510D01*
X126901179Y-104410510D01*
X126600643Y-104109449D01*
X126036670Y-103875267D01*
X125426009Y-103874735D01*
X124861629Y-104107932D01*
X124693387Y-104275880D01*
X124693162Y-104274683D01*
X124554090Y-104058559D01*
X124341890Y-103913569D01*
X124090000Y-103862560D01*
X122290000Y-103862560D01*
X122054683Y-103906838D01*
X121838559Y-104045910D01*
X121693569Y-104258110D01*
X121642560Y-104510000D01*
X117959450Y-104510000D01*
X117882811Y-104395302D01*
X117417264Y-104084233D01*
X116868113Y-103975000D01*
X116811887Y-103975000D01*
X116262736Y-104084233D01*
X115797189Y-104395302D01*
X115486120Y-104860849D01*
X115376887Y-105410000D01*
X108115000Y-105410000D01*
X108115248Y-105125813D01*
X107897243Y-104598200D01*
X107493923Y-104194176D01*
X106966691Y-103975250D01*
X106395813Y-103974752D01*
X105868200Y-104192757D01*
X105464176Y-104596077D01*
X105245250Y-105123309D01*
X105244752Y-105694187D01*
X103006584Y-105694187D01*
X103063113Y-105410000D01*
X102953880Y-104860849D01*
X102642811Y-104395302D01*
X102260725Y-104140000D01*
X102642811Y-103884698D01*
X102953880Y-103419151D01*
X103063113Y-102870000D01*
X102953880Y-102320849D01*
X102642811Y-101855302D01*
X102260725Y-101600000D01*
X102642811Y-101344698D01*
X102953880Y-100879151D01*
X103006584Y-100614187D01*
X105244752Y-100614187D01*
X105462757Y-101141800D01*
X105866077Y-101545824D01*
X106393309Y-101764750D01*
X106964187Y-101765248D01*
X107491800Y-101547243D01*
X107895824Y-101143923D01*
X108114750Y-100616691D01*
X108115000Y-100330000D01*
X115376887Y-100330000D01*
X115486120Y-100879151D01*
X115797189Y-101344698D01*
X116262736Y-101655767D01*
X116811887Y-101765000D01*
X116868113Y-101765000D01*
X117417264Y-101655767D01*
X117882811Y-101344698D01*
X118193880Y-100879151D01*
X118303113Y-100330000D01*
X118193880Y-99780849D01*
X117959450Y-99430000D01*
X121642560Y-99430000D01*
X121642560Y-101230000D01*
X121686838Y-101465317D01*
X121825910Y-101681441D01*
X122038110Y-101826431D01*
X122290000Y-101877440D01*
X124090000Y-101877440D01*
X124325317Y-101833162D01*
X124541441Y-101694090D01*
X124686431Y-101481890D01*
X124690567Y-101461466D01*
X124859357Y-101630551D01*
X125423330Y-101864733D01*
X126033991Y-101865265D01*
X126598371Y-101632068D01*
X127030551Y-101200643D01*
X127264733Y-100636670D01*
X127265265Y-100026009D01*
X127032068Y-99461629D01*
X126600643Y-99029449D01*
X126036670Y-98795267D01*
X125426009Y-98794735D01*
X124861629Y-99027932D01*
X124693387Y-99195880D01*
X124693162Y-99194683D01*
X124554090Y-98978559D01*
X124341890Y-98833569D01*
X124090000Y-98782560D01*
X122290000Y-98782560D01*
X122054683Y-98826838D01*
X121838559Y-98965910D01*
X121693569Y-99178110D01*
X121642560Y-99430000D01*
X117959450Y-99430000D01*
X117882811Y-99315302D01*
X117417264Y-99004233D01*
X116868113Y-98895000D01*
X116811887Y-98895000D01*
X116262736Y-99004233D01*
X115797189Y-99315302D01*
X115486120Y-99780849D01*
X115376887Y-100330000D01*
X108115000Y-100330000D01*
X108115248Y-100045813D01*
X107897243Y-99518200D01*
X107493923Y-99114176D01*
X106966691Y-98895250D01*
X106395813Y-98894752D01*
X105868200Y-99112757D01*
X105464176Y-99516077D01*
X105245250Y-100043309D01*
X105244752Y-100614187D01*
X103006584Y-100614187D01*
X103063113Y-100330000D01*
X102953880Y-99780849D01*
X102642811Y-99315302D01*
X102260725Y-99060000D01*
X102642811Y-98804698D01*
X102953880Y-98339151D01*
X103063113Y-97790000D01*
X102953880Y-97240849D01*
X102642811Y-96775302D01*
X102260725Y-96520000D01*
X102642811Y-96264698D01*
X102953880Y-95799151D01*
X103006584Y-95534187D01*
X105244752Y-95534187D01*
X105462757Y-96061800D01*
X105866077Y-96465824D01*
X106393309Y-96684750D01*
X106964187Y-96685248D01*
X107491800Y-96467243D01*
X107895824Y-96063923D01*
X108114750Y-95536691D01*
X108115000Y-95250000D01*
X115376887Y-95250000D01*
X115486120Y-95799151D01*
X115797189Y-96264698D01*
X116262736Y-96575767D01*
X116811887Y-96685000D01*
X116868113Y-96685000D01*
X117417264Y-96575767D01*
X117882811Y-96264698D01*
X118193880Y-95799151D01*
X118303113Y-95250000D01*
X118193880Y-94700849D01*
X117959450Y-94350000D01*
X121642560Y-94350000D01*
X121642560Y-96150000D01*
X121686838Y-96385317D01*
X121825910Y-96601441D01*
X122038110Y-96746431D01*
X122290000Y-96797440D01*
X124090000Y-96797440D01*
X124325317Y-96753162D01*
X124541441Y-96614090D01*
X124686431Y-96401890D01*
X124690567Y-96381466D01*
X124859357Y-96550551D01*
X125423330Y-96784733D01*
X126033991Y-96785265D01*
X126598371Y-96552068D01*
X127030551Y-96120643D01*
X127264733Y-95556670D01*
X127265265Y-94946009D01*
X127032068Y-94381629D01*
X126600643Y-93949449D01*
X126036670Y-93715267D01*
X125426009Y-93714735D01*
X124861629Y-93947932D01*
X124693387Y-94115880D01*
X124693162Y-94114683D01*
X124554090Y-93898559D01*
X124341890Y-93753569D01*
X124090000Y-93702560D01*
X122290000Y-93702560D01*
X122054683Y-93746838D01*
X121838559Y-93885910D01*
X121693569Y-94098110D01*
X121642560Y-94350000D01*
X117959450Y-94350000D01*
X117882811Y-94235302D01*
X117417264Y-93924233D01*
X116868113Y-93815000D01*
X116811887Y-93815000D01*
X116262736Y-93924233D01*
X115797189Y-94235302D01*
X115486120Y-94700849D01*
X115376887Y-95250000D01*
X108115000Y-95250000D01*
X108115248Y-94965813D01*
X107897243Y-94438200D01*
X107493923Y-94034176D01*
X106966691Y-93815250D01*
X106395813Y-93814752D01*
X105868200Y-94032757D01*
X105464176Y-94436077D01*
X105245250Y-94963309D01*
X105244752Y-95534187D01*
X103006584Y-95534187D01*
X103063113Y-95250000D01*
X102953880Y-94700849D01*
X102642811Y-94235302D01*
X102260725Y-93980000D01*
X102642811Y-93724698D01*
X102953880Y-93259151D01*
X103063113Y-92710000D01*
X102953880Y-92160849D01*
X102642811Y-91695302D01*
X102260725Y-91440000D01*
X102642811Y-91184698D01*
X102953880Y-90719151D01*
X103006584Y-90454187D01*
X105244752Y-90454187D01*
X105462757Y-90981800D01*
X105866077Y-91385824D01*
X106393309Y-91604750D01*
X106964187Y-91605248D01*
X107491800Y-91387243D01*
X107895824Y-90983923D01*
X108114750Y-90456691D01*
X108115000Y-90170000D01*
X115376887Y-90170000D01*
X115486120Y-90719151D01*
X115797189Y-91184698D01*
X116262736Y-91495767D01*
X116811887Y-91605000D01*
X116868113Y-91605000D01*
X117417264Y-91495767D01*
X117882811Y-91184698D01*
X118193880Y-90719151D01*
X118303113Y-90170000D01*
X118193880Y-89620849D01*
X117959450Y-89270000D01*
X121642560Y-89270000D01*
X121642560Y-91070000D01*
X121686838Y-91305317D01*
X121825910Y-91521441D01*
X122038110Y-91666431D01*
X122290000Y-91717440D01*
X124090000Y-91717440D01*
X124325317Y-91673162D01*
X124541441Y-91534090D01*
X124686431Y-91321890D01*
X124690567Y-91301466D01*
X124859357Y-91470551D01*
X125423330Y-91704733D01*
X126033991Y-91705265D01*
X126598371Y-91472068D01*
X127030551Y-91040643D01*
X127264733Y-90476670D01*
X127265265Y-89866009D01*
X127032068Y-89301629D01*
X126600643Y-88869449D01*
X126036670Y-88635267D01*
X125426009Y-88634735D01*
X124861629Y-88867932D01*
X124693387Y-89035880D01*
X124693162Y-89034683D01*
X124554090Y-88818559D01*
X124341890Y-88673569D01*
X124090000Y-88622560D01*
X122290000Y-88622560D01*
X122054683Y-88666838D01*
X121838559Y-88805910D01*
X121693569Y-89018110D01*
X121642560Y-89270000D01*
X117959450Y-89270000D01*
X117882811Y-89155302D01*
X117417264Y-88844233D01*
X116868113Y-88735000D01*
X116811887Y-88735000D01*
X116262736Y-88844233D01*
X115797189Y-89155302D01*
X115486120Y-89620849D01*
X115376887Y-90170000D01*
X108115000Y-90170000D01*
X108115248Y-89885813D01*
X107897243Y-89358200D01*
X107493923Y-88954176D01*
X106966691Y-88735250D01*
X106395813Y-88734752D01*
X105868200Y-88952757D01*
X105464176Y-89356077D01*
X105245250Y-89883309D01*
X105244752Y-90454187D01*
X103006584Y-90454187D01*
X103063113Y-90170000D01*
X102953880Y-89620849D01*
X102642811Y-89155302D01*
X102260725Y-88900000D01*
X102642811Y-88644698D01*
X102953880Y-88179151D01*
X103063113Y-87630000D01*
X102953880Y-87080849D01*
X102642811Y-86615302D01*
X102177264Y-86304233D01*
X101628113Y-86195000D01*
X101571887Y-86195000D01*
X101022736Y-86304233D01*
X100557189Y-86615302D01*
X100246120Y-87080849D01*
X100136887Y-87630000D01*
X86553113Y-87630000D01*
X86483685Y-87280961D01*
X92588096Y-87280961D01*
X92710085Y-87503000D01*
X93853000Y-87503000D01*
X93853000Y-86359371D01*
X94107000Y-86359371D01*
X94107000Y-87503000D01*
X95249915Y-87503000D01*
X95371904Y-87280961D01*
X95211041Y-86892577D01*
X94835134Y-86477611D01*
X94329041Y-86238086D01*
X94107000Y-86359371D01*
X93853000Y-86359371D01*
X93630959Y-86238086D01*
X93124866Y-86477611D01*
X92748959Y-86892577D01*
X92588096Y-87280961D01*
X86483685Y-87280961D01*
X86443880Y-87080849D01*
X86132811Y-86615302D01*
X85667264Y-86304233D01*
X85118113Y-86195000D01*
X85061887Y-86195000D01*
X84512736Y-86304233D01*
X84047189Y-86615302D01*
X83736120Y-87080849D01*
X83626887Y-87630000D01*
X78933113Y-87630000D01*
X78823880Y-87080849D01*
X78512811Y-86615302D01*
X78047264Y-86304233D01*
X77498113Y-86195000D01*
X77441887Y-86195000D01*
X76892736Y-86304233D01*
X76427189Y-86615302D01*
X76116120Y-87080849D01*
X76006887Y-87630000D01*
X73825000Y-87630000D01*
X73825248Y-87345813D01*
X73607243Y-86818200D01*
X73203923Y-86414176D01*
X72676691Y-86195250D01*
X72105813Y-86194752D01*
X71578200Y-86412757D01*
X71174176Y-86816077D01*
X70955250Y-87343309D01*
X70954752Y-87914187D01*
X63636584Y-87914187D01*
X63693113Y-87630000D01*
X63583880Y-87080849D01*
X63272811Y-86615302D01*
X62807264Y-86304233D01*
X62258113Y-86195000D01*
X62201887Y-86195000D01*
X61652736Y-86304233D01*
X61187189Y-86615302D01*
X60876120Y-87080849D01*
X60766887Y-87630000D01*
X59305000Y-87630000D01*
X59305000Y-80359041D01*
X64648086Y-80359041D01*
X64887611Y-80865134D01*
X65302577Y-81241041D01*
X65690961Y-81401904D01*
X65913000Y-81279915D01*
X65913000Y-80137000D01*
X66167000Y-80137000D01*
X66167000Y-81279915D01*
X66389039Y-81401904D01*
X66777423Y-81241041D01*
X67192389Y-80865134D01*
X67310000Y-80616633D01*
X67427611Y-80865134D01*
X67842577Y-81241041D01*
X68230961Y-81401904D01*
X68453000Y-81279915D01*
X68453000Y-80137000D01*
X68707000Y-80137000D01*
X68707000Y-81279915D01*
X68929039Y-81401904D01*
X69317423Y-81241041D01*
X69732389Y-80865134D01*
X69850000Y-80616633D01*
X69967611Y-80865134D01*
X70382577Y-81241041D01*
X70770961Y-81401904D01*
X70993000Y-81279915D01*
X70993000Y-80137000D01*
X68707000Y-80137000D01*
X68453000Y-80137000D01*
X66167000Y-80137000D01*
X65913000Y-80137000D01*
X64769371Y-80137000D01*
X64648086Y-80359041D01*
X59305000Y-80359041D01*
X59305000Y-79660959D01*
X64648086Y-79660959D01*
X64769371Y-79883000D01*
X65913000Y-79883000D01*
X65913000Y-78740085D01*
X66167000Y-78740085D01*
X66167000Y-79883000D01*
X68453000Y-79883000D01*
X68453000Y-78740085D01*
X68707000Y-78740085D01*
X68707000Y-79883000D01*
X70993000Y-79883000D01*
X70993000Y-78740085D01*
X71247000Y-78740085D01*
X71247000Y-79883000D01*
X71267000Y-79883000D01*
X71267000Y-80137000D01*
X71247000Y-80137000D01*
X71247000Y-81279915D01*
X71469039Y-81401904D01*
X71857423Y-81241041D01*
X72272389Y-80865134D01*
X72375014Y-80648297D01*
X72645302Y-81052811D01*
X73110849Y-81363880D01*
X73660000Y-81473113D01*
X74209151Y-81363880D01*
X74674698Y-81052811D01*
X74930000Y-80670725D01*
X75185302Y-81052811D01*
X75650849Y-81363880D01*
X76200000Y-81473113D01*
X76749151Y-81363880D01*
X77214698Y-81052811D01*
X77470000Y-80670725D01*
X77725302Y-81052811D01*
X78190849Y-81363880D01*
X78740000Y-81473113D01*
X79289151Y-81363880D01*
X79754698Y-81052811D01*
X80010000Y-80670725D01*
X80265302Y-81052811D01*
X80730849Y-81363880D01*
X81280000Y-81473113D01*
X81829151Y-81363880D01*
X82294698Y-81052811D01*
X82550000Y-80670725D01*
X82805302Y-81052811D01*
X83270849Y-81363880D01*
X83820000Y-81473113D01*
X84369151Y-81363880D01*
X84834698Y-81052811D01*
X85090000Y-80670725D01*
X85345302Y-81052811D01*
X85810849Y-81363880D01*
X86360000Y-81473113D01*
X86909151Y-81363880D01*
X87374698Y-81052811D01*
X87630000Y-80670725D01*
X87885302Y-81052811D01*
X88350849Y-81363880D01*
X88900000Y-81473113D01*
X89449151Y-81363880D01*
X89914698Y-81052811D01*
X90170000Y-80670725D01*
X90425302Y-81052811D01*
X90890849Y-81363880D01*
X91440000Y-81473113D01*
X91989151Y-81363880D01*
X92454698Y-81052811D01*
X92710000Y-80670725D01*
X92965302Y-81052811D01*
X93430849Y-81363880D01*
X93980000Y-81473113D01*
X94529151Y-81363880D01*
X94994698Y-81052811D01*
X95250000Y-80670725D01*
X95505302Y-81052811D01*
X95970849Y-81363880D01*
X96520000Y-81473113D01*
X97069151Y-81363880D01*
X97534698Y-81052811D01*
X97790000Y-80670725D01*
X98045302Y-81052811D01*
X98510849Y-81363880D01*
X99060000Y-81473113D01*
X99609151Y-81363880D01*
X100074698Y-81052811D01*
X100385767Y-80587264D01*
X100495000Y-80038113D01*
X100495000Y-79981887D01*
X100385767Y-79432736D01*
X100074698Y-78967189D01*
X99609151Y-78656120D01*
X99060000Y-78546887D01*
X98510849Y-78656120D01*
X98045302Y-78967189D01*
X97790000Y-79349275D01*
X97534698Y-78967189D01*
X97069151Y-78656120D01*
X96520000Y-78546887D01*
X95970849Y-78656120D01*
X95505302Y-78967189D01*
X95250000Y-79349275D01*
X94994698Y-78967189D01*
X94529151Y-78656120D01*
X93980000Y-78546887D01*
X93430849Y-78656120D01*
X92965302Y-78967189D01*
X92710000Y-79349275D01*
X92454698Y-78967189D01*
X91989151Y-78656120D01*
X91440000Y-78546887D01*
X90890849Y-78656120D01*
X90425302Y-78967189D01*
X90170000Y-79349275D01*
X89914698Y-78967189D01*
X89449151Y-78656120D01*
X88900000Y-78546887D01*
X88350849Y-78656120D01*
X87885302Y-78967189D01*
X87630000Y-79349275D01*
X87374698Y-78967189D01*
X86909151Y-78656120D01*
X86360000Y-78546887D01*
X85810849Y-78656120D01*
X85345302Y-78967189D01*
X85090000Y-79349275D01*
X84834698Y-78967189D01*
X84369151Y-78656120D01*
X83820000Y-78546887D01*
X83270849Y-78656120D01*
X82805302Y-78967189D01*
X82550000Y-79349275D01*
X82294698Y-78967189D01*
X81829151Y-78656120D01*
X81280000Y-78546887D01*
X80730849Y-78656120D01*
X80265302Y-78967189D01*
X80010000Y-79349275D01*
X79754698Y-78967189D01*
X79289151Y-78656120D01*
X78740000Y-78546887D01*
X78190849Y-78656120D01*
X77725302Y-78967189D01*
X77470000Y-79349275D01*
X77214698Y-78967189D01*
X76749151Y-78656120D01*
X76200000Y-78546887D01*
X75650849Y-78656120D01*
X75185302Y-78967189D01*
X74930000Y-79349275D01*
X74674698Y-78967189D01*
X74209151Y-78656120D01*
X73660000Y-78546887D01*
X73110849Y-78656120D01*
X72645302Y-78967189D01*
X72375014Y-79371703D01*
X72272389Y-79154866D01*
X71857423Y-78778959D01*
X71469039Y-78618096D01*
X71247000Y-78740085D01*
X70993000Y-78740085D01*
X70770961Y-78618096D01*
X70382577Y-78778959D01*
X69967611Y-79154866D01*
X69850000Y-79403367D01*
X69732389Y-79154866D01*
X69317423Y-78778959D01*
X68929039Y-78618096D01*
X68707000Y-78740085D01*
X68453000Y-78740085D01*
X68230961Y-78618096D01*
X67842577Y-78778959D01*
X67427611Y-79154866D01*
X67310000Y-79403367D01*
X67192389Y-79154866D01*
X66777423Y-78778959D01*
X66389039Y-78618096D01*
X66167000Y-78740085D01*
X65913000Y-78740085D01*
X65690961Y-78618096D01*
X65302577Y-78778959D01*
X64887611Y-79154866D01*
X64648086Y-79660959D01*
X59305000Y-79660959D01*
X59305000Y-77836580D01*
X61326579Y-75815000D01*
X68579995Y-75815000D01*
X68580000Y-75815001D01*
X68862484Y-75758810D01*
X68918675Y-75747633D01*
X69205790Y-75555790D01*
X70943562Y-73818017D01*
X71120000Y-73853113D01*
X71669151Y-73743880D01*
X72134698Y-73432811D01*
X72390000Y-73050725D01*
X72645302Y-73432811D01*
X73110849Y-73743880D01*
X73660000Y-73853113D01*
X74209151Y-73743880D01*
X74674698Y-73432811D01*
X74944986Y-73028297D01*
X75047611Y-73245134D01*
X75462577Y-73621041D01*
X75850961Y-73781904D01*
X76073000Y-73659915D01*
X76073000Y-72517000D01*
X76053000Y-72517000D01*
X76053000Y-72263000D01*
X76073000Y-72263000D01*
X76073000Y-71120085D01*
X76327000Y-71120085D01*
X76327000Y-72263000D01*
X76347000Y-72263000D01*
X76347000Y-72517000D01*
X76327000Y-72517000D01*
X76327000Y-73659915D01*
X76549039Y-73781904D01*
X76937423Y-73621041D01*
X77352389Y-73245134D01*
X77455014Y-73028297D01*
X77725302Y-73432811D01*
X78190849Y-73743880D01*
X78740000Y-73853113D01*
X79289151Y-73743880D01*
X79754698Y-73432811D01*
X80010000Y-73050725D01*
X80265302Y-73432811D01*
X80730849Y-73743880D01*
X81280000Y-73853113D01*
X81829151Y-73743880D01*
X82294698Y-73432811D01*
X82550000Y-73050725D01*
X82805302Y-73432811D01*
X83270849Y-73743880D01*
X83820000Y-73853113D01*
X84369151Y-73743880D01*
X84834698Y-73432811D01*
X85090000Y-73050725D01*
X85345302Y-73432811D01*
X85810849Y-73743880D01*
X86360000Y-73853113D01*
X86909151Y-73743880D01*
X87374698Y-73432811D01*
X87630000Y-73050725D01*
X87885302Y-73432811D01*
X88350849Y-73743880D01*
X88900000Y-73853113D01*
X89449151Y-73743880D01*
X89914698Y-73432811D01*
X90170000Y-73050725D01*
X90425302Y-73432811D01*
X90890849Y-73743880D01*
X91440000Y-73853113D01*
X91989151Y-73743880D01*
X92454698Y-73432811D01*
X92710000Y-73050725D01*
X92965302Y-73432811D01*
X93430849Y-73743880D01*
X93980000Y-73853113D01*
X94529151Y-73743880D01*
X94994698Y-73432811D01*
X95250000Y-73050725D01*
X95505302Y-73432811D01*
X95970849Y-73743880D01*
X96520000Y-73853113D01*
X97069151Y-73743880D01*
X97534698Y-73432811D01*
X97790000Y-73050725D01*
X98045302Y-73432811D01*
X98510849Y-73743880D01*
X99060000Y-73853113D01*
X99609151Y-73743880D01*
X100074698Y-73432811D01*
X100385767Y-72967264D01*
X100495000Y-72418113D01*
X100495000Y-72361887D01*
X100385767Y-71812736D01*
X100074698Y-71347189D01*
X99609151Y-71036120D01*
X99060000Y-70926887D01*
X98510849Y-71036120D01*
X98045302Y-71347189D01*
X97790000Y-71729275D01*
X97534698Y-71347189D01*
X97069151Y-71036120D01*
X96520000Y-70926887D01*
X95970849Y-71036120D01*
X95505302Y-71347189D01*
X95250000Y-71729275D01*
X94994698Y-71347189D01*
X94529151Y-71036120D01*
X93980000Y-70926887D01*
X93430849Y-71036120D01*
X92965302Y-71347189D01*
X92710000Y-71729275D01*
X92454698Y-71347189D01*
X91989151Y-71036120D01*
X91440000Y-70926887D01*
X90890849Y-71036120D01*
X90425302Y-71347189D01*
X90170000Y-71729275D01*
X89914698Y-71347189D01*
X89449151Y-71036120D01*
X88900000Y-70926887D01*
X88350849Y-71036120D01*
X87885302Y-71347189D01*
X87630000Y-71729275D01*
X87374698Y-71347189D01*
X86909151Y-71036120D01*
X86360000Y-70926887D01*
X85810849Y-71036120D01*
X85345302Y-71347189D01*
X85090000Y-71729275D01*
X84834698Y-71347189D01*
X84369151Y-71036120D01*
X83820000Y-70926887D01*
X83270849Y-71036120D01*
X82805302Y-71347189D01*
X82550000Y-71729275D01*
X82294698Y-71347189D01*
X81829151Y-71036120D01*
X81280000Y-70926887D01*
X80730849Y-71036120D01*
X80265302Y-71347189D01*
X80010000Y-71729275D01*
X79754698Y-71347189D01*
X79289151Y-71036120D01*
X78740000Y-70926887D01*
X78190849Y-71036120D01*
X77725302Y-71347189D01*
X77455014Y-71751703D01*
X77352389Y-71534866D01*
X76937423Y-71158959D01*
X76549039Y-70998096D01*
X76327000Y-71120085D01*
X76073000Y-71120085D01*
X75850961Y-70998096D01*
X75462577Y-71158959D01*
X75047611Y-71534866D01*
X74944986Y-71751703D01*
X74674698Y-71347189D01*
X74209151Y-71036120D01*
X73660000Y-70926887D01*
X73110849Y-71036120D01*
X72645302Y-71347189D01*
X72390000Y-71729275D01*
X72134698Y-71347189D01*
X71669151Y-71036120D01*
X71120000Y-70926887D01*
X70570849Y-71036120D01*
X70105302Y-71347189D01*
X69850000Y-71729275D01*
X69594698Y-71347189D01*
X69129151Y-71036120D01*
X68580000Y-70926887D01*
X68403562Y-70961983D01*
X65395790Y-67954210D01*
X65108675Y-67762367D01*
X65052484Y-67751190D01*
X64770000Y-67694999D01*
X64769995Y-67695000D01*
X62230005Y-67695000D01*
X62230000Y-67694999D01*
X61891325Y-67762367D01*
X61604210Y-67954210D01*
X61604208Y-67954213D01*
X48904210Y-80654210D01*
X48712367Y-80941325D01*
X48712367Y-80941326D01*
X48644999Y-81280000D01*
X48645000Y-81280005D01*
X48645000Y-119520527D01*
X48515302Y-119607189D01*
X48204233Y-120072736D01*
X48095000Y-120621887D01*
X40767000Y-120621887D01*
X40767000Y-86630510D01*
X42803070Y-86630510D01*
X42803070Y-88629490D01*
X42847348Y-88864807D01*
X42986420Y-89080931D01*
X43152473Y-89194390D01*
X42939928Y-89512486D01*
X42815510Y-90137978D01*
X42815510Y-90202022D01*
X42939928Y-90827514D01*
X43294241Y-91357781D01*
X43417290Y-91440000D01*
X43294241Y-91522219D01*
X42939928Y-92052486D01*
X42815510Y-92677978D01*
X42815510Y-92742022D01*
X42939928Y-93367514D01*
X43294241Y-93897781D01*
X43417290Y-93980000D01*
X43294241Y-94062219D01*
X42939928Y-94592486D01*
X42815510Y-95217978D01*
X42815510Y-95282022D01*
X42939928Y-95907514D01*
X43294241Y-96437781D01*
X43417290Y-96520000D01*
X43294241Y-96602219D01*
X42939928Y-97132486D01*
X42815510Y-97757978D01*
X42815510Y-97822022D01*
X42939928Y-98447514D01*
X43294241Y-98977781D01*
X43417290Y-99060000D01*
X43294241Y-99142219D01*
X42939928Y-99672486D01*
X42815510Y-100297978D01*
X42815510Y-100362022D01*
X42939928Y-100987514D01*
X43294241Y-101517781D01*
X43417290Y-101600000D01*
X43294241Y-101682219D01*
X42939928Y-102212486D01*
X42815510Y-102837978D01*
X42815510Y-102902022D01*
X42939928Y-103527514D01*
X43294241Y-104057781D01*
X43417290Y-104140000D01*
X43294241Y-104222219D01*
X42939928Y-104752486D01*
X42815510Y-105377978D01*
X42815510Y-105442022D01*
X42939928Y-106067514D01*
X43294241Y-106597781D01*
X43824508Y-106952094D01*
X44450000Y-107076512D01*
X45075492Y-106952094D01*
X45605759Y-106597781D01*
X45960072Y-106067514D01*
X46084490Y-105442022D01*
X46084490Y-105377978D01*
X45960072Y-104752486D01*
X45605759Y-104222219D01*
X45482710Y-104140000D01*
X45605759Y-104057781D01*
X45960072Y-103527514D01*
X46084490Y-102902022D01*
X46084490Y-102837978D01*
X45960072Y-102212486D01*
X45605759Y-101682219D01*
X45482710Y-101600000D01*
X45605759Y-101517781D01*
X45960072Y-100987514D01*
X46084490Y-100362022D01*
X46084490Y-100297978D01*
X45960072Y-99672486D01*
X45605759Y-99142219D01*
X45482710Y-99060000D01*
X45605759Y-98977781D01*
X45960072Y-98447514D01*
X46084490Y-97822022D01*
X46084490Y-97757978D01*
X45960072Y-97132486D01*
X45605759Y-96602219D01*
X45482710Y-96520000D01*
X45605759Y-96437781D01*
X45960072Y-95907514D01*
X46084490Y-95282022D01*
X46084490Y-95217978D01*
X45960072Y-94592486D01*
X45605759Y-94062219D01*
X45482710Y-93980000D01*
X45605759Y-93897781D01*
X45960072Y-93367514D01*
X46084490Y-92742022D01*
X46084490Y-92677978D01*
X45960072Y-92052486D01*
X45605759Y-91522219D01*
X45482710Y-91440000D01*
X45605759Y-91357781D01*
X45960072Y-90827514D01*
X46084490Y-90202022D01*
X46084490Y-90137978D01*
X45960072Y-89512486D01*
X45746547Y-89192923D01*
X45900931Y-89093580D01*
X46045921Y-88881380D01*
X46096930Y-88629490D01*
X46096930Y-86630510D01*
X46052652Y-86395193D01*
X45913580Y-86179069D01*
X45701380Y-86034079D01*
X45449490Y-85983070D01*
X43450510Y-85983070D01*
X43215193Y-86027348D01*
X42999069Y-86166420D01*
X42854079Y-86378620D01*
X42803070Y-86630510D01*
X40767000Y-86630510D01*
X40767000Y-70134187D01*
X53174752Y-70134187D01*
X53392757Y-70661800D01*
X53796077Y-71065824D01*
X54323309Y-71284750D01*
X54894187Y-71285248D01*
X55421800Y-71067243D01*
X55825824Y-70663923D01*
X56044750Y-70136691D01*
X56045248Y-69565813D01*
X55827243Y-69038200D01*
X55423923Y-68634176D01*
X54896691Y-68415250D01*
X54325813Y-68414752D01*
X53798200Y-68632757D01*
X53394176Y-69036077D01*
X53175250Y-69563309D01*
X53174752Y-70134187D01*
X40767000Y-70134187D01*
X40767000Y-44720510D01*
X42803070Y-44720510D01*
X42803070Y-46719490D01*
X42847348Y-46954807D01*
X42986420Y-47170931D01*
X43152473Y-47284390D01*
X42939928Y-47602486D01*
X42815510Y-48227978D01*
X42815510Y-48292022D01*
X42939928Y-48917514D01*
X43294241Y-49447781D01*
X43417290Y-49530000D01*
X43294241Y-49612219D01*
X42939928Y-50142486D01*
X42815510Y-50767978D01*
X42815510Y-50832022D01*
X42939928Y-51457514D01*
X43294241Y-51987781D01*
X43417290Y-52070000D01*
X43294241Y-52152219D01*
X42939928Y-52682486D01*
X42815510Y-53307978D01*
X42815510Y-53372022D01*
X42939928Y-53997514D01*
X43294241Y-54527781D01*
X43417290Y-54610000D01*
X43294241Y-54692219D01*
X42939928Y-55222486D01*
X42815510Y-55847978D01*
X42815510Y-55912022D01*
X42939928Y-56537514D01*
X43294241Y-57067781D01*
X43417290Y-57150000D01*
X43294241Y-57232219D01*
X42939928Y-57762486D01*
X42815510Y-58387978D01*
X42815510Y-58452022D01*
X42939928Y-59077514D01*
X43294241Y-59607781D01*
X43417290Y-59690000D01*
X43294241Y-59772219D01*
X42939928Y-60302486D01*
X42815510Y-60927978D01*
X42815510Y-60992022D01*
X42939928Y-61617514D01*
X43294241Y-62147781D01*
X43417290Y-62230000D01*
X43294241Y-62312219D01*
X42939928Y-62842486D01*
X42815510Y-63467978D01*
X42815510Y-63532022D01*
X42939928Y-64157514D01*
X43294241Y-64687781D01*
X43824508Y-65042094D01*
X44450000Y-65166512D01*
X45075492Y-65042094D01*
X45605759Y-64687781D01*
X45960072Y-64157514D01*
X46084490Y-63532022D01*
X46084490Y-63467978D01*
X45960072Y-62842486D01*
X45605759Y-62312219D01*
X45482710Y-62230000D01*
X45605759Y-62147781D01*
X45960072Y-61617514D01*
X46030392Y-61263991D01*
X51804735Y-61263991D01*
X52037932Y-61828371D01*
X52469357Y-62260551D01*
X53033330Y-62494733D01*
X53643991Y-62495265D01*
X54208371Y-62262068D01*
X54376613Y-62094120D01*
X54376838Y-62095317D01*
X54515910Y-62311441D01*
X54728110Y-62456431D01*
X54980000Y-62507440D01*
X56780000Y-62507440D01*
X57015317Y-62463162D01*
X57231441Y-62324090D01*
X57376431Y-62111890D01*
X57427440Y-61860000D01*
X57427440Y-60960000D01*
X60766887Y-60960000D01*
X60876120Y-61509151D01*
X61187189Y-61974698D01*
X61652736Y-62285767D01*
X62201887Y-62395000D01*
X62258113Y-62395000D01*
X62807264Y-62285767D01*
X63272811Y-61974698D01*
X63583880Y-61509151D01*
X63636584Y-61244187D01*
X70954752Y-61244187D01*
X71172757Y-61771800D01*
X71576077Y-62175824D01*
X72103309Y-62394750D01*
X72674187Y-62395248D01*
X73201800Y-62177243D01*
X73605824Y-61773923D01*
X73824750Y-61246691D01*
X73825248Y-60675813D01*
X73607243Y-60148200D01*
X73203923Y-59744176D01*
X72676691Y-59525250D01*
X72105813Y-59524752D01*
X71578200Y-59742757D01*
X71174176Y-60146077D01*
X70955250Y-60673309D01*
X70954752Y-61244187D01*
X63636584Y-61244187D01*
X63693113Y-60960000D01*
X63583880Y-60410849D01*
X63272811Y-59945302D01*
X62807264Y-59634233D01*
X62258113Y-59525000D01*
X62201887Y-59525000D01*
X61652736Y-59634233D01*
X61187189Y-59945302D01*
X60876120Y-60410849D01*
X60766887Y-60960000D01*
X57427440Y-60960000D01*
X57427440Y-60060000D01*
X57383162Y-59824683D01*
X57244090Y-59608559D01*
X57031890Y-59463569D01*
X56780000Y-59412560D01*
X54980000Y-59412560D01*
X54744683Y-59456838D01*
X54528559Y-59595910D01*
X54383569Y-59808110D01*
X54379433Y-59828534D01*
X54210643Y-59659449D01*
X53646670Y-59425267D01*
X53036009Y-59424735D01*
X52471629Y-59657932D01*
X52039449Y-60089357D01*
X51805267Y-60653330D01*
X51804735Y-61263991D01*
X46030392Y-61263991D01*
X46084490Y-60992022D01*
X46084490Y-60927978D01*
X45960072Y-60302486D01*
X45605759Y-59772219D01*
X45482710Y-59690000D01*
X45605759Y-59607781D01*
X45960072Y-59077514D01*
X46084490Y-58452022D01*
X46084490Y-58387978D01*
X45960072Y-57762486D01*
X45605759Y-57232219D01*
X45482710Y-57150000D01*
X45605759Y-57067781D01*
X45960072Y-56537514D01*
X46030392Y-56183991D01*
X51804735Y-56183991D01*
X52037932Y-56748371D01*
X52469357Y-57180551D01*
X53033330Y-57414733D01*
X53643991Y-57415265D01*
X54208371Y-57182068D01*
X54376613Y-57014120D01*
X54376838Y-57015317D01*
X54515910Y-57231441D01*
X54728110Y-57376431D01*
X54980000Y-57427440D01*
X56780000Y-57427440D01*
X57015317Y-57383162D01*
X57231441Y-57244090D01*
X57376431Y-57031890D01*
X57427440Y-56780000D01*
X57427440Y-55880000D01*
X60766887Y-55880000D01*
X60876120Y-56429151D01*
X61187189Y-56894698D01*
X61652736Y-57205767D01*
X62201887Y-57315000D01*
X62258113Y-57315000D01*
X62807264Y-57205767D01*
X63272811Y-56894698D01*
X63583880Y-56429151D01*
X63636584Y-56164187D01*
X70954752Y-56164187D01*
X71172757Y-56691800D01*
X71576077Y-57095824D01*
X72103309Y-57314750D01*
X72674187Y-57315248D01*
X73201800Y-57097243D01*
X73605824Y-56693923D01*
X73824750Y-56166691D01*
X73825248Y-55595813D01*
X73607243Y-55068200D01*
X73203923Y-54664176D01*
X72676691Y-54445250D01*
X72105813Y-54444752D01*
X71578200Y-54662757D01*
X71174176Y-55066077D01*
X70955250Y-55593309D01*
X70954752Y-56164187D01*
X63636584Y-56164187D01*
X63693113Y-55880000D01*
X63583880Y-55330849D01*
X63272811Y-54865302D01*
X62807264Y-54554233D01*
X62258113Y-54445000D01*
X62201887Y-54445000D01*
X61652736Y-54554233D01*
X61187189Y-54865302D01*
X60876120Y-55330849D01*
X60766887Y-55880000D01*
X57427440Y-55880000D01*
X57427440Y-54980000D01*
X57383162Y-54744683D01*
X57244090Y-54528559D01*
X57031890Y-54383569D01*
X56780000Y-54332560D01*
X54980000Y-54332560D01*
X54744683Y-54376838D01*
X54528559Y-54515910D01*
X54383569Y-54728110D01*
X54379433Y-54748534D01*
X54210643Y-54579449D01*
X53646670Y-54345267D01*
X53036009Y-54344735D01*
X52471629Y-54577932D01*
X52039449Y-55009357D01*
X51805267Y-55573330D01*
X51804735Y-56183991D01*
X46030392Y-56183991D01*
X46084490Y-55912022D01*
X46084490Y-55847978D01*
X45960072Y-55222486D01*
X45605759Y-54692219D01*
X45482710Y-54610000D01*
X45605759Y-54527781D01*
X45960072Y-53997514D01*
X46084490Y-53372022D01*
X46084490Y-53307978D01*
X45960072Y-52682486D01*
X45605759Y-52152219D01*
X45482710Y-52070000D01*
X45605759Y-51987781D01*
X45960072Y-51457514D01*
X46030392Y-51103991D01*
X51804735Y-51103991D01*
X52037932Y-51668371D01*
X52469357Y-52100551D01*
X53033330Y-52334733D01*
X53643991Y-52335265D01*
X54208371Y-52102068D01*
X54376613Y-51934120D01*
X54376838Y-51935317D01*
X54515910Y-52151441D01*
X54728110Y-52296431D01*
X54980000Y-52347440D01*
X56780000Y-52347440D01*
X57015317Y-52303162D01*
X57231441Y-52164090D01*
X57376431Y-51951890D01*
X57427440Y-51700000D01*
X57427440Y-50800000D01*
X60766887Y-50800000D01*
X60876120Y-51349151D01*
X61187189Y-51814698D01*
X61652736Y-52125767D01*
X62201887Y-52235000D01*
X62258113Y-52235000D01*
X62807264Y-52125767D01*
X63272811Y-51814698D01*
X63583880Y-51349151D01*
X63636584Y-51084187D01*
X70954752Y-51084187D01*
X71172757Y-51611800D01*
X71576077Y-52015824D01*
X72103309Y-52234750D01*
X72674187Y-52235248D01*
X73201800Y-52017243D01*
X73605824Y-51613923D01*
X73824750Y-51086691D01*
X73825248Y-50515813D01*
X73607243Y-49988200D01*
X73203923Y-49584176D01*
X72676691Y-49365250D01*
X72105813Y-49364752D01*
X71578200Y-49582757D01*
X71174176Y-49986077D01*
X70955250Y-50513309D01*
X70954752Y-51084187D01*
X63636584Y-51084187D01*
X63693113Y-50800000D01*
X63583880Y-50250849D01*
X63272811Y-49785302D01*
X62807264Y-49474233D01*
X62258113Y-49365000D01*
X62201887Y-49365000D01*
X61652736Y-49474233D01*
X61187189Y-49785302D01*
X60876120Y-50250849D01*
X60766887Y-50800000D01*
X57427440Y-50800000D01*
X57427440Y-49900000D01*
X57383162Y-49664683D01*
X57244090Y-49448559D01*
X57031890Y-49303569D01*
X56780000Y-49252560D01*
X54980000Y-49252560D01*
X54744683Y-49296838D01*
X54528559Y-49435910D01*
X54383569Y-49648110D01*
X54379433Y-49668534D01*
X54210643Y-49499449D01*
X53646670Y-49265267D01*
X53036009Y-49264735D01*
X52471629Y-49497932D01*
X52039449Y-49929357D01*
X51805267Y-50493330D01*
X51804735Y-51103991D01*
X46030392Y-51103991D01*
X46084490Y-50832022D01*
X46084490Y-50767978D01*
X45960072Y-50142486D01*
X45605759Y-49612219D01*
X45482710Y-49530000D01*
X45605759Y-49447781D01*
X45960072Y-48917514D01*
X46084490Y-48292022D01*
X46084490Y-48227978D01*
X45960072Y-47602486D01*
X45746547Y-47282923D01*
X45900931Y-47183580D01*
X46045921Y-46971380D01*
X46096930Y-46719490D01*
X46096930Y-46023991D01*
X51804735Y-46023991D01*
X52037932Y-46588371D01*
X52469357Y-47020551D01*
X53033330Y-47254733D01*
X53643991Y-47255265D01*
X54208371Y-47022068D01*
X54376613Y-46854120D01*
X54376838Y-46855317D01*
X54515910Y-47071441D01*
X54728110Y-47216431D01*
X54980000Y-47267440D01*
X56780000Y-47267440D01*
X57015317Y-47223162D01*
X57231441Y-47084090D01*
X57376431Y-46871890D01*
X57427440Y-46620000D01*
X57427440Y-45720000D01*
X60766887Y-45720000D01*
X60876120Y-46269151D01*
X61187189Y-46734698D01*
X61652736Y-47045767D01*
X62201887Y-47155000D01*
X62258113Y-47155000D01*
X62807264Y-47045767D01*
X63272811Y-46734698D01*
X63583880Y-46269151D01*
X63636584Y-46004187D01*
X70954752Y-46004187D01*
X71172757Y-46531800D01*
X71576077Y-46935824D01*
X72103309Y-47154750D01*
X72674187Y-47155248D01*
X73201800Y-46937243D01*
X73605824Y-46533923D01*
X73824750Y-46006691D01*
X73825000Y-45720000D01*
X76006887Y-45720000D01*
X76116120Y-46269151D01*
X76427189Y-46734698D01*
X76809275Y-46990000D01*
X76427189Y-47245302D01*
X76116120Y-47710849D01*
X76006887Y-48260000D01*
X76116120Y-48809151D01*
X76427189Y-49274698D01*
X76809275Y-49530000D01*
X76427189Y-49785302D01*
X76116120Y-50250849D01*
X76006887Y-50800000D01*
X76116120Y-51349151D01*
X76427189Y-51814698D01*
X76809275Y-52070000D01*
X76427189Y-52325302D01*
X76116120Y-52790849D01*
X76006887Y-53340000D01*
X76116120Y-53889151D01*
X76427189Y-54354698D01*
X76809275Y-54610000D01*
X76427189Y-54865302D01*
X76116120Y-55330849D01*
X76006887Y-55880000D01*
X76116120Y-56429151D01*
X76427189Y-56894698D01*
X76809275Y-57150000D01*
X76427189Y-57405302D01*
X76116120Y-57870849D01*
X76006887Y-58420000D01*
X76116120Y-58969151D01*
X76427189Y-59434698D01*
X76809275Y-59690000D01*
X76427189Y-59945302D01*
X76116120Y-60410849D01*
X76006887Y-60960000D01*
X76116120Y-61509151D01*
X76427189Y-61974698D01*
X76809275Y-62230000D01*
X76427189Y-62485302D01*
X76116120Y-62950849D01*
X76006887Y-63500000D01*
X76116120Y-64049151D01*
X76427189Y-64514698D01*
X76892736Y-64825767D01*
X77441887Y-64935000D01*
X77498113Y-64935000D01*
X78047264Y-64825767D01*
X78512811Y-64514698D01*
X78823880Y-64049151D01*
X78863684Y-63849039D01*
X83698096Y-63849039D01*
X83858959Y-64237423D01*
X84234866Y-64652389D01*
X84740959Y-64891914D01*
X84963000Y-64770629D01*
X84963000Y-63627000D01*
X85217000Y-63627000D01*
X85217000Y-64770629D01*
X85439041Y-64891914D01*
X85945134Y-64652389D01*
X86321041Y-64237423D01*
X86481904Y-63849039D01*
X86359915Y-63627000D01*
X85217000Y-63627000D01*
X84963000Y-63627000D01*
X83820085Y-63627000D01*
X83698096Y-63849039D01*
X78863684Y-63849039D01*
X78933113Y-63500000D01*
X92516887Y-63500000D01*
X92626120Y-64049151D01*
X92937189Y-64514698D01*
X93402736Y-64825767D01*
X93951887Y-64935000D01*
X94008113Y-64935000D01*
X94557264Y-64825767D01*
X95022811Y-64514698D01*
X95333880Y-64049151D01*
X95443113Y-63500000D01*
X95333880Y-62950849D01*
X95022811Y-62485302D01*
X94618297Y-62215014D01*
X94835134Y-62112389D01*
X95211041Y-61697423D01*
X95371904Y-61309039D01*
X95249915Y-61087000D01*
X94107000Y-61087000D01*
X94107000Y-61107000D01*
X93853000Y-61107000D01*
X93853000Y-61087000D01*
X92710085Y-61087000D01*
X92588096Y-61309039D01*
X92748959Y-61697423D01*
X93124866Y-62112389D01*
X93341703Y-62215014D01*
X92937189Y-62485302D01*
X92626120Y-62950849D01*
X92516887Y-63500000D01*
X78933113Y-63500000D01*
X78823880Y-62950849D01*
X78512811Y-62485302D01*
X78130725Y-62230000D01*
X78512811Y-61974698D01*
X78823880Y-61509151D01*
X78933113Y-60960000D01*
X83626887Y-60960000D01*
X83736120Y-61509151D01*
X84047189Y-61974698D01*
X84451703Y-62244986D01*
X84234866Y-62347611D01*
X83858959Y-62762577D01*
X83698096Y-63150961D01*
X83820085Y-63373000D01*
X84963000Y-63373000D01*
X84963000Y-63353000D01*
X85217000Y-63353000D01*
X85217000Y-63373000D01*
X86359915Y-63373000D01*
X86481904Y-63150961D01*
X86321041Y-62762577D01*
X85945134Y-62347611D01*
X85728297Y-62244986D01*
X86132811Y-61974698D01*
X86443880Y-61509151D01*
X86553113Y-60960000D01*
X86443880Y-60410849D01*
X86132811Y-59945302D01*
X85728297Y-59675014D01*
X85945134Y-59572389D01*
X86321041Y-59157423D01*
X86481904Y-58769039D01*
X86359915Y-58547000D01*
X85217000Y-58547000D01*
X85217000Y-58567000D01*
X84963000Y-58567000D01*
X84963000Y-58547000D01*
X83820085Y-58547000D01*
X83698096Y-58769039D01*
X83858959Y-59157423D01*
X84234866Y-59572389D01*
X84451703Y-59675014D01*
X84047189Y-59945302D01*
X83736120Y-60410849D01*
X83626887Y-60960000D01*
X78933113Y-60960000D01*
X78823880Y-60410849D01*
X78512811Y-59945302D01*
X78130725Y-59690000D01*
X78512811Y-59434698D01*
X78823880Y-58969151D01*
X78933113Y-58420000D01*
X92516887Y-58420000D01*
X92626120Y-58969151D01*
X92937189Y-59434698D01*
X93341703Y-59704986D01*
X93124866Y-59807611D01*
X92748959Y-60222577D01*
X92588096Y-60610961D01*
X92710085Y-60833000D01*
X93853000Y-60833000D01*
X93853000Y-60813000D01*
X94107000Y-60813000D01*
X94107000Y-60833000D01*
X95249915Y-60833000D01*
X95371904Y-60610961D01*
X95211041Y-60222577D01*
X94835134Y-59807611D01*
X94618297Y-59704986D01*
X95022811Y-59434698D01*
X95333880Y-58969151D01*
X95443113Y-58420000D01*
X95333880Y-57870849D01*
X95022811Y-57405302D01*
X94618297Y-57135014D01*
X94835134Y-57032389D01*
X95211041Y-56617423D01*
X95371904Y-56229039D01*
X95249915Y-56007000D01*
X94107000Y-56007000D01*
X94107000Y-56027000D01*
X93853000Y-56027000D01*
X93853000Y-56007000D01*
X92710085Y-56007000D01*
X92588096Y-56229039D01*
X92748959Y-56617423D01*
X93124866Y-57032389D01*
X93341703Y-57135014D01*
X92937189Y-57405302D01*
X92626120Y-57870849D01*
X92516887Y-58420000D01*
X78933113Y-58420000D01*
X78823880Y-57870849D01*
X78512811Y-57405302D01*
X78130725Y-57150000D01*
X78512811Y-56894698D01*
X78823880Y-56429151D01*
X78933113Y-55880000D01*
X83626887Y-55880000D01*
X83736120Y-56429151D01*
X84047189Y-56894698D01*
X84451703Y-57164986D01*
X84234866Y-57267611D01*
X83858959Y-57682577D01*
X83698096Y-58070961D01*
X83820085Y-58293000D01*
X84963000Y-58293000D01*
X84963000Y-58273000D01*
X85217000Y-58273000D01*
X85217000Y-58293000D01*
X86359915Y-58293000D01*
X86481904Y-58070961D01*
X86321041Y-57682577D01*
X85945134Y-57267611D01*
X85728297Y-57164986D01*
X86132811Y-56894698D01*
X86443880Y-56429151D01*
X86553113Y-55880000D01*
X86443880Y-55330849D01*
X86132811Y-54865302D01*
X85728297Y-54595014D01*
X85945134Y-54492389D01*
X86321041Y-54077423D01*
X86481904Y-53689039D01*
X86359915Y-53467000D01*
X85217000Y-53467000D01*
X85217000Y-53487000D01*
X84963000Y-53487000D01*
X84963000Y-53467000D01*
X83820085Y-53467000D01*
X83698096Y-53689039D01*
X83858959Y-54077423D01*
X84234866Y-54492389D01*
X84451703Y-54595014D01*
X84047189Y-54865302D01*
X83736120Y-55330849D01*
X83626887Y-55880000D01*
X78933113Y-55880000D01*
X78823880Y-55330849D01*
X78512811Y-54865302D01*
X78130725Y-54610000D01*
X78512811Y-54354698D01*
X78823880Y-53889151D01*
X78933113Y-53340000D01*
X92516887Y-53340000D01*
X92626120Y-53889151D01*
X92937189Y-54354698D01*
X93341703Y-54624986D01*
X93124866Y-54727611D01*
X92748959Y-55142577D01*
X92588096Y-55530961D01*
X92710085Y-55753000D01*
X93853000Y-55753000D01*
X93853000Y-55733000D01*
X94107000Y-55733000D01*
X94107000Y-55753000D01*
X95249915Y-55753000D01*
X95371904Y-55530961D01*
X95211041Y-55142577D01*
X94835134Y-54727611D01*
X94618297Y-54624986D01*
X95022811Y-54354698D01*
X95333880Y-53889151D01*
X95443113Y-53340000D01*
X95333880Y-52790849D01*
X95022811Y-52325302D01*
X94618297Y-52055014D01*
X94835134Y-51952389D01*
X95211041Y-51537423D01*
X95371904Y-51149039D01*
X95249915Y-50927000D01*
X94107000Y-50927000D01*
X94107000Y-50947000D01*
X93853000Y-50947000D01*
X93853000Y-50927000D01*
X92710085Y-50927000D01*
X92588096Y-51149039D01*
X92748959Y-51537423D01*
X93124866Y-51952389D01*
X93341703Y-52055014D01*
X92937189Y-52325302D01*
X92626120Y-52790849D01*
X92516887Y-53340000D01*
X78933113Y-53340000D01*
X78823880Y-52790849D01*
X78512811Y-52325302D01*
X78130725Y-52070000D01*
X78512811Y-51814698D01*
X78823880Y-51349151D01*
X78933113Y-50800000D01*
X83626887Y-50800000D01*
X83736120Y-51349151D01*
X84047189Y-51814698D01*
X84451703Y-52084986D01*
X84234866Y-52187611D01*
X83858959Y-52602577D01*
X83698096Y-52990961D01*
X83820085Y-53213000D01*
X84963000Y-53213000D01*
X84963000Y-53193000D01*
X85217000Y-53193000D01*
X85217000Y-53213000D01*
X86359915Y-53213000D01*
X86481904Y-52990961D01*
X86321041Y-52602577D01*
X85945134Y-52187611D01*
X85728297Y-52084986D01*
X86132811Y-51814698D01*
X86443880Y-51349151D01*
X86553113Y-50800000D01*
X86443880Y-50250849D01*
X86132811Y-49785302D01*
X85728297Y-49515014D01*
X85945134Y-49412389D01*
X86321041Y-48997423D01*
X86481904Y-48609039D01*
X86359915Y-48387000D01*
X85217000Y-48387000D01*
X85217000Y-48407000D01*
X84963000Y-48407000D01*
X84963000Y-48387000D01*
X83820085Y-48387000D01*
X83698096Y-48609039D01*
X83858959Y-48997423D01*
X84234866Y-49412389D01*
X84451703Y-49515014D01*
X84047189Y-49785302D01*
X83736120Y-50250849D01*
X83626887Y-50800000D01*
X78933113Y-50800000D01*
X78823880Y-50250849D01*
X78512811Y-49785302D01*
X78130725Y-49530000D01*
X78512811Y-49274698D01*
X78823880Y-48809151D01*
X78933113Y-48260000D01*
X92516887Y-48260000D01*
X92626120Y-48809151D01*
X92937189Y-49274698D01*
X93341703Y-49544986D01*
X93124866Y-49647611D01*
X92748959Y-50062577D01*
X92588096Y-50450961D01*
X92710085Y-50673000D01*
X93853000Y-50673000D01*
X93853000Y-50653000D01*
X94107000Y-50653000D01*
X94107000Y-50673000D01*
X95249915Y-50673000D01*
X95371904Y-50450961D01*
X95211041Y-50062577D01*
X94835134Y-49647611D01*
X94618297Y-49544986D01*
X95022811Y-49274698D01*
X95333880Y-48809151D01*
X95443113Y-48260000D01*
X95333880Y-47710849D01*
X95022811Y-47245302D01*
X94618297Y-46975014D01*
X94835134Y-46872389D01*
X95211041Y-46457423D01*
X95371904Y-46069039D01*
X95249915Y-45847000D01*
X94107000Y-45847000D01*
X94107000Y-45867000D01*
X93853000Y-45867000D01*
X93853000Y-45847000D01*
X92710085Y-45847000D01*
X92588096Y-46069039D01*
X92748959Y-46457423D01*
X93124866Y-46872389D01*
X93341703Y-46975014D01*
X92937189Y-47245302D01*
X92626120Y-47710849D01*
X92516887Y-48260000D01*
X78933113Y-48260000D01*
X78823880Y-47710849D01*
X78512811Y-47245302D01*
X78130725Y-46990000D01*
X78512811Y-46734698D01*
X78823880Y-46269151D01*
X78933113Y-45720000D01*
X83626887Y-45720000D01*
X83736120Y-46269151D01*
X84047189Y-46734698D01*
X84451703Y-47004986D01*
X84234866Y-47107611D01*
X83858959Y-47522577D01*
X83698096Y-47910961D01*
X83820085Y-48133000D01*
X84963000Y-48133000D01*
X84963000Y-48113000D01*
X85217000Y-48113000D01*
X85217000Y-48133000D01*
X86359915Y-48133000D01*
X86481904Y-47910961D01*
X86321041Y-47522577D01*
X85945134Y-47107611D01*
X85728297Y-47004986D01*
X86132811Y-46734698D01*
X86443880Y-46269151D01*
X86553113Y-45720000D01*
X100136887Y-45720000D01*
X100246120Y-46269151D01*
X100557189Y-46734698D01*
X100939275Y-46990000D01*
X100557189Y-47245302D01*
X100246120Y-47710849D01*
X100136887Y-48260000D01*
X100246120Y-48809151D01*
X100557189Y-49274698D01*
X100939275Y-49530000D01*
X100557189Y-49785302D01*
X100246120Y-50250849D01*
X100136887Y-50800000D01*
X100246120Y-51349151D01*
X100557189Y-51814698D01*
X100939275Y-52070000D01*
X100557189Y-52325302D01*
X100246120Y-52790849D01*
X100136887Y-53340000D01*
X100246120Y-53889151D01*
X100557189Y-54354698D01*
X100939275Y-54610000D01*
X100557189Y-54865302D01*
X100246120Y-55330849D01*
X100136887Y-55880000D01*
X100246120Y-56429151D01*
X100557189Y-56894698D01*
X100939275Y-57150000D01*
X100557189Y-57405302D01*
X100246120Y-57870849D01*
X100136887Y-58420000D01*
X100246120Y-58969151D01*
X100557189Y-59434698D01*
X100939275Y-59690000D01*
X100557189Y-59945302D01*
X100246120Y-60410849D01*
X100136887Y-60960000D01*
X100246120Y-61509151D01*
X100557189Y-61974698D01*
X100939275Y-62230000D01*
X100557189Y-62485302D01*
X100246120Y-62950849D01*
X100136887Y-63500000D01*
X100246120Y-64049151D01*
X100557189Y-64514698D01*
X101022736Y-64825767D01*
X101571887Y-64935000D01*
X101628113Y-64935000D01*
X102177264Y-64825767D01*
X102642811Y-64514698D01*
X102953880Y-64049151D01*
X103006584Y-63784187D01*
X105244752Y-63784187D01*
X105462757Y-64311800D01*
X105866077Y-64715824D01*
X106393309Y-64934750D01*
X106964187Y-64935248D01*
X107491800Y-64717243D01*
X107895824Y-64313923D01*
X108114750Y-63786691D01*
X108115000Y-63500000D01*
X115376887Y-63500000D01*
X115486120Y-64049151D01*
X115797189Y-64514698D01*
X116262736Y-64825767D01*
X116811887Y-64935000D01*
X116868113Y-64935000D01*
X117417264Y-64825767D01*
X117882811Y-64514698D01*
X118193880Y-64049151D01*
X118303113Y-63500000D01*
X118193880Y-62950849D01*
X117959450Y-62600000D01*
X121642560Y-62600000D01*
X121642560Y-64400000D01*
X121686838Y-64635317D01*
X121825910Y-64851441D01*
X122038110Y-64996431D01*
X122290000Y-65047440D01*
X124090000Y-65047440D01*
X124325317Y-65003162D01*
X124541441Y-64864090D01*
X124686431Y-64651890D01*
X124690567Y-64631466D01*
X124859357Y-64800551D01*
X125423330Y-65034733D01*
X126033991Y-65035265D01*
X126598371Y-64802068D01*
X127030551Y-64370643D01*
X127264733Y-63806670D01*
X127265265Y-63196009D01*
X127032068Y-62631629D01*
X126901179Y-62500510D01*
X132973070Y-62500510D01*
X132973070Y-64499490D01*
X133017348Y-64734807D01*
X133156420Y-64950931D01*
X133368620Y-65095921D01*
X133620510Y-65146930D01*
X135619490Y-65146930D01*
X135854807Y-65102652D01*
X136070931Y-64963580D01*
X136215921Y-64751380D01*
X136266930Y-64499490D01*
X136266930Y-62500510D01*
X136222652Y-62265193D01*
X136083580Y-62049069D01*
X135917527Y-61935610D01*
X136130072Y-61617514D01*
X136254490Y-60992022D01*
X136254490Y-60927978D01*
X136130072Y-60302486D01*
X135775759Y-59772219D01*
X135652710Y-59690000D01*
X135775759Y-59607781D01*
X136130072Y-59077514D01*
X136254490Y-58452022D01*
X136254490Y-58387978D01*
X136130072Y-57762486D01*
X135775759Y-57232219D01*
X135652710Y-57150000D01*
X135775759Y-57067781D01*
X136130072Y-56537514D01*
X136254490Y-55912022D01*
X136254490Y-55847978D01*
X136130072Y-55222486D01*
X135775759Y-54692219D01*
X135652710Y-54610000D01*
X135775759Y-54527781D01*
X136130072Y-53997514D01*
X136254490Y-53372022D01*
X136254490Y-53307978D01*
X136130072Y-52682486D01*
X135775759Y-52152219D01*
X135652710Y-52070000D01*
X135775759Y-51987781D01*
X136130072Y-51457514D01*
X136254490Y-50832022D01*
X136254490Y-50767978D01*
X136130072Y-50142486D01*
X135775759Y-49612219D01*
X135652710Y-49530000D01*
X135775759Y-49447781D01*
X136130072Y-48917514D01*
X136254490Y-48292022D01*
X136254490Y-48227978D01*
X136130072Y-47602486D01*
X135775759Y-47072219D01*
X135652710Y-46990000D01*
X135775759Y-46907781D01*
X136130072Y-46377514D01*
X136254490Y-45752022D01*
X136254490Y-45687978D01*
X136130072Y-45062486D01*
X135775759Y-44532219D01*
X135245492Y-44177906D01*
X134620000Y-44053488D01*
X133994508Y-44177906D01*
X133464241Y-44532219D01*
X133109928Y-45062486D01*
X132985510Y-45687978D01*
X132985510Y-45752022D01*
X133109928Y-46377514D01*
X133464241Y-46907781D01*
X133587290Y-46990000D01*
X133464241Y-47072219D01*
X133109928Y-47602486D01*
X132985510Y-48227978D01*
X132985510Y-48292022D01*
X133109928Y-48917514D01*
X133464241Y-49447781D01*
X133587290Y-49530000D01*
X133464241Y-49612219D01*
X133109928Y-50142486D01*
X132985510Y-50767978D01*
X132985510Y-50832022D01*
X133109928Y-51457514D01*
X133464241Y-51987781D01*
X133587290Y-52070000D01*
X133464241Y-52152219D01*
X133109928Y-52682486D01*
X132985510Y-53307978D01*
X132985510Y-53372022D01*
X133109928Y-53997514D01*
X133464241Y-54527781D01*
X133587290Y-54610000D01*
X133464241Y-54692219D01*
X133109928Y-55222486D01*
X132985510Y-55847978D01*
X132985510Y-55912022D01*
X133109928Y-56537514D01*
X133464241Y-57067781D01*
X133587290Y-57150000D01*
X133464241Y-57232219D01*
X133109928Y-57762486D01*
X132985510Y-58387978D01*
X132985510Y-58452022D01*
X133109928Y-59077514D01*
X133464241Y-59607781D01*
X133587290Y-59690000D01*
X133464241Y-59772219D01*
X133109928Y-60302486D01*
X132985510Y-60927978D01*
X132985510Y-60992022D01*
X133109928Y-61617514D01*
X133323453Y-61937077D01*
X133169069Y-62036420D01*
X133024079Y-62248620D01*
X132973070Y-62500510D01*
X126901179Y-62500510D01*
X126600643Y-62199449D01*
X126036670Y-61965267D01*
X125426009Y-61964735D01*
X124861629Y-62197932D01*
X124693387Y-62365880D01*
X124693162Y-62364683D01*
X124554090Y-62148559D01*
X124341890Y-62003569D01*
X124090000Y-61952560D01*
X122290000Y-61952560D01*
X122054683Y-61996838D01*
X121838559Y-62135910D01*
X121693569Y-62348110D01*
X121642560Y-62600000D01*
X117959450Y-62600000D01*
X117882811Y-62485302D01*
X117417264Y-62174233D01*
X116868113Y-62065000D01*
X116811887Y-62065000D01*
X116262736Y-62174233D01*
X115797189Y-62485302D01*
X115486120Y-62950849D01*
X115376887Y-63500000D01*
X108115000Y-63500000D01*
X108115248Y-63215813D01*
X107897243Y-62688200D01*
X107493923Y-62284176D01*
X106966691Y-62065250D01*
X106395813Y-62064752D01*
X105868200Y-62282757D01*
X105464176Y-62686077D01*
X105245250Y-63213309D01*
X105244752Y-63784187D01*
X103006584Y-63784187D01*
X103063113Y-63500000D01*
X102953880Y-62950849D01*
X102642811Y-62485302D01*
X102260725Y-62230000D01*
X102642811Y-61974698D01*
X102953880Y-61509151D01*
X103063113Y-60960000D01*
X102953880Y-60410849D01*
X102642811Y-59945302D01*
X102260725Y-59690000D01*
X102642811Y-59434698D01*
X102953880Y-58969151D01*
X103006584Y-58704187D01*
X105244752Y-58704187D01*
X105462757Y-59231800D01*
X105866077Y-59635824D01*
X106393309Y-59854750D01*
X106964187Y-59855248D01*
X107491800Y-59637243D01*
X107895824Y-59233923D01*
X108114750Y-58706691D01*
X108115000Y-58420000D01*
X115376887Y-58420000D01*
X115486120Y-58969151D01*
X115797189Y-59434698D01*
X116262736Y-59745767D01*
X116811887Y-59855000D01*
X116868113Y-59855000D01*
X117417264Y-59745767D01*
X117882811Y-59434698D01*
X118193880Y-58969151D01*
X118303113Y-58420000D01*
X118193880Y-57870849D01*
X117959450Y-57520000D01*
X121642560Y-57520000D01*
X121642560Y-59320000D01*
X121686838Y-59555317D01*
X121825910Y-59771441D01*
X122038110Y-59916431D01*
X122290000Y-59967440D01*
X124090000Y-59967440D01*
X124325317Y-59923162D01*
X124541441Y-59784090D01*
X124686431Y-59571890D01*
X124690567Y-59551466D01*
X124859357Y-59720551D01*
X125423330Y-59954733D01*
X126033991Y-59955265D01*
X126598371Y-59722068D01*
X127030551Y-59290643D01*
X127264733Y-58726670D01*
X127265265Y-58116009D01*
X127032068Y-57551629D01*
X126600643Y-57119449D01*
X126036670Y-56885267D01*
X125426009Y-56884735D01*
X124861629Y-57117932D01*
X124693387Y-57285880D01*
X124693162Y-57284683D01*
X124554090Y-57068559D01*
X124341890Y-56923569D01*
X124090000Y-56872560D01*
X122290000Y-56872560D01*
X122054683Y-56916838D01*
X121838559Y-57055910D01*
X121693569Y-57268110D01*
X121642560Y-57520000D01*
X117959450Y-57520000D01*
X117882811Y-57405302D01*
X117417264Y-57094233D01*
X116868113Y-56985000D01*
X116811887Y-56985000D01*
X116262736Y-57094233D01*
X115797189Y-57405302D01*
X115486120Y-57870849D01*
X115376887Y-58420000D01*
X108115000Y-58420000D01*
X108115248Y-58135813D01*
X107897243Y-57608200D01*
X107493923Y-57204176D01*
X106966691Y-56985250D01*
X106395813Y-56984752D01*
X105868200Y-57202757D01*
X105464176Y-57606077D01*
X105245250Y-58133309D01*
X105244752Y-58704187D01*
X103006584Y-58704187D01*
X103063113Y-58420000D01*
X102953880Y-57870849D01*
X102642811Y-57405302D01*
X102260725Y-57150000D01*
X102642811Y-56894698D01*
X102953880Y-56429151D01*
X103063113Y-55880000D01*
X102953880Y-55330849D01*
X102642811Y-54865302D01*
X102260725Y-54610000D01*
X102642811Y-54354698D01*
X102953880Y-53889151D01*
X103006584Y-53624187D01*
X105244752Y-53624187D01*
X105462757Y-54151800D01*
X105866077Y-54555824D01*
X106393309Y-54774750D01*
X106964187Y-54775248D01*
X107491800Y-54557243D01*
X107895824Y-54153923D01*
X108114750Y-53626691D01*
X108115000Y-53340000D01*
X115376887Y-53340000D01*
X115486120Y-53889151D01*
X115797189Y-54354698D01*
X116262736Y-54665767D01*
X116811887Y-54775000D01*
X116868113Y-54775000D01*
X117417264Y-54665767D01*
X117882811Y-54354698D01*
X118193880Y-53889151D01*
X118303113Y-53340000D01*
X118193880Y-52790849D01*
X117959450Y-52440000D01*
X121642560Y-52440000D01*
X121642560Y-54240000D01*
X121686838Y-54475317D01*
X121825910Y-54691441D01*
X122038110Y-54836431D01*
X122290000Y-54887440D01*
X124090000Y-54887440D01*
X124325317Y-54843162D01*
X124541441Y-54704090D01*
X124686431Y-54491890D01*
X124690567Y-54471466D01*
X124859357Y-54640551D01*
X125423330Y-54874733D01*
X126033991Y-54875265D01*
X126598371Y-54642068D01*
X127030551Y-54210643D01*
X127264733Y-53646670D01*
X127265265Y-53036009D01*
X127032068Y-52471629D01*
X126600643Y-52039449D01*
X126036670Y-51805267D01*
X125426009Y-51804735D01*
X124861629Y-52037932D01*
X124693387Y-52205880D01*
X124693162Y-52204683D01*
X124554090Y-51988559D01*
X124341890Y-51843569D01*
X124090000Y-51792560D01*
X122290000Y-51792560D01*
X122054683Y-51836838D01*
X121838559Y-51975910D01*
X121693569Y-52188110D01*
X121642560Y-52440000D01*
X117959450Y-52440000D01*
X117882811Y-52325302D01*
X117417264Y-52014233D01*
X116868113Y-51905000D01*
X116811887Y-51905000D01*
X116262736Y-52014233D01*
X115797189Y-52325302D01*
X115486120Y-52790849D01*
X115376887Y-53340000D01*
X108115000Y-53340000D01*
X108115248Y-53055813D01*
X107897243Y-52528200D01*
X107493923Y-52124176D01*
X106966691Y-51905250D01*
X106395813Y-51904752D01*
X105868200Y-52122757D01*
X105464176Y-52526077D01*
X105245250Y-53053309D01*
X105244752Y-53624187D01*
X103006584Y-53624187D01*
X103063113Y-53340000D01*
X102953880Y-52790849D01*
X102642811Y-52325302D01*
X102260725Y-52070000D01*
X102642811Y-51814698D01*
X102953880Y-51349151D01*
X103063113Y-50800000D01*
X102953880Y-50250849D01*
X102642811Y-49785302D01*
X102260725Y-49530000D01*
X102642811Y-49274698D01*
X102953880Y-48809151D01*
X103006584Y-48544187D01*
X105244752Y-48544187D01*
X105462757Y-49071800D01*
X105866077Y-49475824D01*
X106393309Y-49694750D01*
X106964187Y-49695248D01*
X107491800Y-49477243D01*
X107895824Y-49073923D01*
X108114750Y-48546691D01*
X108115000Y-48260000D01*
X115376887Y-48260000D01*
X115486120Y-48809151D01*
X115797189Y-49274698D01*
X116262736Y-49585767D01*
X116811887Y-49695000D01*
X116868113Y-49695000D01*
X117417264Y-49585767D01*
X117882811Y-49274698D01*
X118193880Y-48809151D01*
X118303113Y-48260000D01*
X118193880Y-47710849D01*
X117959450Y-47360000D01*
X121642560Y-47360000D01*
X121642560Y-49160000D01*
X121686838Y-49395317D01*
X121825910Y-49611441D01*
X122038110Y-49756431D01*
X122290000Y-49807440D01*
X124090000Y-49807440D01*
X124325317Y-49763162D01*
X124541441Y-49624090D01*
X124686431Y-49411890D01*
X124690567Y-49391466D01*
X124859357Y-49560551D01*
X125423330Y-49794733D01*
X126033991Y-49795265D01*
X126598371Y-49562068D01*
X127030551Y-49130643D01*
X127264733Y-48566670D01*
X127265265Y-47956009D01*
X127032068Y-47391629D01*
X126600643Y-46959449D01*
X126036670Y-46725267D01*
X125426009Y-46724735D01*
X124861629Y-46957932D01*
X124693387Y-47125880D01*
X124693162Y-47124683D01*
X124554090Y-46908559D01*
X124341890Y-46763569D01*
X124090000Y-46712560D01*
X122290000Y-46712560D01*
X122054683Y-46756838D01*
X121838559Y-46895910D01*
X121693569Y-47108110D01*
X121642560Y-47360000D01*
X117959450Y-47360000D01*
X117882811Y-47245302D01*
X117417264Y-46934233D01*
X116868113Y-46825000D01*
X116811887Y-46825000D01*
X116262736Y-46934233D01*
X115797189Y-47245302D01*
X115486120Y-47710849D01*
X115376887Y-48260000D01*
X108115000Y-48260000D01*
X108115248Y-47975813D01*
X107897243Y-47448200D01*
X107493923Y-47044176D01*
X106966691Y-46825250D01*
X106395813Y-46824752D01*
X105868200Y-47042757D01*
X105464176Y-47446077D01*
X105245250Y-47973309D01*
X105244752Y-48544187D01*
X103006584Y-48544187D01*
X103063113Y-48260000D01*
X102953880Y-47710849D01*
X102642811Y-47245302D01*
X102260725Y-46990000D01*
X102642811Y-46734698D01*
X102953880Y-46269151D01*
X103063113Y-45720000D01*
X102953880Y-45170849D01*
X102642811Y-44705302D01*
X102177264Y-44394233D01*
X101628113Y-44285000D01*
X101571887Y-44285000D01*
X101022736Y-44394233D01*
X100557189Y-44705302D01*
X100246120Y-45170849D01*
X100136887Y-45720000D01*
X86553113Y-45720000D01*
X86483685Y-45370961D01*
X92588096Y-45370961D01*
X92710085Y-45593000D01*
X93853000Y-45593000D01*
X93853000Y-44449371D01*
X94107000Y-44449371D01*
X94107000Y-45593000D01*
X95249915Y-45593000D01*
X95371904Y-45370961D01*
X95211041Y-44982577D01*
X94835134Y-44567611D01*
X94329041Y-44328086D01*
X94107000Y-44449371D01*
X93853000Y-44449371D01*
X93630959Y-44328086D01*
X93124866Y-44567611D01*
X92748959Y-44982577D01*
X92588096Y-45370961D01*
X86483685Y-45370961D01*
X86443880Y-45170849D01*
X86132811Y-44705302D01*
X85667264Y-44394233D01*
X85118113Y-44285000D01*
X85061887Y-44285000D01*
X84512736Y-44394233D01*
X84047189Y-44705302D01*
X83736120Y-45170849D01*
X83626887Y-45720000D01*
X78933113Y-45720000D01*
X78823880Y-45170849D01*
X78512811Y-44705302D01*
X78047264Y-44394233D01*
X77498113Y-44285000D01*
X77441887Y-44285000D01*
X76892736Y-44394233D01*
X76427189Y-44705302D01*
X76116120Y-45170849D01*
X76006887Y-45720000D01*
X73825000Y-45720000D01*
X73825248Y-45435813D01*
X73607243Y-44908200D01*
X73203923Y-44504176D01*
X72676691Y-44285250D01*
X72105813Y-44284752D01*
X71578200Y-44502757D01*
X71174176Y-44906077D01*
X70955250Y-45433309D01*
X70954752Y-46004187D01*
X63636584Y-46004187D01*
X63693113Y-45720000D01*
X63583880Y-45170849D01*
X63272811Y-44705302D01*
X62807264Y-44394233D01*
X62258113Y-44285000D01*
X62201887Y-44285000D01*
X61652736Y-44394233D01*
X61187189Y-44705302D01*
X60876120Y-45170849D01*
X60766887Y-45720000D01*
X57427440Y-45720000D01*
X57427440Y-44820000D01*
X57383162Y-44584683D01*
X57244090Y-44368559D01*
X57031890Y-44223569D01*
X56780000Y-44172560D01*
X54980000Y-44172560D01*
X54744683Y-44216838D01*
X54528559Y-44355910D01*
X54383569Y-44568110D01*
X54379433Y-44588534D01*
X54210643Y-44419449D01*
X53646670Y-44185267D01*
X53036009Y-44184735D01*
X52471629Y-44417932D01*
X52039449Y-44849357D01*
X51805267Y-45413330D01*
X51804735Y-46023991D01*
X46096930Y-46023991D01*
X46096930Y-44720510D01*
X46052652Y-44485193D01*
X45913580Y-44269069D01*
X45701380Y-44124079D01*
X45449490Y-44073070D01*
X43450510Y-44073070D01*
X43215193Y-44117348D01*
X42999069Y-44256420D01*
X42854079Y-44468620D01*
X42803070Y-44720510D01*
X40767000Y-44720510D01*
X40767000Y-40767000D01*
X138290000Y-40767000D01*
X138290000Y-138290000D01*
M02*
