G04 #@! TF.FileFunction,Legend,Top*
%FSLAX46Y46*%
G04 Gerber Fmt 4.6, Leading zero omitted, Abs format (unit mm)*
G04 Created by KiCad (PCBNEW 4.0.7) date Sunday, October 29, 2017 'PMt' 07:12:49 PM*
%MOMM*%
%LPD*%
G01*
G04 APERTURE LIST*
%ADD10C,0.100000*%
%ADD11C,0.300000*%
%ADD12C,0.150000*%
%ADD13C,0.120000*%
%ADD14C,0.250000*%
G04 APERTURE END LIST*
D10*
D11*
X129961429Y-109658571D02*
X129961429Y-110730000D01*
X129890001Y-110944286D01*
X129747144Y-111087143D01*
X129532858Y-111158571D01*
X129390001Y-111158571D01*
X131461429Y-111158571D02*
X130604286Y-111158571D01*
X131032858Y-111158571D02*
X131032858Y-109658571D01*
X130890001Y-109872857D01*
X130747143Y-110015714D01*
X130604286Y-110087143D01*
X133175714Y-109587143D02*
X131890000Y-111515714D01*
X134104286Y-109658571D02*
X134104286Y-110730000D01*
X134032858Y-110944286D01*
X133890001Y-111087143D01*
X133675715Y-111158571D01*
X133532858Y-111158571D01*
X135461429Y-110158571D02*
X135461429Y-111158571D01*
X135104286Y-109587143D02*
X134747143Y-110658571D01*
X135675715Y-110658571D01*
X134390000Y-113137143D02*
X135532857Y-113137143D01*
X134390000Y-115687143D02*
X135532857Y-115687143D01*
X134961428Y-116258571D02*
X134961428Y-115115714D01*
X42695714Y-71558571D02*
X42695714Y-72630000D01*
X42624286Y-72844286D01*
X42481429Y-72987143D01*
X42267143Y-73058571D01*
X42124286Y-73058571D01*
X43338571Y-71701429D02*
X43410000Y-71630000D01*
X43552857Y-71558571D01*
X43910000Y-71558571D01*
X44052857Y-71630000D01*
X44124286Y-71701429D01*
X44195714Y-71844286D01*
X44195714Y-71987143D01*
X44124286Y-72201429D01*
X43267143Y-73058571D01*
X44195714Y-73058571D01*
X45909999Y-71487143D02*
X44624285Y-73415714D01*
X46838571Y-71558571D02*
X46838571Y-72630000D01*
X46767143Y-72844286D01*
X46624286Y-72987143D01*
X46410000Y-73058571D01*
X46267143Y-73058571D01*
X47410000Y-71558571D02*
X48338571Y-71558571D01*
X47838571Y-72130000D01*
X48052857Y-72130000D01*
X48195714Y-72201429D01*
X48267143Y-72272857D01*
X48338571Y-72415714D01*
X48338571Y-72772857D01*
X48267143Y-72915714D01*
X48195714Y-72987143D01*
X48052857Y-73058571D01*
X47624285Y-73058571D01*
X47481428Y-72987143D01*
X47410000Y-72915714D01*
X42267143Y-75037143D02*
X43410000Y-75037143D01*
X42838571Y-75608571D02*
X42838571Y-74465714D01*
X42267143Y-77587143D02*
X43410000Y-77587143D01*
X126865715Y-135068571D02*
X127365715Y-136568571D01*
X127865715Y-135068571D01*
X128365715Y-135782857D02*
X128865715Y-135782857D01*
X129080001Y-136568571D02*
X128365715Y-136568571D01*
X128365715Y-135068571D01*
X129080001Y-135068571D01*
X130580001Y-136568571D02*
X130080001Y-135854286D01*
X129722858Y-136568571D02*
X129722858Y-135068571D01*
X130294286Y-135068571D01*
X130437144Y-135140000D01*
X130508572Y-135211429D01*
X130580001Y-135354286D01*
X130580001Y-135568571D01*
X130508572Y-135711429D01*
X130437144Y-135782857D01*
X130294286Y-135854286D01*
X129722858Y-135854286D01*
X132365715Y-136425714D02*
X132437143Y-136497143D01*
X132365715Y-136568571D01*
X132294286Y-136497143D01*
X132365715Y-136425714D01*
X132365715Y-136568571D01*
X132365715Y-135640000D02*
X132437143Y-135711429D01*
X132365715Y-135782857D01*
X132294286Y-135711429D01*
X132365715Y-135640000D01*
X132365715Y-135782857D01*
X135008572Y-136568571D02*
X134151429Y-136568571D01*
X134580001Y-136568571D02*
X134580001Y-135068571D01*
X134437144Y-135282857D01*
X134294286Y-135425714D01*
X134151429Y-135497143D01*
X135651429Y-136425714D02*
X135722857Y-136497143D01*
X135651429Y-136568571D01*
X135580000Y-136497143D01*
X135651429Y-136425714D01*
X135651429Y-136568571D01*
X136651429Y-135068571D02*
X136794286Y-135068571D01*
X136937143Y-135140000D01*
X137008572Y-135211429D01*
X137080001Y-135354286D01*
X137151429Y-135640000D01*
X137151429Y-135997143D01*
X137080001Y-136282857D01*
X137008572Y-136425714D01*
X136937143Y-136497143D01*
X136794286Y-136568571D01*
X136651429Y-136568571D01*
X136508572Y-136497143D01*
X136437143Y-136425714D01*
X136365715Y-136282857D01*
X136294286Y-135997143D01*
X136294286Y-135640000D01*
X136365715Y-135354286D01*
X136437143Y-135211429D01*
X136508572Y-135140000D01*
X136651429Y-135068571D01*
X109362857Y-72833571D02*
X109862857Y-74333571D01*
X110362857Y-72833571D01*
X110862857Y-74333571D02*
X110862857Y-72833571D01*
X111577143Y-74333571D02*
X111577143Y-72833571D01*
X112434286Y-74333571D01*
X112434286Y-72833571D01*
X113148572Y-74190714D02*
X113220000Y-74262143D01*
X113148572Y-74333571D01*
X113077143Y-74262143D01*
X113148572Y-74190714D01*
X113148572Y-74333571D01*
X113148572Y-73405000D02*
X113220000Y-73476429D01*
X113148572Y-73547857D01*
X113077143Y-73476429D01*
X113148572Y-73405000D01*
X113148572Y-73547857D01*
X115720001Y-72833571D02*
X115005715Y-72833571D01*
X114934286Y-73547857D01*
X115005715Y-73476429D01*
X115148572Y-73405000D01*
X115505715Y-73405000D01*
X115648572Y-73476429D01*
X115720001Y-73547857D01*
X115791429Y-73690714D01*
X115791429Y-74047857D01*
X115720001Y-74190714D01*
X115648572Y-74262143D01*
X115505715Y-74333571D01*
X115148572Y-74333571D01*
X115005715Y-74262143D01*
X114934286Y-74190714D01*
X117934286Y-73833571D02*
X117362857Y-73833571D01*
X120220000Y-73333571D02*
X120220000Y-74333571D01*
X119862857Y-72762143D02*
X119505714Y-73833571D01*
X120434286Y-73833571D01*
X121291428Y-72833571D02*
X121434285Y-72833571D01*
X121577142Y-72905000D01*
X121648571Y-72976429D01*
X121720000Y-73119286D01*
X121791428Y-73405000D01*
X121791428Y-73762143D01*
X121720000Y-74047857D01*
X121648571Y-74190714D01*
X121577142Y-74262143D01*
X121434285Y-74333571D01*
X121291428Y-74333571D01*
X121148571Y-74262143D01*
X121077142Y-74190714D01*
X121005714Y-74047857D01*
X120934285Y-73762143D01*
X120934285Y-73405000D01*
X121005714Y-73119286D01*
X121077142Y-72976429D01*
X121148571Y-72905000D01*
X121291428Y-72833571D01*
X122219999Y-72833571D02*
X122719999Y-74333571D01*
X123219999Y-72833571D01*
X110005714Y-77383571D02*
X109648571Y-77383571D01*
X109648571Y-75240714D01*
X110005714Y-75240714D01*
X112505714Y-76883571D02*
X111648571Y-76883571D01*
X112077143Y-76883571D02*
X112077143Y-75383571D01*
X111934286Y-75597857D01*
X111791428Y-75740714D01*
X111648571Y-75812143D01*
X113434285Y-75383571D02*
X113577142Y-75383571D01*
X113719999Y-75455000D01*
X113791428Y-75526429D01*
X113862857Y-75669286D01*
X113934285Y-75955000D01*
X113934285Y-76312143D01*
X113862857Y-76597857D01*
X113791428Y-76740714D01*
X113719999Y-76812143D01*
X113577142Y-76883571D01*
X113434285Y-76883571D01*
X113291428Y-76812143D01*
X113219999Y-76740714D01*
X113148571Y-76597857D01*
X113077142Y-76312143D01*
X113077142Y-75955000D01*
X113148571Y-75669286D01*
X113219999Y-75526429D01*
X113291428Y-75455000D01*
X113434285Y-75383571D01*
X114577142Y-76883571D02*
X114577142Y-75383571D01*
X115434285Y-76883571D02*
X114791428Y-76026429D01*
X115434285Y-75383571D02*
X114577142Y-76240714D01*
X118005713Y-76883571D02*
X117148570Y-76883571D01*
X117577142Y-76883571D02*
X117577142Y-75383571D01*
X117434285Y-75597857D01*
X117291427Y-75740714D01*
X117148570Y-75812143D01*
X119719998Y-75312143D02*
X118434284Y-77240714D01*
X120148570Y-75526429D02*
X120219999Y-75455000D01*
X120362856Y-75383571D01*
X120719999Y-75383571D01*
X120862856Y-75455000D01*
X120934285Y-75526429D01*
X121005713Y-75669286D01*
X121005713Y-75812143D01*
X120934285Y-76026429D01*
X120077142Y-76883571D01*
X121005713Y-76883571D01*
X121505713Y-75383571D02*
X121862856Y-76883571D01*
X122148570Y-75812143D01*
X122434284Y-76883571D01*
X122791427Y-75383571D01*
X124291427Y-75883571D02*
X124862856Y-75883571D01*
X124505713Y-75383571D02*
X124505713Y-76669286D01*
X124577141Y-76812143D01*
X124719999Y-76883571D01*
X124862856Y-76883571D01*
X125577142Y-76883571D02*
X125434284Y-76812143D01*
X125362856Y-76740714D01*
X125291427Y-76597857D01*
X125291427Y-76169286D01*
X125362856Y-76026429D01*
X125434284Y-75955000D01*
X125577142Y-75883571D01*
X125791427Y-75883571D01*
X125934284Y-75955000D01*
X126005713Y-76026429D01*
X126077142Y-76169286D01*
X126077142Y-76597857D01*
X126005713Y-76740714D01*
X125934284Y-76812143D01*
X125791427Y-76883571D01*
X125577142Y-76883571D01*
X128505713Y-75883571D02*
X128505713Y-77097857D01*
X128434284Y-77240714D01*
X128362856Y-77312143D01*
X128219999Y-77383571D01*
X128005713Y-77383571D01*
X127862856Y-77312143D01*
X128505713Y-76812143D02*
X128362856Y-76883571D01*
X128077142Y-76883571D01*
X127934284Y-76812143D01*
X127862856Y-76740714D01*
X127791427Y-76597857D01*
X127791427Y-76169286D01*
X127862856Y-76026429D01*
X127934284Y-75955000D01*
X128077142Y-75883571D01*
X128362856Y-75883571D01*
X128505713Y-75955000D01*
X129219999Y-76883571D02*
X129219999Y-75883571D01*
X129219999Y-76169286D02*
X129291427Y-76026429D01*
X129362856Y-75955000D01*
X129505713Y-75883571D01*
X129648570Y-75883571D01*
X130362856Y-76883571D02*
X130219998Y-76812143D01*
X130148570Y-76740714D01*
X130077141Y-76597857D01*
X130077141Y-76169286D01*
X130148570Y-76026429D01*
X130219998Y-75955000D01*
X130362856Y-75883571D01*
X130577141Y-75883571D01*
X130719998Y-75955000D01*
X130791427Y-76026429D01*
X130862856Y-76169286D01*
X130862856Y-76597857D01*
X130791427Y-76740714D01*
X130719998Y-76812143D01*
X130577141Y-76883571D01*
X130362856Y-76883571D01*
X132148570Y-75883571D02*
X132148570Y-76883571D01*
X131505713Y-75883571D02*
X131505713Y-76669286D01*
X131577141Y-76812143D01*
X131719999Y-76883571D01*
X131934284Y-76883571D01*
X132077141Y-76812143D01*
X132148570Y-76740714D01*
X132862856Y-75883571D02*
X132862856Y-76883571D01*
X132862856Y-76026429D02*
X132934284Y-75955000D01*
X133077142Y-75883571D01*
X133291427Y-75883571D01*
X133434284Y-75955000D01*
X133505713Y-76097857D01*
X133505713Y-76883571D01*
X134862856Y-76883571D02*
X134862856Y-75383571D01*
X134862856Y-76812143D02*
X134719999Y-76883571D01*
X134434285Y-76883571D01*
X134291427Y-76812143D01*
X134219999Y-76740714D01*
X134148570Y-76597857D01*
X134148570Y-76169286D01*
X134219999Y-76026429D01*
X134291427Y-75955000D01*
X134434285Y-75883571D01*
X134719999Y-75883571D01*
X134862856Y-75955000D01*
X136577142Y-77383571D02*
X136934285Y-77383571D01*
X136934285Y-75240714D01*
X136577142Y-75240714D01*
X103272856Y-70528571D02*
X102415713Y-70528571D01*
X102844285Y-70528571D02*
X102844285Y-69028571D01*
X102701428Y-69242857D01*
X102558570Y-69385714D01*
X102415713Y-69457143D01*
X104558570Y-69028571D02*
X104272856Y-69028571D01*
X104129999Y-69100000D01*
X104058570Y-69171429D01*
X103915713Y-69385714D01*
X103844284Y-69671429D01*
X103844284Y-70242857D01*
X103915713Y-70385714D01*
X103987141Y-70457143D01*
X104129999Y-70528571D01*
X104415713Y-70528571D01*
X104558570Y-70457143D01*
X104629999Y-70385714D01*
X104701427Y-70242857D01*
X104701427Y-69885714D01*
X104629999Y-69742857D01*
X104558570Y-69671429D01*
X104415713Y-69600000D01*
X104129999Y-69600000D01*
X103987141Y-69671429D01*
X103915713Y-69742857D01*
X103844284Y-69885714D01*
X107344284Y-70385714D02*
X107272855Y-70457143D01*
X107058569Y-70528571D01*
X106915712Y-70528571D01*
X106701427Y-70457143D01*
X106558569Y-70314286D01*
X106487141Y-70171429D01*
X106415712Y-69885714D01*
X106415712Y-69671429D01*
X106487141Y-69385714D01*
X106558569Y-69242857D01*
X106701427Y-69100000D01*
X106915712Y-69028571D01*
X107058569Y-69028571D01*
X107272855Y-69100000D01*
X107344284Y-69171429D01*
X107987141Y-70528571D02*
X107987141Y-69028571D01*
X107987141Y-69742857D02*
X108844284Y-69742857D01*
X108844284Y-70528571D02*
X108844284Y-69028571D01*
X109487141Y-70100000D02*
X110201427Y-70100000D01*
X109344284Y-70528571D02*
X109844284Y-69028571D01*
X110344284Y-70528571D01*
X110844284Y-70528571D02*
X110844284Y-69028571D01*
X111701427Y-70528571D01*
X111701427Y-69028571D01*
X112415713Y-70528571D02*
X112415713Y-69028571D01*
X113272856Y-70528571D01*
X113272856Y-69028571D01*
X113987142Y-69742857D02*
X114487142Y-69742857D01*
X114701428Y-70528571D02*
X113987142Y-70528571D01*
X113987142Y-69028571D01*
X114701428Y-69028571D01*
X116058571Y-70528571D02*
X115344285Y-70528571D01*
X115344285Y-69028571D01*
X117987142Y-69028571D02*
X118272856Y-69028571D01*
X118415714Y-69100000D01*
X118558571Y-69242857D01*
X118629999Y-69528571D01*
X118629999Y-70028571D01*
X118558571Y-70314286D01*
X118415714Y-70457143D01*
X118272856Y-70528571D01*
X117987142Y-70528571D01*
X117844285Y-70457143D01*
X117701428Y-70314286D01*
X117629999Y-70028571D01*
X117629999Y-69528571D01*
X117701428Y-69242857D01*
X117844285Y-69100000D01*
X117987142Y-69028571D01*
X119272857Y-70528571D02*
X119272857Y-69028571D01*
X119844285Y-69028571D01*
X119987143Y-69100000D01*
X120058571Y-69171429D01*
X120130000Y-69314286D01*
X120130000Y-69528571D01*
X120058571Y-69671429D01*
X119987143Y-69742857D01*
X119844285Y-69814286D01*
X119272857Y-69814286D01*
X120558571Y-69028571D02*
X121415714Y-69028571D01*
X120987143Y-70528571D02*
X120987143Y-69028571D01*
X122201428Y-69028571D02*
X122487142Y-69028571D01*
X122630000Y-69100000D01*
X122772857Y-69242857D01*
X122844285Y-69528571D01*
X122844285Y-70028571D01*
X122772857Y-70314286D01*
X122630000Y-70457143D01*
X122487142Y-70528571D01*
X122201428Y-70528571D01*
X122058571Y-70457143D01*
X121915714Y-70314286D01*
X121844285Y-70028571D01*
X121844285Y-69528571D01*
X121915714Y-69242857D01*
X122058571Y-69100000D01*
X122201428Y-69028571D01*
X124630000Y-70528571D02*
X124630000Y-69028571D01*
X126415714Y-68957143D02*
X125130000Y-70885714D01*
X127201429Y-69028571D02*
X127487143Y-69028571D01*
X127630001Y-69100000D01*
X127772858Y-69242857D01*
X127844286Y-69528571D01*
X127844286Y-70028571D01*
X127772858Y-70314286D01*
X127630001Y-70457143D01*
X127487143Y-70528571D01*
X127201429Y-70528571D01*
X127058572Y-70457143D01*
X126915715Y-70314286D01*
X126844286Y-70028571D01*
X126844286Y-69528571D01*
X126915715Y-69242857D01*
X127058572Y-69100000D01*
X127201429Y-69028571D01*
X130130001Y-69742857D02*
X130344287Y-69814286D01*
X130415715Y-69885714D01*
X130487144Y-70028571D01*
X130487144Y-70242857D01*
X130415715Y-70385714D01*
X130344287Y-70457143D01*
X130201429Y-70528571D01*
X129630001Y-70528571D01*
X129630001Y-69028571D01*
X130130001Y-69028571D01*
X130272858Y-69100000D01*
X130344287Y-69171429D01*
X130415715Y-69314286D01*
X130415715Y-69457143D01*
X130344287Y-69600000D01*
X130272858Y-69671429D01*
X130130001Y-69742857D01*
X129630001Y-69742857D01*
X131415715Y-69028571D02*
X131701429Y-69028571D01*
X131844287Y-69100000D01*
X131987144Y-69242857D01*
X132058572Y-69528571D01*
X132058572Y-70028571D01*
X131987144Y-70314286D01*
X131844287Y-70457143D01*
X131701429Y-70528571D01*
X131415715Y-70528571D01*
X131272858Y-70457143D01*
X131130001Y-70314286D01*
X131058572Y-70028571D01*
X131058572Y-69528571D01*
X131130001Y-69242857D01*
X131272858Y-69100000D01*
X131415715Y-69028571D01*
X132630001Y-70100000D02*
X133344287Y-70100000D01*
X132487144Y-70528571D02*
X132987144Y-69028571D01*
X133487144Y-70528571D01*
X134844287Y-70528571D02*
X134344287Y-69814286D01*
X133987144Y-70528571D02*
X133987144Y-69028571D01*
X134558572Y-69028571D01*
X134701430Y-69100000D01*
X134772858Y-69171429D01*
X134844287Y-69314286D01*
X134844287Y-69528571D01*
X134772858Y-69671429D01*
X134701430Y-69742857D01*
X134558572Y-69814286D01*
X133987144Y-69814286D01*
X135487144Y-70528571D02*
X135487144Y-69028571D01*
X135844287Y-69028571D01*
X136058572Y-69100000D01*
X136201430Y-69242857D01*
X136272858Y-69385714D01*
X136344287Y-69671429D01*
X136344287Y-69885714D01*
X136272858Y-70171429D01*
X136201430Y-70314286D01*
X136058572Y-70457143D01*
X135844287Y-70528571D01*
X135487144Y-70528571D01*
D12*
X113030000Y-137160000D02*
X69850000Y-137160000D01*
X113030000Y-114300000D02*
X69850000Y-114300000D01*
X69850000Y-114300000D02*
X69850000Y-137160000D01*
X113030000Y-137160000D02*
X113030000Y-114300000D01*
X101465000Y-65795000D02*
X101465000Y-64525000D01*
X94115000Y-65795000D02*
X94115000Y-64525000D01*
X94115000Y-43425000D02*
X94115000Y-44695000D01*
X101465000Y-43425000D02*
X101465000Y-44695000D01*
X101465000Y-65795000D02*
X94115000Y-65795000D01*
X101465000Y-43425000D02*
X94115000Y-43425000D01*
X101465000Y-64525000D02*
X102400000Y-64525000D01*
D13*
X124270000Y-62639000D02*
X125001000Y-62639000D01*
X126460000Y-62639000D02*
X126770000Y-62639000D01*
X124270000Y-64361000D02*
X125001000Y-64361000D01*
X126460000Y-64361000D02*
X126770000Y-64361000D01*
X126770000Y-62639000D02*
X126770000Y-62945000D01*
X126770000Y-64055000D02*
X126770000Y-64361000D01*
X124270000Y-57559000D02*
X125001000Y-57559000D01*
X126460000Y-57559000D02*
X126770000Y-57559000D01*
X124270000Y-59281000D02*
X125001000Y-59281000D01*
X126460000Y-59281000D02*
X126770000Y-59281000D01*
X126770000Y-57559000D02*
X126770000Y-57865000D01*
X126770000Y-58975000D02*
X126770000Y-59281000D01*
X124270000Y-52479000D02*
X125001000Y-52479000D01*
X126460000Y-52479000D02*
X126770000Y-52479000D01*
X124270000Y-54201000D02*
X125001000Y-54201000D01*
X126460000Y-54201000D02*
X126770000Y-54201000D01*
X126770000Y-52479000D02*
X126770000Y-52785000D01*
X126770000Y-53895000D02*
X126770000Y-54201000D01*
X124270000Y-47399000D02*
X125001000Y-47399000D01*
X126460000Y-47399000D02*
X126770000Y-47399000D01*
X124270000Y-49121000D02*
X125001000Y-49121000D01*
X126460000Y-49121000D02*
X126770000Y-49121000D01*
X126770000Y-47399000D02*
X126770000Y-47705000D01*
X126770000Y-48815000D02*
X126770000Y-49121000D01*
D12*
X77605000Y-43425000D02*
X77605000Y-44695000D01*
X84955000Y-43425000D02*
X84955000Y-44695000D01*
X84955000Y-65795000D02*
X84955000Y-64525000D01*
X77605000Y-65795000D02*
X77605000Y-64525000D01*
X77605000Y-43425000D02*
X84955000Y-43425000D01*
X77605000Y-65795000D02*
X84955000Y-65795000D01*
X77605000Y-44695000D02*
X76670000Y-44695000D01*
X77605000Y-85335000D02*
X77605000Y-86605000D01*
X84955000Y-85335000D02*
X84955000Y-86605000D01*
X84955000Y-107705000D02*
X84955000Y-106435000D01*
X77605000Y-107705000D02*
X77605000Y-106435000D01*
X77605000Y-85335000D02*
X84955000Y-85335000D01*
X77605000Y-107705000D02*
X84955000Y-107705000D01*
X77605000Y-86605000D02*
X76670000Y-86605000D01*
X101465000Y-107705000D02*
X101465000Y-106435000D01*
X94115000Y-107705000D02*
X94115000Y-106435000D01*
X94115000Y-85335000D02*
X94115000Y-86605000D01*
X101465000Y-85335000D02*
X101465000Y-86605000D01*
X101465000Y-107705000D02*
X94115000Y-107705000D01*
X101465000Y-85335000D02*
X94115000Y-85335000D01*
X101465000Y-106435000D02*
X102400000Y-106435000D01*
D13*
X54800000Y-46581000D02*
X54069000Y-46581000D01*
X52610000Y-46581000D02*
X52300000Y-46581000D01*
X54800000Y-44859000D02*
X54069000Y-44859000D01*
X52610000Y-44859000D02*
X52300000Y-44859000D01*
X52300000Y-46581000D02*
X52300000Y-46275000D01*
X52300000Y-45165000D02*
X52300000Y-44859000D01*
X54800000Y-51661000D02*
X54069000Y-51661000D01*
X52610000Y-51661000D02*
X52300000Y-51661000D01*
X54800000Y-49939000D02*
X54069000Y-49939000D01*
X52610000Y-49939000D02*
X52300000Y-49939000D01*
X52300000Y-51661000D02*
X52300000Y-51355000D01*
X52300000Y-50245000D02*
X52300000Y-49939000D01*
X54800000Y-56741000D02*
X54069000Y-56741000D01*
X52610000Y-56741000D02*
X52300000Y-56741000D01*
X54800000Y-55019000D02*
X54069000Y-55019000D01*
X52610000Y-55019000D02*
X52300000Y-55019000D01*
X52300000Y-56741000D02*
X52300000Y-56435000D01*
X52300000Y-55325000D02*
X52300000Y-55019000D01*
X54800000Y-61821000D02*
X54069000Y-61821000D01*
X52610000Y-61821000D02*
X52300000Y-61821000D01*
X54800000Y-60099000D02*
X54069000Y-60099000D01*
X52610000Y-60099000D02*
X52300000Y-60099000D01*
X52300000Y-61821000D02*
X52300000Y-61515000D01*
X52300000Y-60405000D02*
X52300000Y-60099000D01*
X54800000Y-88491000D02*
X54069000Y-88491000D01*
X52610000Y-88491000D02*
X52300000Y-88491000D01*
X54800000Y-86769000D02*
X54069000Y-86769000D01*
X52610000Y-86769000D02*
X52300000Y-86769000D01*
X52300000Y-88491000D02*
X52300000Y-88185000D01*
X52300000Y-87075000D02*
X52300000Y-86769000D01*
X54800000Y-93571000D02*
X54069000Y-93571000D01*
X52610000Y-93571000D02*
X52300000Y-93571000D01*
X54800000Y-91849000D02*
X54069000Y-91849000D01*
X52610000Y-91849000D02*
X52300000Y-91849000D01*
X52300000Y-93571000D02*
X52300000Y-93265000D01*
X52300000Y-92155000D02*
X52300000Y-91849000D01*
X54800000Y-98651000D02*
X54069000Y-98651000D01*
X52610000Y-98651000D02*
X52300000Y-98651000D01*
X54800000Y-96929000D02*
X54069000Y-96929000D01*
X52610000Y-96929000D02*
X52300000Y-96929000D01*
X52300000Y-98651000D02*
X52300000Y-98345000D01*
X52300000Y-97235000D02*
X52300000Y-96929000D01*
X54800000Y-103731000D02*
X54069000Y-103731000D01*
X52610000Y-103731000D02*
X52300000Y-103731000D01*
X54800000Y-102009000D02*
X54069000Y-102009000D01*
X52610000Y-102009000D02*
X52300000Y-102009000D01*
X52300000Y-103731000D02*
X52300000Y-103425000D01*
X52300000Y-102315000D02*
X52300000Y-102009000D01*
X124270000Y-104549000D02*
X125001000Y-104549000D01*
X126460000Y-104549000D02*
X126770000Y-104549000D01*
X124270000Y-106271000D02*
X125001000Y-106271000D01*
X126460000Y-106271000D02*
X126770000Y-106271000D01*
X126770000Y-104549000D02*
X126770000Y-104855000D01*
X126770000Y-105965000D02*
X126770000Y-106271000D01*
X124270000Y-99469000D02*
X125001000Y-99469000D01*
X126460000Y-99469000D02*
X126770000Y-99469000D01*
X124270000Y-101191000D02*
X125001000Y-101191000D01*
X126460000Y-101191000D02*
X126770000Y-101191000D01*
X126770000Y-99469000D02*
X126770000Y-99775000D01*
X126770000Y-100885000D02*
X126770000Y-101191000D01*
X124270000Y-94389000D02*
X125001000Y-94389000D01*
X126460000Y-94389000D02*
X126770000Y-94389000D01*
X124270000Y-96111000D02*
X125001000Y-96111000D01*
X126460000Y-96111000D02*
X126770000Y-96111000D01*
X126770000Y-94389000D02*
X126770000Y-94695000D01*
X126770000Y-95805000D02*
X126770000Y-96111000D01*
X124270000Y-89309000D02*
X125001000Y-89309000D01*
X126460000Y-89309000D02*
X126770000Y-89309000D01*
X124270000Y-91031000D02*
X125001000Y-91031000D01*
X126460000Y-91031000D02*
X126770000Y-91031000D01*
X126770000Y-89309000D02*
X126770000Y-89615000D01*
X126770000Y-90725000D02*
X126770000Y-91031000D01*
D12*
X131521200Y-44211240D02*
X131521200Y-65008760D01*
X131919980Y-65008760D02*
X131919980Y-44211240D01*
X137718800Y-44211240D02*
X137718800Y-65008760D01*
X137220960Y-65008760D02*
X137220960Y-44211240D01*
X137220960Y-54610000D02*
X137718800Y-54610000D01*
X137220960Y-47010320D02*
X137718800Y-47010320D01*
X137220960Y-49509680D02*
X137718800Y-49509680D01*
X137220960Y-52108100D02*
X137718800Y-52108100D01*
X137220960Y-57109360D02*
X137718800Y-57109360D01*
X137220960Y-59707780D02*
X137718800Y-59707780D01*
X137718800Y-64808100D02*
X137220960Y-64808100D01*
X137220960Y-44411900D02*
X137718800Y-44411900D01*
X137718800Y-62204600D02*
X137220960Y-62204600D01*
X137718800Y-44213780D02*
X131521200Y-44213780D01*
X131521200Y-65006220D02*
X137718800Y-65006220D01*
X47548800Y-65008760D02*
X47548800Y-44211240D01*
X47150020Y-44211240D02*
X47150020Y-65008760D01*
X41351200Y-65008760D02*
X41351200Y-44211240D01*
X41849040Y-44211240D02*
X41849040Y-65008760D01*
X41849040Y-54610000D02*
X41351200Y-54610000D01*
X41849040Y-62209680D02*
X41351200Y-62209680D01*
X41849040Y-59710320D02*
X41351200Y-59710320D01*
X41849040Y-57111900D02*
X41351200Y-57111900D01*
X41849040Y-52110640D02*
X41351200Y-52110640D01*
X41849040Y-49512220D02*
X41351200Y-49512220D01*
X41351200Y-44411900D02*
X41849040Y-44411900D01*
X41849040Y-64808100D02*
X41351200Y-64808100D01*
X41351200Y-47015400D02*
X41849040Y-47015400D01*
X41351200Y-65006220D02*
X47548800Y-65006220D01*
X47548800Y-44213780D02*
X41351200Y-44213780D01*
X47548800Y-106918760D02*
X47548800Y-86121240D01*
X47150020Y-86121240D02*
X47150020Y-106918760D01*
X41351200Y-106918760D02*
X41351200Y-86121240D01*
X41849040Y-86121240D02*
X41849040Y-106918760D01*
X41849040Y-96520000D02*
X41351200Y-96520000D01*
X41849040Y-104119680D02*
X41351200Y-104119680D01*
X41849040Y-101620320D02*
X41351200Y-101620320D01*
X41849040Y-99021900D02*
X41351200Y-99021900D01*
X41849040Y-94020640D02*
X41351200Y-94020640D01*
X41849040Y-91422220D02*
X41351200Y-91422220D01*
X41351200Y-86321900D02*
X41849040Y-86321900D01*
X41849040Y-106718100D02*
X41351200Y-106718100D01*
X41351200Y-88925400D02*
X41849040Y-88925400D01*
X41351200Y-106916220D02*
X47548800Y-106916220D01*
X47548800Y-86123780D02*
X41351200Y-86123780D01*
X131521200Y-86121240D02*
X131521200Y-106918760D01*
X131919980Y-106918760D02*
X131919980Y-86121240D01*
X137718800Y-86121240D02*
X137718800Y-106918760D01*
X137220960Y-106918760D02*
X137220960Y-86121240D01*
X137220960Y-96520000D02*
X137718800Y-96520000D01*
X137220960Y-88920320D02*
X137718800Y-88920320D01*
X137220960Y-91419680D02*
X137718800Y-91419680D01*
X137220960Y-94018100D02*
X137718800Y-94018100D01*
X137220960Y-99019360D02*
X137718800Y-99019360D01*
X137220960Y-101617780D02*
X137718800Y-101617780D01*
X137718800Y-106718100D02*
X137220960Y-106718100D01*
X137220960Y-86321900D02*
X137718800Y-86321900D01*
X137718800Y-104114600D02*
X137220960Y-104114600D01*
X137718800Y-86123780D02*
X131521200Y-86123780D01*
X131521200Y-106916220D02*
X137718800Y-106916220D01*
X101355000Y-72525000D02*
X100085000Y-72525000D01*
X101355000Y-79875000D02*
X100085000Y-79875000D01*
X63745000Y-79875000D02*
X65015000Y-79875000D01*
X63745000Y-72525000D02*
X65015000Y-72525000D01*
X101355000Y-72525000D02*
X101355000Y-79875000D01*
X63745000Y-72525000D02*
X63745000Y-79875000D01*
X100085000Y-72525000D02*
X100085000Y-71590000D01*
D13*
X108550000Y-62190000D02*
X108550000Y-64810000D01*
X108550000Y-64810000D02*
X114970000Y-64810000D01*
X114970000Y-64810000D02*
X114970000Y-62190000D01*
X114970000Y-62190000D02*
X108550000Y-62190000D01*
X107660000Y-63500000D02*
X108550000Y-63500000D01*
X115860000Y-63500000D02*
X114970000Y-63500000D01*
X108550000Y-57110000D02*
X108550000Y-59730000D01*
X108550000Y-59730000D02*
X114970000Y-59730000D01*
X114970000Y-59730000D02*
X114970000Y-57110000D01*
X114970000Y-57110000D02*
X108550000Y-57110000D01*
X107660000Y-58420000D02*
X108550000Y-58420000D01*
X115860000Y-58420000D02*
X114970000Y-58420000D01*
X108550000Y-52030000D02*
X108550000Y-54650000D01*
X108550000Y-54650000D02*
X114970000Y-54650000D01*
X114970000Y-54650000D02*
X114970000Y-52030000D01*
X114970000Y-52030000D02*
X108550000Y-52030000D01*
X107660000Y-53340000D02*
X108550000Y-53340000D01*
X115860000Y-53340000D02*
X114970000Y-53340000D01*
X108550000Y-46950000D02*
X108550000Y-49570000D01*
X108550000Y-49570000D02*
X114970000Y-49570000D01*
X114970000Y-49570000D02*
X114970000Y-46950000D01*
X114970000Y-46950000D02*
X108550000Y-46950000D01*
X107660000Y-48260000D02*
X108550000Y-48260000D01*
X115860000Y-48260000D02*
X114970000Y-48260000D01*
X70520000Y-47030000D02*
X70520000Y-44410000D01*
X70520000Y-44410000D02*
X64100000Y-44410000D01*
X64100000Y-44410000D02*
X64100000Y-47030000D01*
X64100000Y-47030000D02*
X70520000Y-47030000D01*
X71410000Y-45720000D02*
X70520000Y-45720000D01*
X63210000Y-45720000D02*
X64100000Y-45720000D01*
X70520000Y-52110000D02*
X70520000Y-49490000D01*
X70520000Y-49490000D02*
X64100000Y-49490000D01*
X64100000Y-49490000D02*
X64100000Y-52110000D01*
X64100000Y-52110000D02*
X70520000Y-52110000D01*
X71410000Y-50800000D02*
X70520000Y-50800000D01*
X63210000Y-50800000D02*
X64100000Y-50800000D01*
X70520000Y-57190000D02*
X70520000Y-54570000D01*
X70520000Y-54570000D02*
X64100000Y-54570000D01*
X64100000Y-54570000D02*
X64100000Y-57190000D01*
X64100000Y-57190000D02*
X70520000Y-57190000D01*
X71410000Y-55880000D02*
X70520000Y-55880000D01*
X63210000Y-55880000D02*
X64100000Y-55880000D01*
X70520000Y-62270000D02*
X70520000Y-59650000D01*
X70520000Y-59650000D02*
X64100000Y-59650000D01*
X64100000Y-59650000D02*
X64100000Y-62270000D01*
X64100000Y-62270000D02*
X70520000Y-62270000D01*
X71410000Y-60960000D02*
X70520000Y-60960000D01*
X63210000Y-60960000D02*
X64100000Y-60960000D01*
X70520000Y-88940000D02*
X70520000Y-86320000D01*
X70520000Y-86320000D02*
X64100000Y-86320000D01*
X64100000Y-86320000D02*
X64100000Y-88940000D01*
X64100000Y-88940000D02*
X70520000Y-88940000D01*
X71410000Y-87630000D02*
X70520000Y-87630000D01*
X63210000Y-87630000D02*
X64100000Y-87630000D01*
X70520000Y-94020000D02*
X70520000Y-91400000D01*
X70520000Y-91400000D02*
X64100000Y-91400000D01*
X64100000Y-91400000D02*
X64100000Y-94020000D01*
X64100000Y-94020000D02*
X70520000Y-94020000D01*
X71410000Y-92710000D02*
X70520000Y-92710000D01*
X63210000Y-92710000D02*
X64100000Y-92710000D01*
X70520000Y-99100000D02*
X70520000Y-96480000D01*
X70520000Y-96480000D02*
X64100000Y-96480000D01*
X64100000Y-96480000D02*
X64100000Y-99100000D01*
X64100000Y-99100000D02*
X70520000Y-99100000D01*
X71410000Y-97790000D02*
X70520000Y-97790000D01*
X63210000Y-97790000D02*
X64100000Y-97790000D01*
X70520000Y-104180000D02*
X70520000Y-101560000D01*
X70520000Y-101560000D02*
X64100000Y-101560000D01*
X64100000Y-101560000D02*
X64100000Y-104180000D01*
X64100000Y-104180000D02*
X70520000Y-104180000D01*
X71410000Y-102870000D02*
X70520000Y-102870000D01*
X63210000Y-102870000D02*
X64100000Y-102870000D01*
X108550000Y-104100000D02*
X108550000Y-106720000D01*
X108550000Y-106720000D02*
X114970000Y-106720000D01*
X114970000Y-106720000D02*
X114970000Y-104100000D01*
X114970000Y-104100000D02*
X108550000Y-104100000D01*
X107660000Y-105410000D02*
X108550000Y-105410000D01*
X115860000Y-105410000D02*
X114970000Y-105410000D01*
X108550000Y-99020000D02*
X108550000Y-101640000D01*
X108550000Y-101640000D02*
X114970000Y-101640000D01*
X114970000Y-101640000D02*
X114970000Y-99020000D01*
X114970000Y-99020000D02*
X108550000Y-99020000D01*
X107660000Y-100330000D02*
X108550000Y-100330000D01*
X115860000Y-100330000D02*
X114970000Y-100330000D01*
X108550000Y-93940000D02*
X108550000Y-96560000D01*
X108550000Y-96560000D02*
X114970000Y-96560000D01*
X114970000Y-96560000D02*
X114970000Y-93940000D01*
X114970000Y-93940000D02*
X108550000Y-93940000D01*
X107660000Y-95250000D02*
X108550000Y-95250000D01*
X115860000Y-95250000D02*
X114970000Y-95250000D01*
X108550000Y-88860000D02*
X108550000Y-91480000D01*
X108550000Y-91480000D02*
X114970000Y-91480000D01*
X114970000Y-91480000D02*
X114970000Y-88860000D01*
X114970000Y-88860000D02*
X108550000Y-88860000D01*
X107660000Y-90170000D02*
X108550000Y-90170000D01*
X115860000Y-90170000D02*
X114970000Y-90170000D01*
X57110000Y-131480000D02*
X59730000Y-131480000D01*
X59730000Y-131480000D02*
X59730000Y-125060000D01*
X59730000Y-125060000D02*
X57110000Y-125060000D01*
X57110000Y-125060000D02*
X57110000Y-131480000D01*
X58420000Y-132370000D02*
X58420000Y-131480000D01*
X58420000Y-124170000D02*
X58420000Y-125060000D01*
X48220000Y-128940000D02*
X50840000Y-128940000D01*
X50840000Y-128940000D02*
X50840000Y-122520000D01*
X50840000Y-122520000D02*
X48220000Y-122520000D01*
X48220000Y-122520000D02*
X48220000Y-128940000D01*
X49530000Y-129830000D02*
X49530000Y-128940000D01*
X49530000Y-121630000D02*
X49530000Y-122520000D01*
X55920000Y-71720000D02*
X53300000Y-71720000D01*
X53300000Y-71720000D02*
X53300000Y-78140000D01*
X53300000Y-78140000D02*
X55920000Y-78140000D01*
X55920000Y-78140000D02*
X55920000Y-71720000D01*
X54610000Y-70830000D02*
X54610000Y-71720000D01*
X54610000Y-79030000D02*
X54610000Y-78140000D01*
X119670000Y-117100000D02*
X124090000Y-117100000D01*
X119670000Y-119120000D02*
X124090000Y-119120000D01*
X119670000Y-117100000D02*
X119670000Y-117114000D01*
X119670000Y-119106000D02*
X119670000Y-119120000D01*
X124090000Y-117100000D02*
X124090000Y-117114000D01*
X124090000Y-119106000D02*
X124090000Y-119120000D01*
X123099723Y-130555722D02*
G75*
G03X123100000Y-125944420I-1179723J2305722D01*
G01*
X120740277Y-130555722D02*
G75*
G02X120740000Y-125944420I1179723J2305722D01*
G01*
X120740277Y-130555722D02*
G75*
G03X123100000Y-130555580I1179723J2305722D01*
G01*
X124470000Y-128250000D02*
X119370000Y-128250000D01*
X124470000Y-128290000D02*
X119370000Y-128290000D01*
X124469000Y-128330000D02*
X119371000Y-128330000D01*
X124468000Y-128370000D02*
X119372000Y-128370000D01*
X124466000Y-128410000D02*
X119374000Y-128410000D01*
X124463000Y-128450000D02*
X119377000Y-128450000D01*
X124459000Y-128490000D02*
X119381000Y-128490000D01*
X124455000Y-128530000D02*
X122900000Y-128530000D01*
X120940000Y-128530000D02*
X119385000Y-128530000D01*
X124451000Y-128570000D02*
X122900000Y-128570000D01*
X120940000Y-128570000D02*
X119389000Y-128570000D01*
X124445000Y-128610000D02*
X122900000Y-128610000D01*
X120940000Y-128610000D02*
X119395000Y-128610000D01*
X124439000Y-128650000D02*
X122900000Y-128650000D01*
X120940000Y-128650000D02*
X119401000Y-128650000D01*
X124433000Y-128690000D02*
X122900000Y-128690000D01*
X120940000Y-128690000D02*
X119407000Y-128690000D01*
X124426000Y-128730000D02*
X122900000Y-128730000D01*
X120940000Y-128730000D02*
X119414000Y-128730000D01*
X124418000Y-128770000D02*
X122900000Y-128770000D01*
X120940000Y-128770000D02*
X119422000Y-128770000D01*
X124409000Y-128810000D02*
X122900000Y-128810000D01*
X120940000Y-128810000D02*
X119431000Y-128810000D01*
X124400000Y-128850000D02*
X122900000Y-128850000D01*
X120940000Y-128850000D02*
X119440000Y-128850000D01*
X124390000Y-128890000D02*
X122900000Y-128890000D01*
X120940000Y-128890000D02*
X119450000Y-128890000D01*
X124380000Y-128930000D02*
X122900000Y-128930000D01*
X120940000Y-128930000D02*
X119460000Y-128930000D01*
X124368000Y-128971000D02*
X122900000Y-128971000D01*
X120940000Y-128971000D02*
X119472000Y-128971000D01*
X124356000Y-129011000D02*
X122900000Y-129011000D01*
X120940000Y-129011000D02*
X119484000Y-129011000D01*
X124344000Y-129051000D02*
X122900000Y-129051000D01*
X120940000Y-129051000D02*
X119496000Y-129051000D01*
X124330000Y-129091000D02*
X122900000Y-129091000D01*
X120940000Y-129091000D02*
X119510000Y-129091000D01*
X124316000Y-129131000D02*
X122900000Y-129131000D01*
X120940000Y-129131000D02*
X119524000Y-129131000D01*
X124302000Y-129171000D02*
X122900000Y-129171000D01*
X120940000Y-129171000D02*
X119538000Y-129171000D01*
X124286000Y-129211000D02*
X122900000Y-129211000D01*
X120940000Y-129211000D02*
X119554000Y-129211000D01*
X124270000Y-129251000D02*
X122900000Y-129251000D01*
X120940000Y-129251000D02*
X119570000Y-129251000D01*
X124253000Y-129291000D02*
X122900000Y-129291000D01*
X120940000Y-129291000D02*
X119587000Y-129291000D01*
X124235000Y-129331000D02*
X122900000Y-129331000D01*
X120940000Y-129331000D02*
X119605000Y-129331000D01*
X124216000Y-129371000D02*
X122900000Y-129371000D01*
X120940000Y-129371000D02*
X119624000Y-129371000D01*
X124196000Y-129411000D02*
X122900000Y-129411000D01*
X120940000Y-129411000D02*
X119644000Y-129411000D01*
X124176000Y-129451000D02*
X122900000Y-129451000D01*
X120940000Y-129451000D02*
X119664000Y-129451000D01*
X124154000Y-129491000D02*
X122900000Y-129491000D01*
X120940000Y-129491000D02*
X119686000Y-129491000D01*
X124132000Y-129531000D02*
X122900000Y-129531000D01*
X120940000Y-129531000D02*
X119708000Y-129531000D01*
X124109000Y-129571000D02*
X122900000Y-129571000D01*
X120940000Y-129571000D02*
X119731000Y-129571000D01*
X124085000Y-129611000D02*
X122900000Y-129611000D01*
X120940000Y-129611000D02*
X119755000Y-129611000D01*
X124060000Y-129651000D02*
X122900000Y-129651000D01*
X120940000Y-129651000D02*
X119780000Y-129651000D01*
X124033000Y-129691000D02*
X122900000Y-129691000D01*
X120940000Y-129691000D02*
X119807000Y-129691000D01*
X124006000Y-129731000D02*
X122900000Y-129731000D01*
X120940000Y-129731000D02*
X119834000Y-129731000D01*
X123978000Y-129771000D02*
X122900000Y-129771000D01*
X120940000Y-129771000D02*
X119862000Y-129771000D01*
X123948000Y-129811000D02*
X122900000Y-129811000D01*
X120940000Y-129811000D02*
X119892000Y-129811000D01*
X123917000Y-129851000D02*
X122900000Y-129851000D01*
X120940000Y-129851000D02*
X119923000Y-129851000D01*
X123885000Y-129891000D02*
X122900000Y-129891000D01*
X120940000Y-129891000D02*
X119955000Y-129891000D01*
X123852000Y-129931000D02*
X122900000Y-129931000D01*
X120940000Y-129931000D02*
X119988000Y-129931000D01*
X123817000Y-129971000D02*
X122900000Y-129971000D01*
X120940000Y-129971000D02*
X120023000Y-129971000D01*
X123781000Y-130011000D02*
X122900000Y-130011000D01*
X120940000Y-130011000D02*
X120059000Y-130011000D01*
X123743000Y-130051000D02*
X122900000Y-130051000D01*
X120940000Y-130051000D02*
X120097000Y-130051000D01*
X123703000Y-130091000D02*
X122900000Y-130091000D01*
X120940000Y-130091000D02*
X120137000Y-130091000D01*
X123662000Y-130131000D02*
X122900000Y-130131000D01*
X120940000Y-130131000D02*
X120178000Y-130131000D01*
X123619000Y-130171000D02*
X122900000Y-130171000D01*
X120940000Y-130171000D02*
X120221000Y-130171000D01*
X123574000Y-130211000D02*
X122900000Y-130211000D01*
X120940000Y-130211000D02*
X120266000Y-130211000D01*
X123526000Y-130251000D02*
X122900000Y-130251000D01*
X120940000Y-130251000D02*
X120314000Y-130251000D01*
X123476000Y-130291000D02*
X122900000Y-130291000D01*
X120940000Y-130291000D02*
X120364000Y-130291000D01*
X123424000Y-130331000D02*
X122900000Y-130331000D01*
X120940000Y-130331000D02*
X120416000Y-130331000D01*
X123368000Y-130371000D02*
X122900000Y-130371000D01*
X120940000Y-130371000D02*
X120472000Y-130371000D01*
X123310000Y-130411000D02*
X122900000Y-130411000D01*
X120940000Y-130411000D02*
X120530000Y-130411000D01*
X123247000Y-130451000D02*
X122900000Y-130451000D01*
X120940000Y-130451000D02*
X120593000Y-130451000D01*
X123181000Y-130491000D02*
X120659000Y-130491000D01*
X123109000Y-130531000D02*
X120731000Y-130531000D01*
X123032000Y-130571000D02*
X120808000Y-130571000D01*
X122948000Y-130611000D02*
X120892000Y-130611000D01*
X122854000Y-130651000D02*
X120986000Y-130651000D01*
X122749000Y-130691000D02*
X121091000Y-130691000D01*
X122627000Y-130731000D02*
X121213000Y-130731000D01*
X122479000Y-130771000D02*
X121361000Y-130771000D01*
X122274000Y-130811000D02*
X121566000Y-130811000D01*
X121920000Y-124800000D02*
X121920000Y-126000000D01*
X122570000Y-125400000D02*
X121270000Y-125400000D01*
X129460000Y-132120000D02*
X129460000Y-121880000D01*
X134101000Y-132120000D02*
X134101000Y-121880000D01*
X129460000Y-132120000D02*
X134101000Y-132120000D01*
X129460000Y-121880000D02*
X134101000Y-121880000D01*
X130970000Y-132120000D02*
X130970000Y-121880000D01*
X129460000Y-128850000D02*
X130970000Y-128850000D01*
X129460000Y-125149000D02*
X130970000Y-125149000D01*
D14*
X68032381Y-132841905D02*
X68841905Y-132841905D01*
X68937143Y-132794286D01*
X68984762Y-132746667D01*
X69032381Y-132651429D01*
X69032381Y-132460952D01*
X68984762Y-132365714D01*
X68937143Y-132318095D01*
X68841905Y-132270476D01*
X68032381Y-132270476D01*
X68032381Y-131365714D02*
X68032381Y-131556191D01*
X68080000Y-131651429D01*
X68127619Y-131699048D01*
X68270476Y-131794286D01*
X68460952Y-131841905D01*
X68841905Y-131841905D01*
X68937143Y-131794286D01*
X68984762Y-131746667D01*
X69032381Y-131651429D01*
X69032381Y-131460952D01*
X68984762Y-131365714D01*
X68937143Y-131318095D01*
X68841905Y-131270476D01*
X68603810Y-131270476D01*
X68508571Y-131318095D01*
X68460952Y-131365714D01*
X68413333Y-131460952D01*
X68413333Y-131651429D01*
X68460952Y-131746667D01*
X68508571Y-131794286D01*
X68603810Y-131841905D01*
D12*
X96393095Y-41997381D02*
X96393095Y-42806905D01*
X96440714Y-42902143D01*
X96488333Y-42949762D01*
X96583571Y-42997381D01*
X96774048Y-42997381D01*
X96869286Y-42949762D01*
X96916905Y-42902143D01*
X96964524Y-42806905D01*
X96964524Y-41997381D01*
X97964524Y-42997381D02*
X97393095Y-42997381D01*
X97678809Y-42997381D02*
X97678809Y-41997381D01*
X97583571Y-42140238D01*
X97488333Y-42235476D01*
X97393095Y-42283095D01*
X127531905Y-65222381D02*
X127531905Y-64222381D01*
X127770000Y-64222381D01*
X127912858Y-64270000D01*
X128008096Y-64365238D01*
X128055715Y-64460476D01*
X128103334Y-64650952D01*
X128103334Y-64793810D01*
X128055715Y-64984286D01*
X128008096Y-65079524D01*
X127912858Y-65174762D01*
X127770000Y-65222381D01*
X127531905Y-65222381D01*
X129055715Y-65222381D02*
X128484286Y-65222381D01*
X128770000Y-65222381D02*
X128770000Y-64222381D01*
X128674762Y-64365238D01*
X128579524Y-64460476D01*
X128484286Y-64508095D01*
X127531905Y-60142381D02*
X127531905Y-59142381D01*
X127770000Y-59142381D01*
X127912858Y-59190000D01*
X128008096Y-59285238D01*
X128055715Y-59380476D01*
X128103334Y-59570952D01*
X128103334Y-59713810D01*
X128055715Y-59904286D01*
X128008096Y-59999524D01*
X127912858Y-60094762D01*
X127770000Y-60142381D01*
X127531905Y-60142381D01*
X128484286Y-59237619D02*
X128531905Y-59190000D01*
X128627143Y-59142381D01*
X128865239Y-59142381D01*
X128960477Y-59190000D01*
X129008096Y-59237619D01*
X129055715Y-59332857D01*
X129055715Y-59428095D01*
X129008096Y-59570952D01*
X128436667Y-60142381D01*
X129055715Y-60142381D01*
X127531905Y-55062381D02*
X127531905Y-54062381D01*
X127770000Y-54062381D01*
X127912858Y-54110000D01*
X128008096Y-54205238D01*
X128055715Y-54300476D01*
X128103334Y-54490952D01*
X128103334Y-54633810D01*
X128055715Y-54824286D01*
X128008096Y-54919524D01*
X127912858Y-55014762D01*
X127770000Y-55062381D01*
X127531905Y-55062381D01*
X128436667Y-54062381D02*
X129055715Y-54062381D01*
X128722381Y-54443333D01*
X128865239Y-54443333D01*
X128960477Y-54490952D01*
X129008096Y-54538571D01*
X129055715Y-54633810D01*
X129055715Y-54871905D01*
X129008096Y-54967143D01*
X128960477Y-55014762D01*
X128865239Y-55062381D01*
X128579524Y-55062381D01*
X128484286Y-55014762D01*
X128436667Y-54967143D01*
X127531905Y-49982381D02*
X127531905Y-48982381D01*
X127770000Y-48982381D01*
X127912858Y-49030000D01*
X128008096Y-49125238D01*
X128055715Y-49220476D01*
X128103334Y-49410952D01*
X128103334Y-49553810D01*
X128055715Y-49744286D01*
X128008096Y-49839524D01*
X127912858Y-49934762D01*
X127770000Y-49982381D01*
X127531905Y-49982381D01*
X128960477Y-49315714D02*
X128960477Y-49982381D01*
X128722381Y-48934762D02*
X128484286Y-49649048D01*
X129103334Y-49649048D01*
X79883095Y-41997381D02*
X79883095Y-42806905D01*
X79930714Y-42902143D01*
X79978333Y-42949762D01*
X80073571Y-42997381D01*
X80264048Y-42997381D01*
X80359286Y-42949762D01*
X80406905Y-42902143D01*
X80454524Y-42806905D01*
X80454524Y-41997381D01*
X80883095Y-42092619D02*
X80930714Y-42045000D01*
X81025952Y-41997381D01*
X81264048Y-41997381D01*
X81359286Y-42045000D01*
X81406905Y-42092619D01*
X81454524Y-42187857D01*
X81454524Y-42283095D01*
X81406905Y-42425952D01*
X80835476Y-42997381D01*
X81454524Y-42997381D01*
X80518095Y-83272381D02*
X80518095Y-84081905D01*
X80565714Y-84177143D01*
X80613333Y-84224762D01*
X80708571Y-84272381D01*
X80899048Y-84272381D01*
X80994286Y-84224762D01*
X81041905Y-84177143D01*
X81089524Y-84081905D01*
X81089524Y-83272381D01*
X81470476Y-83272381D02*
X82089524Y-83272381D01*
X81756190Y-83653333D01*
X81899048Y-83653333D01*
X81994286Y-83700952D01*
X82041905Y-83748571D01*
X82089524Y-83843810D01*
X82089524Y-84081905D01*
X82041905Y-84177143D01*
X81994286Y-84224762D01*
X81899048Y-84272381D01*
X81613333Y-84272381D01*
X81518095Y-84224762D01*
X81470476Y-84177143D01*
X97028095Y-83272381D02*
X97028095Y-84081905D01*
X97075714Y-84177143D01*
X97123333Y-84224762D01*
X97218571Y-84272381D01*
X97409048Y-84272381D01*
X97504286Y-84224762D01*
X97551905Y-84177143D01*
X97599524Y-84081905D01*
X97599524Y-83272381D01*
X98504286Y-83605714D02*
X98504286Y-84272381D01*
X98266190Y-83224762D02*
X98028095Y-83939048D01*
X98647143Y-83939048D01*
X50061905Y-44902381D02*
X50061905Y-43902381D01*
X50300000Y-43902381D01*
X50442858Y-43950000D01*
X50538096Y-44045238D01*
X50585715Y-44140476D01*
X50633334Y-44330952D01*
X50633334Y-44473810D01*
X50585715Y-44664286D01*
X50538096Y-44759524D01*
X50442858Y-44854762D01*
X50300000Y-44902381D01*
X50061905Y-44902381D01*
X51538096Y-43902381D02*
X51061905Y-43902381D01*
X51014286Y-44378571D01*
X51061905Y-44330952D01*
X51157143Y-44283333D01*
X51395239Y-44283333D01*
X51490477Y-44330952D01*
X51538096Y-44378571D01*
X51585715Y-44473810D01*
X51585715Y-44711905D01*
X51538096Y-44807143D01*
X51490477Y-44854762D01*
X51395239Y-44902381D01*
X51157143Y-44902381D01*
X51061905Y-44854762D01*
X51014286Y-44807143D01*
X50061905Y-49982381D02*
X50061905Y-48982381D01*
X50300000Y-48982381D01*
X50442858Y-49030000D01*
X50538096Y-49125238D01*
X50585715Y-49220476D01*
X50633334Y-49410952D01*
X50633334Y-49553810D01*
X50585715Y-49744286D01*
X50538096Y-49839524D01*
X50442858Y-49934762D01*
X50300000Y-49982381D01*
X50061905Y-49982381D01*
X51490477Y-48982381D02*
X51300000Y-48982381D01*
X51204762Y-49030000D01*
X51157143Y-49077619D01*
X51061905Y-49220476D01*
X51014286Y-49410952D01*
X51014286Y-49791905D01*
X51061905Y-49887143D01*
X51109524Y-49934762D01*
X51204762Y-49982381D01*
X51395239Y-49982381D01*
X51490477Y-49934762D01*
X51538096Y-49887143D01*
X51585715Y-49791905D01*
X51585715Y-49553810D01*
X51538096Y-49458571D01*
X51490477Y-49410952D01*
X51395239Y-49363333D01*
X51204762Y-49363333D01*
X51109524Y-49410952D01*
X51061905Y-49458571D01*
X51014286Y-49553810D01*
X50061905Y-55062381D02*
X50061905Y-54062381D01*
X50300000Y-54062381D01*
X50442858Y-54110000D01*
X50538096Y-54205238D01*
X50585715Y-54300476D01*
X50633334Y-54490952D01*
X50633334Y-54633810D01*
X50585715Y-54824286D01*
X50538096Y-54919524D01*
X50442858Y-55014762D01*
X50300000Y-55062381D01*
X50061905Y-55062381D01*
X50966667Y-54062381D02*
X51633334Y-54062381D01*
X51204762Y-55062381D01*
X50061905Y-60142381D02*
X50061905Y-59142381D01*
X50300000Y-59142381D01*
X50442858Y-59190000D01*
X50538096Y-59285238D01*
X50585715Y-59380476D01*
X50633334Y-59570952D01*
X50633334Y-59713810D01*
X50585715Y-59904286D01*
X50538096Y-59999524D01*
X50442858Y-60094762D01*
X50300000Y-60142381D01*
X50061905Y-60142381D01*
X51204762Y-59570952D02*
X51109524Y-59523333D01*
X51061905Y-59475714D01*
X51014286Y-59380476D01*
X51014286Y-59332857D01*
X51061905Y-59237619D01*
X51109524Y-59190000D01*
X51204762Y-59142381D01*
X51395239Y-59142381D01*
X51490477Y-59190000D01*
X51538096Y-59237619D01*
X51585715Y-59332857D01*
X51585715Y-59380476D01*
X51538096Y-59475714D01*
X51490477Y-59523333D01*
X51395239Y-59570952D01*
X51204762Y-59570952D01*
X51109524Y-59618571D01*
X51061905Y-59666190D01*
X51014286Y-59761429D01*
X51014286Y-59951905D01*
X51061905Y-60047143D01*
X51109524Y-60094762D01*
X51204762Y-60142381D01*
X51395239Y-60142381D01*
X51490477Y-60094762D01*
X51538096Y-60047143D01*
X51585715Y-59951905D01*
X51585715Y-59761429D01*
X51538096Y-59666190D01*
X51490477Y-59618571D01*
X51395239Y-59570952D01*
X50061905Y-89352381D02*
X50061905Y-88352381D01*
X50300000Y-88352381D01*
X50442858Y-88400000D01*
X50538096Y-88495238D01*
X50585715Y-88590476D01*
X50633334Y-88780952D01*
X50633334Y-88923810D01*
X50585715Y-89114286D01*
X50538096Y-89209524D01*
X50442858Y-89304762D01*
X50300000Y-89352381D01*
X50061905Y-89352381D01*
X51109524Y-89352381D02*
X51300000Y-89352381D01*
X51395239Y-89304762D01*
X51442858Y-89257143D01*
X51538096Y-89114286D01*
X51585715Y-88923810D01*
X51585715Y-88542857D01*
X51538096Y-88447619D01*
X51490477Y-88400000D01*
X51395239Y-88352381D01*
X51204762Y-88352381D01*
X51109524Y-88400000D01*
X51061905Y-88447619D01*
X51014286Y-88542857D01*
X51014286Y-88780952D01*
X51061905Y-88876190D01*
X51109524Y-88923810D01*
X51204762Y-88971429D01*
X51395239Y-88971429D01*
X51490477Y-88923810D01*
X51538096Y-88876190D01*
X51585715Y-88780952D01*
X49585714Y-94432381D02*
X49585714Y-93432381D01*
X49823809Y-93432381D01*
X49966667Y-93480000D01*
X50061905Y-93575238D01*
X50109524Y-93670476D01*
X50157143Y-93860952D01*
X50157143Y-94003810D01*
X50109524Y-94194286D01*
X50061905Y-94289524D01*
X49966667Y-94384762D01*
X49823809Y-94432381D01*
X49585714Y-94432381D01*
X51109524Y-94432381D02*
X50538095Y-94432381D01*
X50823809Y-94432381D02*
X50823809Y-93432381D01*
X50728571Y-93575238D01*
X50633333Y-93670476D01*
X50538095Y-93718095D01*
X51728571Y-93432381D02*
X51823810Y-93432381D01*
X51919048Y-93480000D01*
X51966667Y-93527619D01*
X52014286Y-93622857D01*
X52061905Y-93813333D01*
X52061905Y-94051429D01*
X52014286Y-94241905D01*
X51966667Y-94337143D01*
X51919048Y-94384762D01*
X51823810Y-94432381D01*
X51728571Y-94432381D01*
X51633333Y-94384762D01*
X51585714Y-94337143D01*
X51538095Y-94241905D01*
X51490476Y-94051429D01*
X51490476Y-93813333D01*
X51538095Y-93622857D01*
X51585714Y-93527619D01*
X51633333Y-93480000D01*
X51728571Y-93432381D01*
X49585714Y-99512381D02*
X49585714Y-98512381D01*
X49823809Y-98512381D01*
X49966667Y-98560000D01*
X50061905Y-98655238D01*
X50109524Y-98750476D01*
X50157143Y-98940952D01*
X50157143Y-99083810D01*
X50109524Y-99274286D01*
X50061905Y-99369524D01*
X49966667Y-99464762D01*
X49823809Y-99512381D01*
X49585714Y-99512381D01*
X51109524Y-99512381D02*
X50538095Y-99512381D01*
X50823809Y-99512381D02*
X50823809Y-98512381D01*
X50728571Y-98655238D01*
X50633333Y-98750476D01*
X50538095Y-98798095D01*
X52061905Y-99512381D02*
X51490476Y-99512381D01*
X51776190Y-99512381D02*
X51776190Y-98512381D01*
X51680952Y-98655238D01*
X51585714Y-98750476D01*
X51490476Y-98798095D01*
X49585714Y-104592381D02*
X49585714Y-103592381D01*
X49823809Y-103592381D01*
X49966667Y-103640000D01*
X50061905Y-103735238D01*
X50109524Y-103830476D01*
X50157143Y-104020952D01*
X50157143Y-104163810D01*
X50109524Y-104354286D01*
X50061905Y-104449524D01*
X49966667Y-104544762D01*
X49823809Y-104592381D01*
X49585714Y-104592381D01*
X51109524Y-104592381D02*
X50538095Y-104592381D01*
X50823809Y-104592381D02*
X50823809Y-103592381D01*
X50728571Y-103735238D01*
X50633333Y-103830476D01*
X50538095Y-103878095D01*
X51490476Y-103687619D02*
X51538095Y-103640000D01*
X51633333Y-103592381D01*
X51871429Y-103592381D01*
X51966667Y-103640000D01*
X52014286Y-103687619D01*
X52061905Y-103782857D01*
X52061905Y-103878095D01*
X52014286Y-104020952D01*
X51442857Y-104592381D01*
X52061905Y-104592381D01*
X127055714Y-104592381D02*
X127055714Y-103592381D01*
X127293809Y-103592381D01*
X127436667Y-103640000D01*
X127531905Y-103735238D01*
X127579524Y-103830476D01*
X127627143Y-104020952D01*
X127627143Y-104163810D01*
X127579524Y-104354286D01*
X127531905Y-104449524D01*
X127436667Y-104544762D01*
X127293809Y-104592381D01*
X127055714Y-104592381D01*
X128579524Y-104592381D02*
X128008095Y-104592381D01*
X128293809Y-104592381D02*
X128293809Y-103592381D01*
X128198571Y-103735238D01*
X128103333Y-103830476D01*
X128008095Y-103878095D01*
X128912857Y-103592381D02*
X129531905Y-103592381D01*
X129198571Y-103973333D01*
X129341429Y-103973333D01*
X129436667Y-104020952D01*
X129484286Y-104068571D01*
X129531905Y-104163810D01*
X129531905Y-104401905D01*
X129484286Y-104497143D01*
X129436667Y-104544762D01*
X129341429Y-104592381D01*
X129055714Y-104592381D01*
X128960476Y-104544762D01*
X128912857Y-104497143D01*
X127055714Y-99512381D02*
X127055714Y-98512381D01*
X127293809Y-98512381D01*
X127436667Y-98560000D01*
X127531905Y-98655238D01*
X127579524Y-98750476D01*
X127627143Y-98940952D01*
X127627143Y-99083810D01*
X127579524Y-99274286D01*
X127531905Y-99369524D01*
X127436667Y-99464762D01*
X127293809Y-99512381D01*
X127055714Y-99512381D01*
X128579524Y-99512381D02*
X128008095Y-99512381D01*
X128293809Y-99512381D02*
X128293809Y-98512381D01*
X128198571Y-98655238D01*
X128103333Y-98750476D01*
X128008095Y-98798095D01*
X129436667Y-98845714D02*
X129436667Y-99512381D01*
X129198571Y-98464762D02*
X128960476Y-99179048D01*
X129579524Y-99179048D01*
X127055714Y-94432381D02*
X127055714Y-93432381D01*
X127293809Y-93432381D01*
X127436667Y-93480000D01*
X127531905Y-93575238D01*
X127579524Y-93670476D01*
X127627143Y-93860952D01*
X127627143Y-94003810D01*
X127579524Y-94194286D01*
X127531905Y-94289524D01*
X127436667Y-94384762D01*
X127293809Y-94432381D01*
X127055714Y-94432381D01*
X128579524Y-94432381D02*
X128008095Y-94432381D01*
X128293809Y-94432381D02*
X128293809Y-93432381D01*
X128198571Y-93575238D01*
X128103333Y-93670476D01*
X128008095Y-93718095D01*
X129484286Y-93432381D02*
X129008095Y-93432381D01*
X128960476Y-93908571D01*
X129008095Y-93860952D01*
X129103333Y-93813333D01*
X129341429Y-93813333D01*
X129436667Y-93860952D01*
X129484286Y-93908571D01*
X129531905Y-94003810D01*
X129531905Y-94241905D01*
X129484286Y-94337143D01*
X129436667Y-94384762D01*
X129341429Y-94432381D01*
X129103333Y-94432381D01*
X129008095Y-94384762D01*
X128960476Y-94337143D01*
X127055714Y-89352381D02*
X127055714Y-88352381D01*
X127293809Y-88352381D01*
X127436667Y-88400000D01*
X127531905Y-88495238D01*
X127579524Y-88590476D01*
X127627143Y-88780952D01*
X127627143Y-88923810D01*
X127579524Y-89114286D01*
X127531905Y-89209524D01*
X127436667Y-89304762D01*
X127293809Y-89352381D01*
X127055714Y-89352381D01*
X128579524Y-89352381D02*
X128008095Y-89352381D01*
X128293809Y-89352381D02*
X128293809Y-88352381D01*
X128198571Y-88495238D01*
X128103333Y-88590476D01*
X128008095Y-88638095D01*
X129436667Y-88352381D02*
X129246190Y-88352381D01*
X129150952Y-88400000D01*
X129103333Y-88447619D01*
X129008095Y-88590476D01*
X128960476Y-88780952D01*
X128960476Y-89161905D01*
X129008095Y-89257143D01*
X129055714Y-89304762D01*
X129150952Y-89352381D01*
X129341429Y-89352381D01*
X129436667Y-89304762D01*
X129484286Y-89257143D01*
X129531905Y-89161905D01*
X129531905Y-88923810D01*
X129484286Y-88828571D01*
X129436667Y-88780952D01*
X129341429Y-88733333D01*
X129150952Y-88733333D01*
X129055714Y-88780952D01*
X129008095Y-88828571D01*
X128960476Y-88923810D01*
X134921667Y-41997381D02*
X134921667Y-42711667D01*
X134874047Y-42854524D01*
X134778809Y-42949762D01*
X134635952Y-42997381D01*
X134540714Y-42997381D01*
X135921667Y-42997381D02*
X135350238Y-42997381D01*
X135635952Y-42997381D02*
X135635952Y-41997381D01*
X135540714Y-42140238D01*
X135445476Y-42235476D01*
X135350238Y-42283095D01*
X43481667Y-41997381D02*
X43481667Y-42711667D01*
X43434047Y-42854524D01*
X43338809Y-42949762D01*
X43195952Y-42997381D01*
X43100714Y-42997381D01*
X43910238Y-42092619D02*
X43957857Y-42045000D01*
X44053095Y-41997381D01*
X44291191Y-41997381D01*
X44386429Y-42045000D01*
X44434048Y-42092619D01*
X44481667Y-42187857D01*
X44481667Y-42283095D01*
X44434048Y-42425952D01*
X43862619Y-42997381D01*
X44481667Y-42997381D01*
X44116667Y-83272381D02*
X44116667Y-83986667D01*
X44069047Y-84129524D01*
X43973809Y-84224762D01*
X43830952Y-84272381D01*
X43735714Y-84272381D01*
X44497619Y-83272381D02*
X45116667Y-83272381D01*
X44783333Y-83653333D01*
X44926191Y-83653333D01*
X45021429Y-83700952D01*
X45069048Y-83748571D01*
X45116667Y-83843810D01*
X45116667Y-84081905D01*
X45069048Y-84177143D01*
X45021429Y-84224762D01*
X44926191Y-84272381D01*
X44640476Y-84272381D01*
X44545238Y-84224762D01*
X44497619Y-84177143D01*
X134286667Y-83272381D02*
X134286667Y-83986667D01*
X134239047Y-84129524D01*
X134143809Y-84224762D01*
X134000952Y-84272381D01*
X133905714Y-84272381D01*
X135191429Y-83605714D02*
X135191429Y-84272381D01*
X134953333Y-83224762D02*
X134715238Y-83939048D01*
X135334286Y-83939048D01*
X61468095Y-75652381D02*
X61468095Y-76461905D01*
X61515714Y-76557143D01*
X61563333Y-76604762D01*
X61658571Y-76652381D01*
X61849048Y-76652381D01*
X61944286Y-76604762D01*
X61991905Y-76557143D01*
X62039524Y-76461905D01*
X62039524Y-75652381D01*
X62991905Y-75652381D02*
X62515714Y-75652381D01*
X62468095Y-76128571D01*
X62515714Y-76080952D01*
X62610952Y-76033333D01*
X62849048Y-76033333D01*
X62944286Y-76080952D01*
X62991905Y-76128571D01*
X63039524Y-76223810D01*
X63039524Y-76461905D01*
X62991905Y-76557143D01*
X62944286Y-76604762D01*
X62849048Y-76652381D01*
X62610952Y-76652381D01*
X62515714Y-76604762D01*
X62468095Y-76557143D01*
X119213334Y-65222381D02*
X118880000Y-64746190D01*
X118641905Y-65222381D02*
X118641905Y-64222381D01*
X119022858Y-64222381D01*
X119118096Y-64270000D01*
X119165715Y-64317619D01*
X119213334Y-64412857D01*
X119213334Y-64555714D01*
X119165715Y-64650952D01*
X119118096Y-64698571D01*
X119022858Y-64746190D01*
X118641905Y-64746190D01*
X120165715Y-65222381D02*
X119594286Y-65222381D01*
X119880000Y-65222381D02*
X119880000Y-64222381D01*
X119784762Y-64365238D01*
X119689524Y-64460476D01*
X119594286Y-64508095D01*
X119213334Y-60142381D02*
X118880000Y-59666190D01*
X118641905Y-60142381D02*
X118641905Y-59142381D01*
X119022858Y-59142381D01*
X119118096Y-59190000D01*
X119165715Y-59237619D01*
X119213334Y-59332857D01*
X119213334Y-59475714D01*
X119165715Y-59570952D01*
X119118096Y-59618571D01*
X119022858Y-59666190D01*
X118641905Y-59666190D01*
X119594286Y-59237619D02*
X119641905Y-59190000D01*
X119737143Y-59142381D01*
X119975239Y-59142381D01*
X120070477Y-59190000D01*
X120118096Y-59237619D01*
X120165715Y-59332857D01*
X120165715Y-59428095D01*
X120118096Y-59570952D01*
X119546667Y-60142381D01*
X120165715Y-60142381D01*
X119213334Y-55062381D02*
X118880000Y-54586190D01*
X118641905Y-55062381D02*
X118641905Y-54062381D01*
X119022858Y-54062381D01*
X119118096Y-54110000D01*
X119165715Y-54157619D01*
X119213334Y-54252857D01*
X119213334Y-54395714D01*
X119165715Y-54490952D01*
X119118096Y-54538571D01*
X119022858Y-54586190D01*
X118641905Y-54586190D01*
X119546667Y-54062381D02*
X120165715Y-54062381D01*
X119832381Y-54443333D01*
X119975239Y-54443333D01*
X120070477Y-54490952D01*
X120118096Y-54538571D01*
X120165715Y-54633810D01*
X120165715Y-54871905D01*
X120118096Y-54967143D01*
X120070477Y-55014762D01*
X119975239Y-55062381D01*
X119689524Y-55062381D01*
X119594286Y-55014762D01*
X119546667Y-54967143D01*
X119213334Y-49982381D02*
X118880000Y-49506190D01*
X118641905Y-49982381D02*
X118641905Y-48982381D01*
X119022858Y-48982381D01*
X119118096Y-49030000D01*
X119165715Y-49077619D01*
X119213334Y-49172857D01*
X119213334Y-49315714D01*
X119165715Y-49410952D01*
X119118096Y-49458571D01*
X119022858Y-49506190D01*
X118641905Y-49506190D01*
X120070477Y-49315714D02*
X120070477Y-49982381D01*
X119832381Y-48934762D02*
X119594286Y-49649048D01*
X120213334Y-49649048D01*
X59523334Y-44902381D02*
X59190000Y-44426190D01*
X58951905Y-44902381D02*
X58951905Y-43902381D01*
X59332858Y-43902381D01*
X59428096Y-43950000D01*
X59475715Y-43997619D01*
X59523334Y-44092857D01*
X59523334Y-44235714D01*
X59475715Y-44330952D01*
X59428096Y-44378571D01*
X59332858Y-44426190D01*
X58951905Y-44426190D01*
X60428096Y-43902381D02*
X59951905Y-43902381D01*
X59904286Y-44378571D01*
X59951905Y-44330952D01*
X60047143Y-44283333D01*
X60285239Y-44283333D01*
X60380477Y-44330952D01*
X60428096Y-44378571D01*
X60475715Y-44473810D01*
X60475715Y-44711905D01*
X60428096Y-44807143D01*
X60380477Y-44854762D01*
X60285239Y-44902381D01*
X60047143Y-44902381D01*
X59951905Y-44854762D01*
X59904286Y-44807143D01*
X59523334Y-49982381D02*
X59190000Y-49506190D01*
X58951905Y-49982381D02*
X58951905Y-48982381D01*
X59332858Y-48982381D01*
X59428096Y-49030000D01*
X59475715Y-49077619D01*
X59523334Y-49172857D01*
X59523334Y-49315714D01*
X59475715Y-49410952D01*
X59428096Y-49458571D01*
X59332858Y-49506190D01*
X58951905Y-49506190D01*
X60380477Y-48982381D02*
X60190000Y-48982381D01*
X60094762Y-49030000D01*
X60047143Y-49077619D01*
X59951905Y-49220476D01*
X59904286Y-49410952D01*
X59904286Y-49791905D01*
X59951905Y-49887143D01*
X59999524Y-49934762D01*
X60094762Y-49982381D01*
X60285239Y-49982381D01*
X60380477Y-49934762D01*
X60428096Y-49887143D01*
X60475715Y-49791905D01*
X60475715Y-49553810D01*
X60428096Y-49458571D01*
X60380477Y-49410952D01*
X60285239Y-49363333D01*
X60094762Y-49363333D01*
X59999524Y-49410952D01*
X59951905Y-49458571D01*
X59904286Y-49553810D01*
X59523334Y-55062381D02*
X59190000Y-54586190D01*
X58951905Y-55062381D02*
X58951905Y-54062381D01*
X59332858Y-54062381D01*
X59428096Y-54110000D01*
X59475715Y-54157619D01*
X59523334Y-54252857D01*
X59523334Y-54395714D01*
X59475715Y-54490952D01*
X59428096Y-54538571D01*
X59332858Y-54586190D01*
X58951905Y-54586190D01*
X59856667Y-54062381D02*
X60523334Y-54062381D01*
X60094762Y-55062381D01*
X59523334Y-60142381D02*
X59190000Y-59666190D01*
X58951905Y-60142381D02*
X58951905Y-59142381D01*
X59332858Y-59142381D01*
X59428096Y-59190000D01*
X59475715Y-59237619D01*
X59523334Y-59332857D01*
X59523334Y-59475714D01*
X59475715Y-59570952D01*
X59428096Y-59618571D01*
X59332858Y-59666190D01*
X58951905Y-59666190D01*
X60094762Y-59570952D02*
X59999524Y-59523333D01*
X59951905Y-59475714D01*
X59904286Y-59380476D01*
X59904286Y-59332857D01*
X59951905Y-59237619D01*
X59999524Y-59190000D01*
X60094762Y-59142381D01*
X60285239Y-59142381D01*
X60380477Y-59190000D01*
X60428096Y-59237619D01*
X60475715Y-59332857D01*
X60475715Y-59380476D01*
X60428096Y-59475714D01*
X60380477Y-59523333D01*
X60285239Y-59570952D01*
X60094762Y-59570952D01*
X59999524Y-59618571D01*
X59951905Y-59666190D01*
X59904286Y-59761429D01*
X59904286Y-59951905D01*
X59951905Y-60047143D01*
X59999524Y-60094762D01*
X60094762Y-60142381D01*
X60285239Y-60142381D01*
X60380477Y-60094762D01*
X60428096Y-60047143D01*
X60475715Y-59951905D01*
X60475715Y-59761429D01*
X60428096Y-59666190D01*
X60380477Y-59618571D01*
X60285239Y-59570952D01*
X59523334Y-90622381D02*
X59190000Y-90146190D01*
X58951905Y-90622381D02*
X58951905Y-89622381D01*
X59332858Y-89622381D01*
X59428096Y-89670000D01*
X59475715Y-89717619D01*
X59523334Y-89812857D01*
X59523334Y-89955714D01*
X59475715Y-90050952D01*
X59428096Y-90098571D01*
X59332858Y-90146190D01*
X58951905Y-90146190D01*
X59999524Y-90622381D02*
X60190000Y-90622381D01*
X60285239Y-90574762D01*
X60332858Y-90527143D01*
X60428096Y-90384286D01*
X60475715Y-90193810D01*
X60475715Y-89812857D01*
X60428096Y-89717619D01*
X60380477Y-89670000D01*
X60285239Y-89622381D01*
X60094762Y-89622381D01*
X59999524Y-89670000D01*
X59951905Y-89717619D01*
X59904286Y-89812857D01*
X59904286Y-90050952D01*
X59951905Y-90146190D01*
X59999524Y-90193810D01*
X60094762Y-90241429D01*
X60285239Y-90241429D01*
X60380477Y-90193810D01*
X60428096Y-90146190D01*
X60475715Y-90050952D01*
X59047143Y-95702381D02*
X58713809Y-95226190D01*
X58475714Y-95702381D02*
X58475714Y-94702381D01*
X58856667Y-94702381D01*
X58951905Y-94750000D01*
X58999524Y-94797619D01*
X59047143Y-94892857D01*
X59047143Y-95035714D01*
X58999524Y-95130952D01*
X58951905Y-95178571D01*
X58856667Y-95226190D01*
X58475714Y-95226190D01*
X59999524Y-95702381D02*
X59428095Y-95702381D01*
X59713809Y-95702381D02*
X59713809Y-94702381D01*
X59618571Y-94845238D01*
X59523333Y-94940476D01*
X59428095Y-94988095D01*
X60618571Y-94702381D02*
X60713810Y-94702381D01*
X60809048Y-94750000D01*
X60856667Y-94797619D01*
X60904286Y-94892857D01*
X60951905Y-95083333D01*
X60951905Y-95321429D01*
X60904286Y-95511905D01*
X60856667Y-95607143D01*
X60809048Y-95654762D01*
X60713810Y-95702381D01*
X60618571Y-95702381D01*
X60523333Y-95654762D01*
X60475714Y-95607143D01*
X60428095Y-95511905D01*
X60380476Y-95321429D01*
X60380476Y-95083333D01*
X60428095Y-94892857D01*
X60475714Y-94797619D01*
X60523333Y-94750000D01*
X60618571Y-94702381D01*
X59047143Y-100782381D02*
X58713809Y-100306190D01*
X58475714Y-100782381D02*
X58475714Y-99782381D01*
X58856667Y-99782381D01*
X58951905Y-99830000D01*
X58999524Y-99877619D01*
X59047143Y-99972857D01*
X59047143Y-100115714D01*
X58999524Y-100210952D01*
X58951905Y-100258571D01*
X58856667Y-100306190D01*
X58475714Y-100306190D01*
X59999524Y-100782381D02*
X59428095Y-100782381D01*
X59713809Y-100782381D02*
X59713809Y-99782381D01*
X59618571Y-99925238D01*
X59523333Y-100020476D01*
X59428095Y-100068095D01*
X60951905Y-100782381D02*
X60380476Y-100782381D01*
X60666190Y-100782381D02*
X60666190Y-99782381D01*
X60570952Y-99925238D01*
X60475714Y-100020476D01*
X60380476Y-100068095D01*
X59047143Y-105862381D02*
X58713809Y-105386190D01*
X58475714Y-105862381D02*
X58475714Y-104862381D01*
X58856667Y-104862381D01*
X58951905Y-104910000D01*
X58999524Y-104957619D01*
X59047143Y-105052857D01*
X59047143Y-105195714D01*
X58999524Y-105290952D01*
X58951905Y-105338571D01*
X58856667Y-105386190D01*
X58475714Y-105386190D01*
X59999524Y-105862381D02*
X59428095Y-105862381D01*
X59713809Y-105862381D02*
X59713809Y-104862381D01*
X59618571Y-105005238D01*
X59523333Y-105100476D01*
X59428095Y-105148095D01*
X60380476Y-104957619D02*
X60428095Y-104910000D01*
X60523333Y-104862381D01*
X60761429Y-104862381D01*
X60856667Y-104910000D01*
X60904286Y-104957619D01*
X60951905Y-105052857D01*
X60951905Y-105148095D01*
X60904286Y-105290952D01*
X60332857Y-105862381D01*
X60951905Y-105862381D01*
X118737143Y-103322381D02*
X118403809Y-102846190D01*
X118165714Y-103322381D02*
X118165714Y-102322381D01*
X118546667Y-102322381D01*
X118641905Y-102370000D01*
X118689524Y-102417619D01*
X118737143Y-102512857D01*
X118737143Y-102655714D01*
X118689524Y-102750952D01*
X118641905Y-102798571D01*
X118546667Y-102846190D01*
X118165714Y-102846190D01*
X119689524Y-103322381D02*
X119118095Y-103322381D01*
X119403809Y-103322381D02*
X119403809Y-102322381D01*
X119308571Y-102465238D01*
X119213333Y-102560476D01*
X119118095Y-102608095D01*
X120022857Y-102322381D02*
X120641905Y-102322381D01*
X120308571Y-102703333D01*
X120451429Y-102703333D01*
X120546667Y-102750952D01*
X120594286Y-102798571D01*
X120641905Y-102893810D01*
X120641905Y-103131905D01*
X120594286Y-103227143D01*
X120546667Y-103274762D01*
X120451429Y-103322381D01*
X120165714Y-103322381D01*
X120070476Y-103274762D01*
X120022857Y-103227143D01*
X118737143Y-98242381D02*
X118403809Y-97766190D01*
X118165714Y-98242381D02*
X118165714Y-97242381D01*
X118546667Y-97242381D01*
X118641905Y-97290000D01*
X118689524Y-97337619D01*
X118737143Y-97432857D01*
X118737143Y-97575714D01*
X118689524Y-97670952D01*
X118641905Y-97718571D01*
X118546667Y-97766190D01*
X118165714Y-97766190D01*
X119689524Y-98242381D02*
X119118095Y-98242381D01*
X119403809Y-98242381D02*
X119403809Y-97242381D01*
X119308571Y-97385238D01*
X119213333Y-97480476D01*
X119118095Y-97528095D01*
X120546667Y-97575714D02*
X120546667Y-98242381D01*
X120308571Y-97194762D02*
X120070476Y-97909048D01*
X120689524Y-97909048D01*
X118737143Y-93162381D02*
X118403809Y-92686190D01*
X118165714Y-93162381D02*
X118165714Y-92162381D01*
X118546667Y-92162381D01*
X118641905Y-92210000D01*
X118689524Y-92257619D01*
X118737143Y-92352857D01*
X118737143Y-92495714D01*
X118689524Y-92590952D01*
X118641905Y-92638571D01*
X118546667Y-92686190D01*
X118165714Y-92686190D01*
X119689524Y-93162381D02*
X119118095Y-93162381D01*
X119403809Y-93162381D02*
X119403809Y-92162381D01*
X119308571Y-92305238D01*
X119213333Y-92400476D01*
X119118095Y-92448095D01*
X120594286Y-92162381D02*
X120118095Y-92162381D01*
X120070476Y-92638571D01*
X120118095Y-92590952D01*
X120213333Y-92543333D01*
X120451429Y-92543333D01*
X120546667Y-92590952D01*
X120594286Y-92638571D01*
X120641905Y-92733810D01*
X120641905Y-92971905D01*
X120594286Y-93067143D01*
X120546667Y-93114762D01*
X120451429Y-93162381D01*
X120213333Y-93162381D01*
X120118095Y-93114762D01*
X120070476Y-93067143D01*
X118737143Y-88082381D02*
X118403809Y-87606190D01*
X118165714Y-88082381D02*
X118165714Y-87082381D01*
X118546667Y-87082381D01*
X118641905Y-87130000D01*
X118689524Y-87177619D01*
X118737143Y-87272857D01*
X118737143Y-87415714D01*
X118689524Y-87510952D01*
X118641905Y-87558571D01*
X118546667Y-87606190D01*
X118165714Y-87606190D01*
X119689524Y-88082381D02*
X119118095Y-88082381D01*
X119403809Y-88082381D02*
X119403809Y-87082381D01*
X119308571Y-87225238D01*
X119213333Y-87320476D01*
X119118095Y-87368095D01*
X120546667Y-87082381D02*
X120356190Y-87082381D01*
X120260952Y-87130000D01*
X120213333Y-87177619D01*
X120118095Y-87320476D01*
X120070476Y-87510952D01*
X120070476Y-87891905D01*
X120118095Y-87987143D01*
X120165714Y-88034762D01*
X120260952Y-88082381D01*
X120451429Y-88082381D01*
X120546667Y-88034762D01*
X120594286Y-87987143D01*
X120641905Y-87891905D01*
X120641905Y-87653810D01*
X120594286Y-87558571D01*
X120546667Y-87510952D01*
X120451429Y-87463333D01*
X120260952Y-87463333D01*
X120165714Y-87510952D01*
X120118095Y-87558571D01*
X120070476Y-87653810D01*
X56562381Y-128912857D02*
X56086190Y-129246191D01*
X56562381Y-129484286D02*
X55562381Y-129484286D01*
X55562381Y-129103333D01*
X55610000Y-129008095D01*
X55657619Y-128960476D01*
X55752857Y-128912857D01*
X55895714Y-128912857D01*
X55990952Y-128960476D01*
X56038571Y-129008095D01*
X56086190Y-129103333D01*
X56086190Y-129484286D01*
X56562381Y-127960476D02*
X56562381Y-128531905D01*
X56562381Y-128246191D02*
X55562381Y-128246191D01*
X55705238Y-128341429D01*
X55800476Y-128436667D01*
X55848095Y-128531905D01*
X55562381Y-127627143D02*
X55562381Y-126960476D01*
X56562381Y-127389048D01*
X47672381Y-126372857D02*
X47196190Y-126706191D01*
X47672381Y-126944286D02*
X46672381Y-126944286D01*
X46672381Y-126563333D01*
X46720000Y-126468095D01*
X46767619Y-126420476D01*
X46862857Y-126372857D01*
X47005714Y-126372857D01*
X47100952Y-126420476D01*
X47148571Y-126468095D01*
X47196190Y-126563333D01*
X47196190Y-126944286D01*
X47672381Y-125420476D02*
X47672381Y-125991905D01*
X47672381Y-125706191D02*
X46672381Y-125706191D01*
X46815238Y-125801429D01*
X46910476Y-125896667D01*
X46958095Y-125991905D01*
X47100952Y-124849048D02*
X47053333Y-124944286D01*
X47005714Y-124991905D01*
X46910476Y-125039524D01*
X46862857Y-125039524D01*
X46767619Y-124991905D01*
X46720000Y-124944286D01*
X46672381Y-124849048D01*
X46672381Y-124658571D01*
X46720000Y-124563333D01*
X46767619Y-124515714D01*
X46862857Y-124468095D01*
X46910476Y-124468095D01*
X47005714Y-124515714D01*
X47053333Y-124563333D01*
X47100952Y-124658571D01*
X47100952Y-124849048D01*
X47148571Y-124944286D01*
X47196190Y-124991905D01*
X47291429Y-125039524D01*
X47481905Y-125039524D01*
X47577143Y-124991905D01*
X47624762Y-124944286D01*
X47672381Y-124849048D01*
X47672381Y-124658571D01*
X47624762Y-124563333D01*
X47577143Y-124515714D01*
X47481905Y-124468095D01*
X47291429Y-124468095D01*
X47196190Y-124515714D01*
X47148571Y-124563333D01*
X47100952Y-124658571D01*
X57372381Y-75572857D02*
X56896190Y-75906191D01*
X57372381Y-76144286D02*
X56372381Y-76144286D01*
X56372381Y-75763333D01*
X56420000Y-75668095D01*
X56467619Y-75620476D01*
X56562857Y-75572857D01*
X56705714Y-75572857D01*
X56800952Y-75620476D01*
X56848571Y-75668095D01*
X56896190Y-75763333D01*
X56896190Y-76144286D01*
X57372381Y-74620476D02*
X57372381Y-75191905D01*
X57372381Y-74906191D02*
X56372381Y-74906191D01*
X56515238Y-75001429D01*
X56610476Y-75096667D01*
X56658095Y-75191905D01*
X57372381Y-74144286D02*
X57372381Y-73953810D01*
X57324762Y-73858571D01*
X57277143Y-73810952D01*
X57134286Y-73715714D01*
X56943810Y-73668095D01*
X56562857Y-73668095D01*
X56467619Y-73715714D01*
X56420000Y-73763333D01*
X56372381Y-73858571D01*
X56372381Y-74049048D01*
X56420000Y-74144286D01*
X56467619Y-74191905D01*
X56562857Y-74239524D01*
X56800952Y-74239524D01*
X56896190Y-74191905D01*
X56943810Y-74144286D01*
X56991429Y-74049048D01*
X56991429Y-73858571D01*
X56943810Y-73763333D01*
X56896190Y-73715714D01*
X56800952Y-73668095D01*
X121713334Y-116207143D02*
X121665715Y-116254762D01*
X121522858Y-116302381D01*
X121427620Y-116302381D01*
X121284762Y-116254762D01*
X121189524Y-116159524D01*
X121141905Y-116064286D01*
X121094286Y-115873810D01*
X121094286Y-115730952D01*
X121141905Y-115540476D01*
X121189524Y-115445238D01*
X121284762Y-115350000D01*
X121427620Y-115302381D01*
X121522858Y-115302381D01*
X121665715Y-115350000D01*
X121713334Y-115397619D01*
X122665715Y-116302381D02*
X122094286Y-116302381D01*
X122380000Y-116302381D02*
X122380000Y-115302381D01*
X122284762Y-115445238D01*
X122189524Y-115540476D01*
X122094286Y-115588095D01*
X126087143Y-128416666D02*
X126134762Y-128464285D01*
X126182381Y-128607142D01*
X126182381Y-128702380D01*
X126134762Y-128845238D01*
X126039524Y-128940476D01*
X125944286Y-128988095D01*
X125753810Y-129035714D01*
X125610952Y-129035714D01*
X125420476Y-128988095D01*
X125325238Y-128940476D01*
X125230000Y-128845238D01*
X125182381Y-128702380D01*
X125182381Y-128607142D01*
X125230000Y-128464285D01*
X125277619Y-128416666D01*
X125277619Y-128035714D02*
X125230000Y-127988095D01*
X125182381Y-127892857D01*
X125182381Y-127654761D01*
X125230000Y-127559523D01*
X125277619Y-127511904D01*
X125372857Y-127464285D01*
X125468095Y-127464285D01*
X125610952Y-127511904D01*
X126182381Y-128083333D01*
X126182381Y-127464285D01*
X127912381Y-127761905D02*
X128721905Y-127761905D01*
X128817143Y-127714286D01*
X128864762Y-127666667D01*
X128912381Y-127571429D01*
X128912381Y-127380952D01*
X128864762Y-127285714D01*
X128817143Y-127238095D01*
X128721905Y-127190476D01*
X127912381Y-127190476D01*
X127912381Y-126809524D02*
X127912381Y-126142857D01*
X128912381Y-126571429D01*
M02*
